<?xml version="1.0" standalone="no"?>
<svg xmlns="http://www.w3.org/2000/svg" width="2000" height="2000" xmlns:xlink="http://www.w3.org/1999/xlink" viewBox="0 0 2000 2000"><defs><clipPath id="clip-path-background-color-3"><rect x="0" y="0" width="2000" height="2000"/></clipPath><clipPath id="clip-path-dot-color-3"><path d="M 448 16v 48h 48v -24a 24 24, 0, 0, 0, -24 -24" transform="rotate(-90,472,40)"/><rect x="496" y="16" width="48" height="48" transform="rotate(0,520,40)"/><path d="M 544 16v 48h 48v -24a 24 24, 0, 0, 0, -24 -24" transform="rotate(0,568,40)"/><path d="M 688 16v 48h 24a 24 24, 0, 0, 0, 0 -48" transform="rotate(-90,712,40)"/><path d="M 784 16v 48h 48v -24a 24 24, 0, 0, 0, -24 -24" transform="rotate(-90,808,40)"/><rect x="832" y="16" width="48" height="48" transform="rotate(0,856,40)"/><rect x="880" y="16" width="48" height="48" transform="rotate(0,904,40)"/><rect x="928" y="16" width="48" height="48" transform="rotate(0,952,40)"/><path d="M 976 16v 48h 48v -24a 24 24, 0, 0, 0, -24 -24" transform="rotate(0,1000,40)"/><path d="M 1120 16v 48h 48v -24a 24 24, 0, 0, 0, -24 -24" transform="rotate(-90,1144,40)"/><path d="M 1168 16v 48h 24a 24 24, 0, 0, 0, 0 -48" transform="rotate(0,1192,40)"/><circle cx="1288" cy="40" r="24" transform="rotate(0,1288,40)"/><path d="M 1408 16v 48h 48v -24a 24 24, 0, 0, 0, -24 -24" transform="rotate(-90,1432,40)"/><path d="M 1456 16v 48h 24a 24 24, 0, 0, 0, 0 -48" transform="rotate(0,1480,40)"/><path d="M 448 64v 48h 24a 24 24, 0, 0, 0, 0 -48" transform="rotate(90,472,88)"/><path d="M 544 64v 48h 48v -24a 24 24, 0, 0, 0, -24 -24" transform="rotate(180,568,88)"/><path d="M 592 64v 48h 24a 24 24, 0, 0, 0, 0 -48" transform="rotate(0,616,88)"/><rect x="688" y="64" width="48" height="48" transform="rotate(0,712,88)"/><path d="M 784 64v 48h 48v -24a 24 24, 0, 0, 0, -24 -24" transform="rotate(180,808,88)"/><path d="M 832 64v 48h 48v -24a 24 24, 0, 0, 0, -24 -24" transform="rotate(90,856,88)"/><rect x="976" y="64" width="48" height="48" transform="rotate(0,1000,88)"/><path d="M 1072 64v 48h 48v -24a 24 24, 0, 0, 0, -24 -24" transform="rotate(-90,1096,88)"/><rect x="1120" y="64" width="48" height="48" transform="rotate(0,1144,88)"/><path d="M 1408 64v 48h 24a 24 24, 0, 0, 0, 0 -48" transform="rotate(90,1432,88)"/><path d="M 1504 64v 48h 24a 24 24, 0, 0, 0, 0 -48" transform="rotate(-90,1528,88)"/><path d="M 400 112v 48h 24a 24 24, 0, 0, 0, 0 -48" transform="rotate(-90,424,136)"/><path d="M 640 112v 48h 24a 24 24, 0, 0, 0, 0 -48" transform="rotate(180,664,136)"/><rect x="688" y="112" width="48" height="48" transform="rotate(0,712,136)"/><path d="M 928 112v 48h 24a 24 24, 0, 0, 0, 0 -48" transform="rotate(180,952,136)"/><rect x="976" y="112" width="48" height="48" transform="rotate(0,1000,136)"/><rect x="1024" y="112" width="48" height="48" transform="rotate(0,1048,136)"/><rect x="1072" y="112" width="48" height="48" transform="rotate(0,1096,136)"/><rect x="1120" y="112" width="48" height="48" transform="rotate(0,1144,136)"/><path d="M 1168 112v 48h 24a 24 24, 0, 0, 0, 0 -48" transform="rotate(0,1192,136)"/><path d="M 1312 112v 48h 24a 24 24, 0, 0, 0, 0 -48" transform="rotate(-90,1336,136)"/><path d="M 1504 112v 48h 24a 24 24, 0, 0, 0, 0 -48" transform="rotate(90,1528,136)"/><path d="M 400 160v 48h 24a 24 24, 0, 0, 0, 0 -48" transform="rotate(90,424,184)"/><path d="M 592 160v 48h 24a 24 24, 0, 0, 0, 0 -48" transform="rotate(-90,616,184)"/><rect x="688" y="160" width="48" height="48" transform="rotate(0,712,184)"/><path d="M 784 160v 48h 24a 24 24, 0, 0, 0, 0 -48" transform="rotate(-90,808,184)"/><rect x="1072" y="160" width="48" height="48" transform="rotate(0,1096,184)"/><path d="M 1120 160v 48h 48v -24a 24 24, 0, 0, 0, -24 -24" transform="rotate(90,1144,184)"/><path d="M 1312 160v 48h 48v -24a 24 24, 0, 0, 0, -24 -24" transform="rotate(180,1336,184)"/><path d="M 1360 160v 48h 48v -24a 24 24, 0, 0, 0, -24 -24" transform="rotate(0,1384,184)"/><path d="M 1456 160v 48h 24a 24 24, 0, 0, 0, 0 -48" transform="rotate(-90,1480,184)"/><path d="M 1552 160v 48h 24a 24 24, 0, 0, 0, 0 -48" transform="rotate(-90,1576,184)"/><path d="M 496 208v 48h 24a 24 24, 0, 0, 0, 0 -48" transform="rotate(180,520,232)"/><rect x="544" y="208" width="48" height="48" transform="rotate(0,568,232)"/><rect x="592" y="208" width="48" height="48" transform="rotate(0,616,232)"/><rect x="640" y="208" width="48" height="48" transform="rotate(0,664,232)"/><path d="M 688 208v 48h 48v -24a 24 24, 0, 0, 0, -24 -24" transform="rotate(90,712,232)"/><rect x="784" y="208" width="48" height="48" transform="rotate(0,808,232)"/><path d="M 832 208v 48h 24a 24 24, 0, 0, 0, 0 -48" transform="rotate(0,856,232)"/><path d="M 1024 208v 48h 24a 24 24, 0, 0, 0, 0 -48" transform="rotate(180,1048,232)"/><rect x="1072" y="208" width="48" height="48" transform="rotate(0,1096,232)"/><circle cx="1192" cy="232" r="24" transform="rotate(0,1192,232)"/><path d="M 1264 208v 48h 24a 24 24, 0, 0, 0, 0 -48" transform="rotate(-90,1288,232)"/><rect x="1360" y="208" width="48" height="48" transform="rotate(0,1384,232)"/><rect x="1408" y="208" width="48" height="48" transform="rotate(0,1432,232)"/><rect x="1456" y="208" width="48" height="48" transform="rotate(0,1480,232)"/><rect x="1504" y="208" width="48" height="48" transform="rotate(0,1528,232)"/><rect x="1552" y="208" width="48" height="48" transform="rotate(0,1576,232)"/><rect x="592" y="256" width="48" height="48" transform="rotate(0,616,280)"/><path d="M 736 256v 48h 24a 24 24, 0, 0, 0, 0 -48" transform="rotate(180,760,280)"/><rect x="784" y="256" width="48" height="48" transform="rotate(0,808,280)"/><path d="M 976 256v 48h 24a 24 24, 0, 0, 0, 0 -48" transform="rotate(-90,1000,280)"/><rect x="1072" y="256" width="48" height="48" transform="rotate(0,1096,280)"/><path d="M 1120 256v 48h 24a 24 24, 0, 0, 0, 0 -48" transform="rotate(0,1144,280)"/><rect x="1264" y="256" width="48" height="48" transform="rotate(0,1288,280)"/><rect x="1360" y="256" width="48" height="48" transform="rotate(0,1384,280)"/><path d="M 1408 256v 48h 48v -24a 24 24, 0, 0, 0, -24 -24" transform="rotate(90,1432,280)"/><rect x="1552" y="256" width="48" height="48" transform="rotate(0,1576,280)"/><circle cx="424" cy="328" r="24" transform="rotate(0,424,328)"/><path d="M 496 304v 48h 24a 24 24, 0, 0, 0, 0 -48" transform="rotate(-90,520,328)"/><rect x="592" y="304" width="48" height="48" transform="rotate(0,616,328)"/><circle cx="712" cy="328" r="24" transform="rotate(0,712,328)"/><rect x="784" y="304" width="48" height="48" transform="rotate(0,808,328)"/><circle cx="904" cy="328" r="24" transform="rotate(0,904,328)"/><rect x="976" y="304" width="48" height="48" transform="rotate(0,1000,328)"/><path d="M 1072 304v 48h 24a 24 24, 0, 0, 0, 0 -48" transform="rotate(90,1096,328)"/><circle cx="1192" cy="328" r="24" transform="rotate(0,1192,328)"/><rect x="1264" y="304" width="48" height="48" transform="rotate(0,1288,328)"/><path d="M 1360 304v 48h 24a 24 24, 0, 0, 0, 0 -48" transform="rotate(90,1384,328)"/><path d="M 1456 304v 48h 24a 24 24, 0, 0, 0, 0 -48" transform="rotate(-90,1480,328)"/><path d="M 1552 304v 48h 24a 24 24, 0, 0, 0, 0 -48" transform="rotate(90,1576,328)"/><path d="M 448 352v 48h 24a 24 24, 0, 0, 0, 0 -48" transform="rotate(180,472,376)"/><path d="M 496 352v 48h 48v -24a 24 24, 0, 0, 0, -24 -24" transform="rotate(90,520,376)"/><path d="M 592 352v 48h 48v -24a 24 24, 0, 0, 0, -24 -24" transform="rotate(180,616,376)"/><path d="M 640 352v 48h 48v -24a 24 24, 0, 0, 0, -24 -24" transform="rotate(0,664,376)"/><path d="M 784 352v 48h 24a 24 24, 0, 0, 0, 0 -48" transform="rotate(90,808,376)"/><path d="M 928 352v 48h 24a 24 24, 0, 0, 0, 0 -48" transform="rotate(180,952,376)"/><rect x="976" y="352" width="48" height="48" transform="rotate(0,1000,376)"/><path d="M 1024 352v 48h 48v -24a 24 24, 0, 0, 0, -24 -24" transform="rotate(0,1048,376)"/><path d="M 1264 352v 48h 48v -24a 24 24, 0, 0, 0, -24 -24" transform="rotate(180,1288,376)"/><path d="M 1312 352v 48h 48v -24a 24 24, 0, 0, 0, -24 -24" transform="rotate(0,1336,376)"/><path d="M 1456 352v 48h 48v -24a 24 24, 0, 0, 0, -24 -24" transform="rotate(180,1480,376)"/><path d="M 1504 352v 48h 48v -24a 24 24, 0, 0, 0, -24 -24" transform="rotate(0,1528,376)"/><path d="M 160 400v 48h 24a 24 24, 0, 0, 0, 0 -48" transform="rotate(180,184,424)"/><path d="M 208 400v 48h 24a 24 24, 0, 0, 0, 0 -48" transform="rotate(0,232,424)"/><path d="M 304 400v 48h 24a 24 24, 0, 0, 0, 0 -48" transform="rotate(180,328,424)"/><path d="M 352 400v 48h 24a 24 24, 0, 0, 0, 0 -48" transform="rotate(0,376,424)"/><circle cx="568" cy="424" r="24" transform="rotate(0,568,424)"/><rect x="640" y="400" width="48" height="48" transform="rotate(0,664,424)"/><rect x="688" y="400" width="48" height="48" transform="rotate(0,712,424)"/><path d="M 736 400v 48h 48v -24a 24 24, 0, 0, 0, -24 -24" transform="rotate(0,760,424)"/><circle cx="856" cy="424" r="24" transform="rotate(0,856,424)"/><rect x="1024" y="400" width="48" height="48" transform="rotate(0,1048,424)"/><rect x="1072" y="400" width="48" height="48" transform="rotate(0,1096,424)"/><rect x="1120" y="400" width="48" height="48" transform="rotate(0,1144,424)"/><rect x="1168" y="400" width="48" height="48" transform="rotate(0,1192,424)"/><path d="M 1216 400v 48h 48v -24a 24 24, 0, 0, 0, -24 -24" transform="rotate(0,1240,424)"/><rect x="1312" y="400" width="48" height="48" transform="rotate(0,1336,424)"/><rect x="1360" y="400" width="48" height="48" transform="rotate(0,1384,424)"/><path d="M 1408 400v 48h 48v -24a 24 24, 0, 0, 0, -24 -24" transform="rotate(0,1432,424)"/><rect x="1504" y="400" width="48" height="48" transform="rotate(0,1528,424)"/><path d="M 1552 400v 48h 24a 24 24, 0, 0, 0, 0 -48" transform="rotate(0,1576,424)"/><path d="M 1792 400v 48h 24a 24 24, 0, 0, 0, 0 -48" transform="rotate(180,1816,424)"/><path d="M 1840 400v 48h 24a 24 24, 0, 0, 0, 0 -48" transform="rotate(0,1864,424)"/><path d="M 16 448v 48h 24a 24 24, 0, 0, 0, 0 -48" transform="rotate(180,40,472)"/><rect x="64" y="448" width="48" height="48" transform="rotate(0,88,472)"/><path d="M 112 448v 48h 48v -24a 24 24, 0, 0, 0, -24 -24" transform="rotate(0,136,472)"/><circle cx="424" cy="472" r="24" transform="rotate(0,424,472)"/><rect x="640" y="448" width="48" height="48" transform="rotate(0,664,472)"/><rect x="688" y="448" width="48" height="48" transform="rotate(0,712,472)"/><path d="M 736 448v 48h 48v -24a 24 24, 0, 0, 0, -24 -24" transform="rotate(90,760,472)"/><path d="M 1024 448v 48h 48v -24a 24 24, 0, 0, 0, -24 -24" transform="rotate(180,1048,472)"/><rect x="1072" y="448" width="48" height="48" transform="rotate(0,1096,472)"/><rect x="1216" y="448" width="48" height="48" transform="rotate(0,1240,472)"/><rect x="1312" y="448" width="48" height="48" transform="rotate(0,1336,472)"/><path d="M 1408 448v 48h 24a 24 24, 0, 0, 0, 0 -48" transform="rotate(90,1432,472)"/><path d="M 1504 448v 48h 24a 24 24, 0, 0, 0, 0 -48" transform="rotate(90,1528,472)"/><path d="M 1600 448v 48h 24a 24 24, 0, 0, 0, 0 -48" transform="rotate(-90,1624,472)"/><path d="M 1696 448v 48h 24a 24 24, 0, 0, 0, 0 -48" transform="rotate(180,1720,472)"/><path d="M 1744 448v 48h 24a 24 24, 0, 0, 0, 0 -48" transform="rotate(0,1768,472)"/><path d="M 1888 448v 48h 24a 24 24, 0, 0, 0, 0 -48" transform="rotate(-90,1912,472)"/><path d="M 64 496v 48h 48v -24a 24 24, 0, 0, 0, -24 -24" transform="rotate(180,88,520)"/><path d="M 112 496v 48h 48v -24a 24 24, 0, 0, 0, -24 -24" transform="rotate(90,136,520)"/><path d="M 208 496v 48h 48v -24a 24 24, 0, 0, 0, -24 -24" transform="rotate(-90,232,520)"/><rect x="256" y="496" width="48" height="48" transform="rotate(0,280,520)"/><rect x="304" y="496" width="48" height="48" transform="rotate(0,328,520)"/><path d="M 352 496v 48h 24a 24 24, 0, 0, 0, 0 -48" transform="rotate(0,376,520)"/><path d="M 448 496v 48h 24a 24 24, 0, 0, 0, 0 -48" transform="rotate(180,472,520)"/><path d="M 496 496v 48h 48v -24a 24 24, 0, 0, 0, -24 -24" transform="rotate(0,520,520)"/><path d="M 640 496v 48h 24a 24 24, 0, 0, 0, 0 -48" transform="rotate(90,664,520)"/><path d="M 832 496v 48h 24a 24 24, 0, 0, 0, 0 -48" transform="rotate(-90,856,520)"/><path d="M 928 496v 48h 48v -24a 24 24, 0, 0, 0, -24 -24" transform="rotate(-90,952,520)"/><path d="M 976 496v 48h 48v -24a 24 24, 0, 0, 0, -24 -24" transform="rotate(0,1000,520)"/><rect x="1072" y="496" width="48" height="48" transform="rotate(0,1096,520)"/><path d="M 1216 496v 48h 24a 24 24, 0, 0, 0, 0 -48" transform="rotate(90,1240,520)"/><path d="M 1312 496v 48h 24a 24 24, 0, 0, 0, 0 -48" transform="rotate(90,1336,520)"/><rect x="1600" y="496" width="48" height="48" transform="rotate(0,1624,520)"/><path d="M 1840 496v 48h 24a 24 24, 0, 0, 0, 0 -48" transform="rotate(180,1864,520)"/><rect x="1888" y="496" width="48" height="48" transform="rotate(0,1912,520)"/><circle cx="40" cy="568" r="24" transform="rotate(0,40,568)"/><rect x="208" y="544" width="48" height="48" transform="rotate(0,232,568)"/><path d="M 400 544v 48h 24a 24 24, 0, 0, 0, 0 -48" transform="rotate(-90,424,568)"/><path d="M 496 544v 48h 48v -24a 24 24, 0, 0, 0, -24 -24" transform="rotate(180,520,568)"/><path d="M 544 544v 48h 24a 24 24, 0, 0, 0, 0 -48" transform="rotate(0,568,568)"/><path d="M 784 544v 48h 48v -24a 24 24, 0, 0, 0, -24 -24" transform="rotate(-90,808,568)"/><rect x="832" y="544" width="48" height="48" transform="rotate(0,856,568)"/><rect x="880" y="544" width="48" height="48" transform="rotate(0,904,568)"/><rect x="928" y="544" width="48" height="48" transform="rotate(0,952,568)"/><rect x="976" y="544" width="48" height="48" transform="rotate(0,1000,568)"/><rect x="1024" y="544" width="48" height="48" transform="rotate(0,1048,568)"/><rect x="1072" y="544" width="48" height="48" transform="rotate(0,1096,568)"/><rect x="1120" y="544" width="48" height="48" transform="rotate(0,1144,568)"/><path d="M 1168 544v 48h 48v -24a 24 24, 0, 0, 0, -24 -24" transform="rotate(0,1192,568)"/><path d="M 1408 544v 48h 24a 24 24, 0, 0, 0, 0 -48" transform="rotate(180,1432,568)"/><rect x="1456" y="544" width="48" height="48" transform="rotate(0,1480,568)"/><rect x="1504" y="544" width="48" height="48" transform="rotate(0,1528,568)"/><rect x="1552" y="544" width="48" height="48" transform="rotate(0,1576,568)"/><rect x="1600" y="544" width="48" height="48" transform="rotate(0,1624,568)"/><rect x="1648" y="544" width="48" height="48" transform="rotate(0,1672,568)"/><rect x="1696" y="544" width="48" height="48" transform="rotate(0,1720,568)"/><rect x="1744" y="544" width="48" height="48" transform="rotate(0,1768,568)"/><path d="M 1792 544v 48h 24a 24 24, 0, 0, 0, 0 -48" transform="rotate(0,1816,568)"/><path d="M 1888 544v 48h 24a 24 24, 0, 0, 0, 0 -48" transform="rotate(90,1912,568)"/><path d="M 112 592v 48h 48v -24a 24 24, 0, 0, 0, -24 -24" transform="rotate(-90,136,616)"/><rect x="160" y="592" width="48" height="48" transform="rotate(0,184,616)"/><path d="M 208 592v 48h 48v -24a 24 24, 0, 0, 0, -24 -24" transform="rotate(90,232,616)"/><circle cx="328" cy="616" r="24" transform="rotate(0,328,616)"/><rect x="400" y="592" width="48" height="48" transform="rotate(0,424,616)"/><path d="M 448 592v 48h 48v -24a 24 24, 0, 0, 0, -24 -24" transform="rotate(0,472,616)"/><path d="M 592 592v 48h 24a 24 24, 0, 0, 0, 0 -48" transform="rotate(-90,616,616)"/><circle cx="712" cy="616" r="24" transform="rotate(0,712,616)"/><path d="M 784 592v 48h 48v -24a 24 24, 0, 0, 0, -24 -24" transform="rotate(180,808,616)"/><rect x="832" y="592" width="48" height="48" transform="rotate(0,856,616)"/><rect x="880" y="592" width="48" height="48" transform="rotate(0,904,616)"/><rect x="928" y="592" width="48" height="48" transform="rotate(0,952,616)"/><path d="M 1168 592v 48h 24a 24 24, 0, 0, 0, 0 -48" transform="rotate(90,1192,616)"/><rect x="1648" y="592" width="48" height="48" transform="rotate(0,1672,616)"/><path d="M 16 640v 48h 24a 24 24, 0, 0, 0, 0 -48" transform="rotate(180,40,664)"/><rect x="64" y="640" width="48" height="48" transform="rotate(0,88,664)"/><rect x="112" y="640" width="48" height="48" transform="rotate(0,136,664)"/><rect x="160" y="640" width="48" height="48" transform="rotate(0,184,664)"/><path d="M 352 640v 48h 48v -24a 24 24, 0, 0, 0, -24 -24" transform="rotate(-90,376,664)"/><rect x="400" y="640" width="48" height="48" transform="rotate(0,424,664)"/><rect x="448" y="640" width="48" height="48" transform="rotate(0,472,664)"/><rect x="496" y="640" width="48" height="48" transform="rotate(0,520,664)"/><rect x="544" y="640" width="48" height="48" transform="rotate(0,568,664)"/><rect x="592" y="640" width="48" height="48" transform="rotate(0,616,664)"/><path d="M 640 640v 48h 24a 24 24, 0, 0, 0, 0 -48" transform="rotate(0,664,664)"/><circle cx="760" cy="664" r="24" transform="rotate(0,760,664)"/><path d="M 832 640v 48h 48v -24a 24 24, 0, 0, 0, -24 -24" transform="rotate(180,856,664)"/><rect x="880" y="640" width="48" height="48" transform="rotate(0,904,664)"/><rect x="928" y="640" width="48" height="48" transform="rotate(0,952,664)"/><rect x="976" y="640" width="48" height="48" transform="rotate(0,1000,664)"/><rect x="1024" y="640" width="48" height="48" transform="rotate(0,1048,664)"/><path d="M 1072 640v 48h 48v -24a 24 24, 0, 0, 0, -24 -24" transform="rotate(0,1096,664)"/><circle cx="1240" cy="664" r="24" transform="rotate(0,1240,664)"/><path d="M 1408 640v 48h 48v -24a 24 24, 0, 0, 0, -24 -24" transform="rotate(-90,1432,664)"/><path d="M 1456 640v 48h 24a 24 24, 0, 0, 0, 0 -48" transform="rotate(0,1480,664)"/><path d="M 1552 640v 48h 24a 24 24, 0, 0, 0, 0 -48" transform="rotate(-90,1576,664)"/><rect x="1648" y="640" width="48" height="48" transform="rotate(0,1672,664)"/><rect x="1696" y="640" width="48" height="48" transform="rotate(0,1720,664)"/><path d="M 1744 640v 48h 24a 24 24, 0, 0, 0, 0 -48" transform="rotate(0,1768,664)"/><path d="M 1936 640v 48h 24a 24 24, 0, 0, 0, 0 -48" transform="rotate(-90,1960,664)"/><path d="M 160 688v 48h 24a 24 24, 0, 0, 0, 0 -48" transform="rotate(90,184,712)"/><path d="M 256 688v 48h 48v -24a 24 24, 0, 0, 0, -24 -24" transform="rotate(-90,280,712)"/><rect x="304" y="688" width="48" height="48" transform="rotate(0,328,712)"/><rect x="352" y="688" width="48" height="48" transform="rotate(0,376,712)"/><rect x="400" y="688" width="48" height="48" transform="rotate(0,424,712)"/><rect x="496" y="688" width="48" height="48" transform="rotate(0,520,712)"/><path d="M 592 688v 48h 24a 24 24, 0, 0, 0, 0 -48" transform="rotate(90,616,712)"/><path d="M 784 688v 48h 24a 24 24, 0, 0, 0, 0 -48" transform="rotate(-90,808,712)"/><path d="M 1024 688v 48h 48v -24a 24 24, 0, 0, 0, -24 -24" transform="rotate(180,1048,712)"/><rect x="1072" y="688" width="48" height="48" transform="rotate(0,1096,712)"/><path d="M 1120 688v 48h 24a 24 24, 0, 0, 0, 0 -48" transform="rotate(0,1144,712)"/><path d="M 1264 688v 48h 24a 24 24, 0, 0, 0, 0 -48" transform="rotate(180,1288,712)"/><path d="M 1312 688v 48h 24a 24 24, 0, 0, 0, 0 -48" transform="rotate(0,1336,712)"/><path d="M 1408 688v 48h 24a 24 24, 0, 0, 0, 0 -48" transform="rotate(90,1432,712)"/><path d="M 1504 688v 48h 24a 24 24, 0, 0, 0, 0 -48" transform="rotate(180,1528,712)"/><rect x="1552" y="688" width="48" height="48" transform="rotate(0,1576,712)"/><rect x="1600" y="688" width="48" height="48" transform="rotate(0,1624,712)"/><rect x="1648" y="688" width="48" height="48" transform="rotate(0,1672,712)"/><path d="M 1696 688v 48h 48v -24a 24 24, 0, 0, 0, -24 -24" transform="rotate(90,1720,712)"/><rect x="1936" y="688" width="48" height="48" transform="rotate(0,1960,712)"/><path d="M 64 736v 48h 24a 24 24, 0, 0, 0, 0 -48" transform="rotate(-90,88,760)"/><path d="M 256 736v 48h 24a 24 24, 0, 0, 0, 0 -48" transform="rotate(90,280,760)"/><rect x="400" y="736" width="48" height="48" transform="rotate(0,424,760)"/><rect x="448" y="736" width="48" height="48" transform="rotate(0,472,760)"/><rect x="496" y="736" width="48" height="48" transform="rotate(0,520,760)"/><circle cx="664" cy="760" r="24" transform="rotate(0,664,760)"/><path d="M 736 736v 48h 48v -24a 24 24, 0, 0, 0, -24 -24" transform="rotate(-90,760,760)"/><rect x="784" y="736" width="48" height="48" transform="rotate(0,808,760)"/><circle cx="904" cy="760" r="24" transform="rotate(0,904,760)"/><path d="M 1072 736v 48h 24a 24 24, 0, 0, 0, 0 -48" transform="rotate(90,1096,760)"/><circle cx="1192" cy="760" r="24" transform="rotate(0,1192,760)"/><circle cx="1384" cy="760" r="24" transform="rotate(0,1384,760)"/><circle cx="1480" cy="760" r="24" transform="rotate(0,1480,760)"/><rect x="1552" y="736" width="48" height="48" transform="rotate(0,1576,760)"/><rect x="1600" y="736" width="48" height="48" transform="rotate(0,1624,760)"/><path d="M 1744 736v 48h 24a 24 24, 0, 0, 0, 0 -48" transform="rotate(180,1768,760)"/><rect x="1792" y="736" width="48" height="48" transform="rotate(0,1816,760)"/><path d="M 1840 736v 48h 24a 24 24, 0, 0, 0, 0 -48" transform="rotate(0,1864,760)"/><path d="M 1936 736v 48h 24a 24 24, 0, 0, 0, 0 -48" transform="rotate(90,1960,760)"/><path d="M 16 784v 48h 24a 24 24, 0, 0, 0, 0 -48" transform="rotate(180,40,808)"/><rect x="64" y="784" width="48" height="48" transform="rotate(0,88,808)"/><path d="M 112 784v 48h 24a 24 24, 0, 0, 0, 0 -48" transform="rotate(0,136,808)"/><path d="M 304 784v 48h 24a 24 24, 0, 0, 0, 0 -48" transform="rotate(180,328,808)"/><rect x="352" y="784" width="48" height="48" transform="rotate(0,376,808)"/><rect x="400" y="784" width="48" height="48" transform="rotate(0,424,808)"/><rect x="448" y="784" width="48" height="48" transform="rotate(0,472,808)"/><rect x="496" y="784" width="48" height="48" transform="rotate(0,520,808)"/><rect x="544" y="784" width="48" height="48" transform="rotate(0,568,808)"/><path d="M 592 784v 48h 24a 24 24, 0, 0, 0, 0 -48" transform="rotate(0,616,808)"/><path d="M 688 784v 48h 48v -24a 24 24, 0, 0, 0, -24 -24" transform="rotate(-90,712,808)"/><rect x="736" y="784" width="48" height="48" transform="rotate(0,760,808)"/><rect x="784" y="784" width="48" height="48" transform="rotate(0,808,808)"/><path d="M 832 784v 48h 48v -24a 24 24, 0, 0, 0, -24 -24" transform="rotate(0,856,808)"/><path d="M 928 784v 48h 24a 24 24, 0, 0, 0, 0 -48" transform="rotate(180,952,808)"/><path d="M 976 784v 48h 24a 24 24, 0, 0, 0, 0 -48" transform="rotate(0,1000,808)"/><circle cx="1144" cy="808" r="24" transform="rotate(0,1144,808)"/><path d="M 1312 784v 48h 24a 24 24, 0, 0, 0, 0 -48" transform="rotate(-90,1336,808)"/><rect x="1552" y="784" width="48" height="48" transform="rotate(0,1576,808)"/><rect x="1600" y="784" width="48" height="48" transform="rotate(0,1624,808)"/><path d="M 160 832v 48h 48v -24a 24 24, 0, 0, 0, -24 -24" transform="rotate(-90,184,856)"/><path d="M 208 832v 48h 48v -24a 24 24, 0, 0, 0, -24 -24" transform="rotate(0,232,856)"/><rect x="352" y="832" width="48" height="48" transform="rotate(0,376,856)"/><rect x="400" y="832" width="48" height="48" transform="rotate(0,424,856)"/><path d="M 640 832v 48h 48v -24a 24 24, 0, 0, 0, -24 -24" transform="rotate(-90,664,856)"/><path d="M 688 832v 48h 48v -24a 24 24, 0, 0, 0, -24 -24" transform="rotate(90,712,856)"/><path d="M 784 832v 48h 48v -24a 24 24, 0, 0, 0, -24 -24" transform="rotate(180,808,856)"/><path d="M 832 832v 48h 48v -24a 24 24, 0, 0, 0, -24 -24" transform="rotate(90,856,856)"/><path d="M 1024 832v 48h 24a 24 24, 0, 0, 0, 0 -48" transform="rotate(180,1048,856)"/><path d="M 1072 832v 48h 24a 24 24, 0, 0, 0, 0 -48" transform="rotate(0,1096,856)"/><path d="M 1168 832v 48h 48v -24a 24 24, 0, 0, 0, -24 -24" transform="rotate(-90,1192,856)"/><rect x="1216" y="832" width="48" height="48" transform="rotate(0,1240,856)"/><rect x="1264" y="832" width="48" height="48" transform="rotate(0,1288,856)"/><rect x="1312" y="832" width="48" height="48" transform="rotate(0,1336,856)"/><path d="M 1456 832v 48h 24a 24 24, 0, 0, 0, 0 -48" transform="rotate(180,1480,856)"/><rect x="1504" y="832" width="48" height="48" transform="rotate(0,1528,856)"/><rect x="1552" y="832" width="48" height="48" transform="rotate(0,1576,856)"/><rect x="1600" y="832" width="48" height="48" transform="rotate(0,1624,856)"/><path d="M 1744 832v 48h 24a 24 24, 0, 0, 0, 0 -48" transform="rotate(-90,1768,856)"/><path d="M 1840 832v 48h 24a 24 24, 0, 0, 0, 0 -48" transform="rotate(-90,1864,856)"/><circle cx="88" cy="904" r="24" transform="rotate(0,88,904)"/><rect x="160" y="880" width="48" height="48" transform="rotate(0,184,904)"/><rect x="208" y="880" width="48" height="48" transform="rotate(0,232,904)"/><rect x="256" y="880" width="48" height="48" transform="rotate(0,280,904)"/><rect x="304" y="880" width="48" height="48" transform="rotate(0,328,904)"/><rect x="352" y="880" width="48" height="48" transform="rotate(0,376,904)"/><rect x="400" y="880" width="48" height="48" transform="rotate(0,424,904)"/><rect x="448" y="880" width="48" height="48" transform="rotate(0,472,904)"/><rect x="496" y="880" width="48" height="48" transform="rotate(0,520,904)"/><rect x="544" y="880" width="48" height="48" transform="rotate(0,568,904)"/><rect x="592" y="880" width="48" height="48" transform="rotate(0,616,904)"/><path d="M 640 880v 48h 48v -24a 24 24, 0, 0, 0, -24 -24" transform="rotate(90,664,904)"/><circle cx="760" cy="904" r="24" transform="rotate(0,760,904)"/><path d="M 928 880v 48h 24a 24 24, 0, 0, 0, 0 -48" transform="rotate(180,952,904)"/><path d="M 976 880v 48h 48v -24a 24 24, 0, 0, 0, -24 -24" transform="rotate(0,1000,904)"/><path d="M 1120 880v 48h 48v -24a 24 24, 0, 0, 0, -24 -24" transform="rotate(-90,1144,904)"/><path d="M 1168 880v 48h 48v -24a 24 24, 0, 0, 0, -24 -24" transform="rotate(90,1192,904)"/><path d="M 1312 880v 48h 24a 24 24, 0, 0, 0, 0 -48" transform="rotate(90,1336,904)"/><rect x="1504" y="880" width="48" height="48" transform="rotate(0,1528,904)"/><rect x="1552" y="880" width="48" height="48" transform="rotate(0,1576,904)"/><rect x="1600" y="880" width="48" height="48" transform="rotate(0,1624,904)"/><rect x="1648" y="880" width="48" height="48" transform="rotate(0,1672,904)"/><rect x="1696" y="880" width="48" height="48" transform="rotate(0,1720,904)"/><rect x="1744" y="880" width="48" height="48" transform="rotate(0,1768,904)"/><rect x="1840" y="880" width="48" height="48" transform="rotate(0,1864,904)"/><circle cx="1960" cy="904" r="24" transform="rotate(0,1960,904)"/><path d="M 112 928v 48h 48v -24a 24 24, 0, 0, 0, -24 -24" transform="rotate(-90,136,952)"/><rect x="160" y="928" width="48" height="48" transform="rotate(0,184,952)"/><path d="M 352 928v 48h 48v -24a 24 24, 0, 0, 0, -24 -24" transform="rotate(180,376,952)"/><rect x="400" y="928" width="48" height="48" transform="rotate(0,424,952)"/><rect x="448" y="928" width="48" height="48" transform="rotate(0,472,952)"/><rect x="496" y="928" width="48" height="48" transform="rotate(0,520,952)"/><path d="M 592 928v 48h 24a 24 24, 0, 0, 0, 0 -48" transform="rotate(90,616,952)"/><path d="M 784 928v 48h 24a 24 24, 0, 0, 0, 0 -48" transform="rotate(180,808,952)"/><path d="M 832 928v 48h 24a 24 24, 0, 0, 0, 0 -48" transform="rotate(0,856,952)"/><rect x="976" y="928" width="48" height="48" transform="rotate(0,1000,952)"/><path d="M 1120 928v 48h 24a 24 24, 0, 0, 0, 0 -48" transform="rotate(90,1144,952)"/><circle cx="1288" cy="952" r="24" transform="rotate(0,1288,952)"/><path d="M 1408 928v 48h 24a 24 24, 0, 0, 0, 0 -48" transform="rotate(180,1432,952)"/><rect x="1456" y="928" width="48" height="48" transform="rotate(0,1480,952)"/><rect x="1504" y="928" width="48" height="48" transform="rotate(0,1528,952)"/><rect x="1552" y="928" width="48" height="48" transform="rotate(0,1576,952)"/><rect x="1600" y="928" width="48" height="48" transform="rotate(0,1624,952)"/><rect x="1648" y="928" width="48" height="48" transform="rotate(0,1672,952)"/><path d="M 1744 928v 48h 24a 24 24, 0, 0, 0, 0 -48" transform="rotate(90,1768,952)"/><rect x="1840" y="928" width="48" height="48" transform="rotate(0,1864,952)"/><path d="M 1888 928v 48h 24a 24 24, 0, 0, 0, 0 -48" transform="rotate(0,1912,952)"/><rect x="112" y="976" width="48" height="48" transform="rotate(0,136,1000)"/><rect x="160" y="976" width="48" height="48" transform="rotate(0,184,1000)"/><rect x="208" y="976" width="48" height="48" transform="rotate(0,232,1000)"/><rect x="256" y="976" width="48" height="48" transform="rotate(0,280,1000)"/><path d="M 304 976v 48h 24a 24 24, 0, 0, 0, 0 -48" transform="rotate(0,328,1000)"/><path d="M 496 976v 48h 48v -24a 24 24, 0, 0, 0, -24 -24" transform="rotate(180,520,1000)"/><path d="M 544 976v 48h 24a 24 24, 0, 0, 0, 0 -48" transform="rotate(0,568,1000)"/><path d="M 736 976v 48h 24a 24 24, 0, 0, 0, 0 -48" transform="rotate(-90,760,1000)"/><path d="M 880 976v 48h 24a 24 24, 0, 0, 0, 0 -48" transform="rotate(-90,904,1000)"/><path d="M 976 976v 48h 48v -24a 24 24, 0, 0, 0, -24 -24" transform="rotate(180,1000,1000)"/><path d="M 1024 976v 48h 48v -24a 24 24, 0, 0, 0, -24 -24" transform="rotate(0,1048,1000)"/><circle cx="1192" cy="1000" r="24" transform="rotate(0,1192,1000)"/><path d="M 1648 976v 48h 48v -24a 24 24, 0, 0, 0, -24 -24" transform="rotate(180,1672,1000)"/><path d="M 1696 976v 48h 24a 24 24, 0, 0, 0, 0 -48" transform="rotate(0,1720,1000)"/><rect x="1840" y="976" width="48" height="48" transform="rotate(0,1864,1000)"/><circle cx="1960" cy="1000" r="24" transform="rotate(0,1960,1000)"/><path d="M 16 1024v 48h 24a 24 24, 0, 0, 0, 0 -48" transform="rotate(180,40,1048)"/><rect x="64" y="1024" width="48" height="48" transform="rotate(0,88,1048)"/><rect x="112" y="1024" width="48" height="48" transform="rotate(0,136,1048)"/><rect x="208" y="1024" width="48" height="48" transform="rotate(0,232,1048)"/><path d="M 352 1024v 48h 24a 24 24, 0, 0, 0, 0 -48" transform="rotate(180,376,1048)"/><path d="M 400 1024v 48h 24a 24 24, 0, 0, 0, 0 -48" transform="rotate(0,424,1048)"/><path d="M 640 1024v 48h 48v -24a 24 24, 0, 0, 0, -24 -24" transform="rotate(-90,664,1048)"/><rect x="688" y="1024" width="48" height="48" transform="rotate(0,712,1048)"/><path d="M 736 1024v 48h 48v -24a 24 24, 0, 0, 0, -24 -24" transform="rotate(90,760,1048)"/><path d="M 832 1024v 48h 48v -24a 24 24, 0, 0, 0, -24 -24" transform="rotate(-90,856,1048)"/><rect x="880" y="1024" width="48" height="48" transform="rotate(0,904,1048)"/><path d="M 928 1024v 48h 24a 24 24, 0, 0, 0, 0 -48" transform="rotate(0,952,1048)"/><path d="M 1024 1024v 48h 48v -24a 24 24, 0, 0, 0, -24 -24" transform="rotate(180,1048,1048)"/><rect x="1072" y="1024" width="48" height="48" transform="rotate(0,1096,1048)"/><path d="M 1120 1024v 48h 24a 24 24, 0, 0, 0, 0 -48" transform="rotate(0,1144,1048)"/><path d="M 1264 1024v 48h 24a 24 24, 0, 0, 0, 0 -48" transform="rotate(180,1288,1048)"/><path d="M 1312 1024v 48h 48v -24a 24 24, 0, 0, 0, -24 -24" transform="rotate(0,1336,1048)"/><path d="M 1456 1024v 48h 48v -24a 24 24, 0, 0, 0, -24 -24" transform="rotate(-90,1480,1048)"/><path d="M 1504 1024v 48h 24a 24 24, 0, 0, 0, 0 -48" transform="rotate(0,1528,1048)"/><path d="M 1744 1024v 48h 24a 24 24, 0, 0, 0, 0 -48" transform="rotate(180,1768,1048)"/><rect x="1792" y="1024" width="48" height="48" transform="rotate(0,1816,1048)"/><path d="M 1840 1024v 48h 48v -24a 24 24, 0, 0, 0, -24 -24" transform="rotate(90,1864,1048)"/><path d="M 112 1072v 48h 24a 24 24, 0, 0, 0, 0 -48" transform="rotate(90,136,1096)"/><path d="M 208 1072v 48h 48v -24a 24 24, 0, 0, 0, -24 -24" transform="rotate(180,232,1096)"/><rect x="256" y="1072" width="48" height="48" transform="rotate(0,280,1096)"/><path d="M 304 1072v 48h 24a 24 24, 0, 0, 0, 0 -48" transform="rotate(0,328,1096)"/><circle cx="520" cy="1096" r="24" transform="rotate(0,520,1096)"/><path d="M 592 1072v 48h 24a 24 24, 0, 0, 0, 0 -48" transform="rotate(180,616,1096)"/><rect x="640" y="1072" width="48" height="48" transform="rotate(0,664,1096)"/><rect x="688" y="1072" width="48" height="48" transform="rotate(0,712,1096)"/><path d="M 784 1072v 48h 48v -24a 24 24, 0, 0, 0, -24 -24" transform="rotate(-90,808,1096)"/><rect x="832" y="1072" width="48" height="48" transform="rotate(0,856,1096)"/><path d="M 880 1072v 48h 48v -24a 24 24, 0, 0, 0, -24 -24" transform="rotate(90,904,1096)"/><circle cx="1192" cy="1096" r="24" transform="rotate(0,1192,1096)"/><rect x="1312" y="1072" width="48" height="48" transform="rotate(0,1336,1096)"/><path d="M 1360 1072v 48h 24a 24 24, 0, 0, 0, 0 -48" transform="rotate(0,1384,1096)"/><rect x="1456" y="1072" width="48" height="48" transform="rotate(0,1480,1096)"/><circle cx="40" cy="1144" r="24" transform="rotate(0,40,1144)"/><path d="M 352 1120v 48h 24a 24 24, 0, 0, 0, 0 -48" transform="rotate(-90,376,1144)"/><path d="M 448 1120v 48h 24a 24 24, 0, 0, 0, 0 -48" transform="rotate(-90,472,1144)"/><rect x="640" y="1120" width="48" height="48" transform="rotate(0,664,1144)"/><rect x="688" y="1120" width="48" height="48" transform="rotate(0,712,1144)"/><path d="M 784 1120v 48h 48v -24a 24 24, 0, 0, 0, -24 -24" transform="rotate(180,808,1144)"/><path d="M 832 1120v 48h 48v -24a 24 24, 0, 0, 0, -24 -24" transform="rotate(90,856,1144)"/><path d="M 976 1120v 48h 48v -24a 24 24, 0, 0, 0, -24 -24" transform="rotate(-90,1000,1144)"/><rect x="1024" y="1120" width="48" height="48" transform="rotate(0,1048,1144)"/><rect x="1072" y="1120" width="48" height="48" transform="rotate(0,1096,1144)"/><path d="M 1120 1120v 48h 24a 24 24, 0, 0, 0, 0 -48" transform="rotate(0,1144,1144)"/><path d="M 1216 1120v 48h 24a 24 24, 0, 0, 0, 0 -48" transform="rotate(-90,1240,1144)"/><path d="M 1312 1120v 48h 24a 24 24, 0, 0, 0, 0 -48" transform="rotate(90,1336,1144)"/><path d="M 1408 1120v 48h 24a 24 24, 0, 0, 0, 0 -48" transform="rotate(180,1432,1144)"/><rect x="1456" y="1120" width="48" height="48" transform="rotate(0,1480,1144)"/><rect x="1504" y="1120" width="48" height="48" transform="rotate(0,1528,1144)"/><path d="M 1552 1120v 48h 48v -24a 24 24, 0, 0, 0, -24 -24" transform="rotate(0,1576,1144)"/><path d="M 1648 1120v 48h 24a 24 24, 0, 0, 0, 0 -48" transform="rotate(-90,1672,1144)"/><path d="M 1744 1120v 48h 24a 24 24, 0, 0, 0, 0 -48" transform="rotate(180,1768,1144)"/><path d="M 1792 1120v 48h 48v -24a 24 24, 0, 0, 0, -24 -24" transform="rotate(0,1816,1144)"/><path d="M 1888 1120v 48h 24a 24 24, 0, 0, 0, 0 -48" transform="rotate(180,1912,1144)"/><path d="M 1936 1120v 48h 48v -24a 24 24, 0, 0, 0, -24 -24" transform="rotate(0,1960,1144)"/><path d="M 64 1168v 48h 48v -24a 24 24, 0, 0, 0, -24 -24" transform="rotate(-90,88,1192)"/><path d="M 112 1168v 48h 24a 24 24, 0, 0, 0, 0 -48" transform="rotate(0,136,1192)"/><path d="M 208 1168v 48h 24a 24 24, 0, 0, 0, 0 -48" transform="rotate(180,232,1192)"/><rect x="256" y="1168" width="48" height="48" transform="rotate(0,280,1192)"/><rect x="304" y="1168" width="48" height="48" transform="rotate(0,328,1192)"/><path d="M 352 1168v 48h 48v -24a 24 24, 0, 0, 0, -24 -24" transform="rotate(90,376,1192)"/><rect x="448" y="1168" width="48" height="48" transform="rotate(0,472,1192)"/><rect x="496" y="1168" width="48" height="48" transform="rotate(0,520,1192)"/><path d="M 544 1168v 48h 24a 24 24, 0, 0, 0, 0 -48" transform="rotate(0,568,1192)"/><rect x="640" y="1168" width="48" height="48" transform="rotate(0,664,1192)"/><path d="M 688 1168v 48h 48v -24a 24 24, 0, 0, 0, -24 -24" transform="rotate(90,712,1192)"/><path d="M 880 1168v 48h 24a 24 24, 0, 0, 0, 0 -48" transform="rotate(-90,904,1192)"/><rect x="976" y="1168" width="48" height="48" transform="rotate(0,1000,1192)"/><rect x="1072" y="1168" width="48" height="48" transform="rotate(0,1096,1192)"/><rect x="1216" y="1168" width="48" height="48" transform="rotate(0,1240,1192)"/><path d="M 1360 1168v 48h 24a 24 24, 0, 0, 0, 0 -48" transform="rotate(-90,1384,1192)"/><path d="M 1504 1168v 48h 48v -24a 24 24, 0, 0, 0, -24 -24" transform="rotate(180,1528,1192)"/><rect x="1552" y="1168" width="48" height="48" transform="rotate(0,1576,1192)"/><rect x="1600" y="1168" width="48" height="48" transform="rotate(0,1624,1192)"/><rect x="1648" y="1168" width="48" height="48" transform="rotate(0,1672,1192)"/><path d="M 1696 1168v 48h 48v -24a 24 24, 0, 0, 0, -24 -24" transform="rotate(0,1720,1192)"/><path d="M 1792 1168v 48h 24a 24 24, 0, 0, 0, 0 -48" transform="rotate(90,1816,1192)"/><path d="M 1936 1168v 48h 24a 24 24, 0, 0, 0, 0 -48" transform="rotate(90,1960,1192)"/><path d="M 64 1216v 48h 24a 24 24, 0, 0, 0, 0 -48" transform="rotate(90,88,1240)"/><path d="M 448 1216v 48h 48v -24a 24 24, 0, 0, 0, -24 -24" transform="rotate(180,472,1240)"/><rect x="496" y="1216" width="48" height="48" transform="rotate(0,520,1240)"/><path d="M 592 1216v 48h 24a 24 24, 0, 0, 0, 0 -48" transform="rotate(180,616,1240)"/><rect x="640" y="1216" width="48" height="48" transform="rotate(0,664,1240)"/><path d="M 736 1216v 48h 48v -24a 24 24, 0, 0, 0, -24 -24" transform="rotate(-90,760,1240)"/><rect x="784" y="1216" width="48" height="48" transform="rotate(0,808,1240)"/><rect x="832" y="1216" width="48" height="48" transform="rotate(0,856,1240)"/><rect x="880" y="1216" width="48" height="48" transform="rotate(0,904,1240)"/><rect x="928" y="1216" width="48" height="48" transform="rotate(0,952,1240)"/><path d="M 976 1216v 48h 48v -24a 24 24, 0, 0, 0, -24 -24" transform="rotate(90,1000,1240)"/><rect x="1072" y="1216" width="48" height="48" transform="rotate(0,1096,1240)"/><path d="M 1120 1216v 48h 48v -24a 24 24, 0, 0, 0, -24 -24" transform="rotate(0,1144,1240)"/><path d="M 1216 1216v 48h 48v -24a 24 24, 0, 0, 0, -24 -24" transform="rotate(180,1240,1240)"/><rect x="1264" y="1216" width="48" height="48" transform="rotate(0,1288,1240)"/><rect x="1312" y="1216" width="48" height="48" transform="rotate(0,1336,1240)"/><rect x="1360" y="1216" width="48" height="48" transform="rotate(0,1384,1240)"/><rect x="1408" y="1216" width="48" height="48" transform="rotate(0,1432,1240)"/><path d="M 1456 1216v 48h 24a 24 24, 0, 0, 0, 0 -48" transform="rotate(0,1480,1240)"/><rect x="1552" y="1216" width="48" height="48" transform="rotate(0,1576,1240)"/><rect x="1648" y="1216" width="48" height="48" transform="rotate(0,1672,1240)"/><rect x="1696" y="1216" width="48" height="48" transform="rotate(0,1720,1240)"/><path d="M 1744 1216v 48h 48v -24a 24 24, 0, 0, 0, -24 -24" transform="rotate(0,1768,1240)"/><path d="M 1840 1216v 48h 24a 24 24, 0, 0, 0, 0 -48" transform="rotate(180,1864,1240)"/><path d="M 1888 1216v 48h 24a 24 24, 0, 0, 0, 0 -48" transform="rotate(0,1912,1240)"/><path d="M 16 1264v 48h 24a 24 24, 0, 0, 0, 0 -48" transform="rotate(-90,40,1288)"/><circle cx="328" cy="1288" r="24" transform="rotate(0,328,1288)"/><rect x="496" y="1264" width="48" height="48" transform="rotate(0,520,1288)"/><path d="M 544 1264v 48h 48v -24a 24 24, 0, 0, 0, -24 -24" transform="rotate(0,568,1288)"/><rect x="640" y="1264" width="48" height="48" transform="rotate(0,664,1288)"/><rect x="688" y="1264" width="48" height="48" transform="rotate(0,712,1288)"/><rect x="736" y="1264" width="48" height="48" transform="rotate(0,760,1288)"/><path d="M 784 1264v 48h 48v -24a 24 24, 0, 0, 0, -24 -24" transform="rotate(90,808,1288)"/><rect x="928" y="1264" width="48" height="48" transform="rotate(0,952,1288)"/><path d="M 1072 1264v 48h 48v -24a 24 24, 0, 0, 0, -24 -24" transform="rotate(180,1096,1288)"/><rect x="1120" y="1264" width="48" height="48" transform="rotate(0,1144,1288)"/><path d="M 1168 1264v 48h 24a 24 24, 0, 0, 0, 0 -48" transform="rotate(0,1192,1288)"/><path d="M 1312 1264v 48h 48v -24a 24 24, 0, 0, 0, -24 -24" transform="rotate(180,1336,1288)"/><path d="M 1360 1264v 48h 48v -24a 24 24, 0, 0, 0, -24 -24" transform="rotate(90,1384,1288)"/><path d="M 1504 1264v 48h 48v -24a 24 24, 0, 0, 0, -24 -24" transform="rotate(-90,1528,1288)"/><path d="M 1552 1264v 48h 48v -24a 24 24, 0, 0, 0, -24 -24" transform="rotate(90,1576,1288)"/><rect x="1648" y="1264" width="48" height="48" transform="rotate(0,1672,1288)"/><rect x="1696" y="1264" width="48" height="48" transform="rotate(0,1720,1288)"/><rect x="1744" y="1264" width="48" height="48" transform="rotate(0,1768,1288)"/><path d="M 1792 1264v 48h 48v -24a 24 24, 0, 0, 0, -24 -24" transform="rotate(0,1816,1288)"/><path d="M 1936 1264v 48h 24a 24 24, 0, 0, 0, 0 -48" transform="rotate(-90,1960,1288)"/><path d="M 16 1312v 48h 48v -24a 24 24, 0, 0, 0, -24 -24" transform="rotate(180,40,1336)"/><path d="M 64 1312v 48h 48v -24a 24 24, 0, 0, 0, -24 -24" transform="rotate(0,88,1336)"/><path d="M 160 1312v 48h 24a 24 24, 0, 0, 0, 0 -48" transform="rotate(-90,184,1336)"/><path d="M 352 1312v 48h 24a 24 24, 0, 0, 0, 0 -48" transform="rotate(-90,376,1336)"/><path d="M 496 1312v 48h 48v -24a 24 24, 0, 0, 0, -24 -24" transform="rotate(180,520,1336)"/><rect x="544" y="1312" width="48" height="48" transform="rotate(0,568,1336)"/><rect x="592" y="1312" width="48" height="48" transform="rotate(0,616,1336)"/><path d="M 640 1312v 48h 48v -24a 24 24, 0, 0, 0, -24 -24" transform="rotate(90,664,1336)"/><circle cx="856" cy="1336" r="24" transform="rotate(0,856,1336)"/><rect x="928" y="1312" width="48" height="48" transform="rotate(0,952,1336)"/><rect x="976" y="1312" width="48" height="48" transform="rotate(0,1000,1336)"/><path d="M 1024 1312v 48h 48v -24a 24 24, 0, 0, 0, -24 -24" transform="rotate(0,1048,1336)"/><path d="M 1216 1312v 48h 24a 24 24, 0, 0, 0, 0 -48" transform="rotate(180,1240,1336)"/><path d="M 1264 1312v 48h 48v -24a 24 24, 0, 0, 0, -24 -24" transform="rotate(0,1288,1336)"/><path d="M 1456 1312v 48h 24a 24 24, 0, 0, 0, 0 -48" transform="rotate(180,1480,1336)"/><rect x="1504" y="1312" width="48" height="48" transform="rotate(0,1528,1336)"/><path d="M 1648 1312v 48h 48v -24a 24 24, 0, 0, 0, -24 -24" transform="rotate(180,1672,1336)"/><rect x="1696" y="1312" width="48" height="48" transform="rotate(0,1720,1336)"/><rect x="1744" y="1312" width="48" height="48" transform="rotate(0,1768,1336)"/><rect x="1792" y="1312" width="48" height="48" transform="rotate(0,1816,1336)"/><path d="M 1840 1312v 48h 24a 24 24, 0, 0, 0, 0 -48" transform="rotate(0,1864,1336)"/><rect x="1936" y="1312" width="48" height="48" transform="rotate(0,1960,1336)"/><rect x="64" y="1360" width="48" height="48" transform="rotate(0,88,1384)"/><path d="M 160 1360v 48h 24a 24 24, 0, 0, 0, 0 -48" transform="rotate(90,184,1384)"/><path d="M 304 1360v 48h 24a 24 24, 0, 0, 0, 0 -48" transform="rotate(180,328,1384)"/><rect x="352" y="1360" width="48" height="48" transform="rotate(0,376,1384)"/><path d="M 400 1360v 48h 24a 24 24, 0, 0, 0, 0 -48" transform="rotate(0,424,1384)"/><path d="M 688 1360v 48h 24a 24 24, 0, 0, 0, 0 -48" transform="rotate(-90,712,1384)"/><path d="M 880 1360v 48h 24a 24 24, 0, 0, 0, 0 -48" transform="rotate(180,904,1384)"/><rect x="928" y="1360" width="48" height="48" transform="rotate(0,952,1384)"/><rect x="1024" y="1360" width="48" height="48" transform="rotate(0,1048,1384)"/><rect x="1072" y="1360" width="48" height="48" transform="rotate(0,1096,1384)"/><path d="M 1120 1360v 48h 24a 24 24, 0, 0, 0, 0 -48" transform="rotate(0,1144,1384)"/><rect x="1264" y="1360" width="48" height="48" transform="rotate(0,1288,1384)"/><rect x="1504" y="1360" width="48" height="48" transform="rotate(0,1528,1384)"/><path d="M 1600 1360v 48h 24a 24 24, 0, 0, 0, 0 -48" transform="rotate(-90,1624,1384)"/><rect x="1792" y="1360" width="48" height="48" transform="rotate(0,1816,1384)"/><path d="M 1936 1360v 48h 24a 24 24, 0, 0, 0, 0 -48" transform="rotate(90,1960,1384)"/><path d="M 16 1408v 48h 48v -24a 24 24, 0, 0, 0, -24 -24" transform="rotate(-90,40,1432)"/><rect x="64" y="1408" width="48" height="48" transform="rotate(0,88,1432)"/><path d="M 112 1408v 48h 24a 24 24, 0, 0, 0, 0 -48" transform="rotate(0,136,1432)"/><path d="M 208 1408v 48h 48v -24a 24 24, 0, 0, 0, -24 -24" transform="rotate(-90,232,1432)"/><path d="M 256 1408v 48h 48v -24a 24 24, 0, 0, 0, -24 -24" transform="rotate(0,280,1432)"/><rect x="352" y="1408" width="48" height="48" transform="rotate(0,376,1432)"/><path d="M 448 1408v 48h 24a 24 24, 0, 0, 0, 0 -48" transform="rotate(180,472,1432)"/><path d="M 496 1408v 48h 24a 24 24, 0, 0, 0, 0 -48" transform="rotate(0,520,1432)"/><path d="M 592 1408v 48h 24a 24 24, 0, 0, 0, 0 -48" transform="rotate(-90,616,1432)"/><path d="M 688 1408v 48h 48v -24a 24 24, 0, 0, 0, -24 -24" transform="rotate(180,712,1432)"/><rect x="736" y="1408" width="48" height="48" transform="rotate(0,760,1432)"/><rect x="784" y="1408" width="48" height="48" transform="rotate(0,808,1432)"/><path d="M 832 1408v 48h 48v -24a 24 24, 0, 0, 0, -24 -24" transform="rotate(0,856,1432)"/><path d="M 928 1408v 48h 24a 24 24, 0, 0, 0, 0 -48" transform="rotate(90,952,1432)"/><rect x="1024" y="1408" width="48" height="48" transform="rotate(0,1048,1432)"/><rect x="1072" y="1408" width="48" height="48" transform="rotate(0,1096,1432)"/><rect x="1264" y="1408" width="48" height="48" transform="rotate(0,1288,1432)"/><path d="M 1408 1408v 48h 48v -24a 24 24, 0, 0, 0, -24 -24" transform="rotate(-90,1432,1432)"/><rect x="1456" y="1408" width="48" height="48" transform="rotate(0,1480,1432)"/><rect x="1504" y="1408" width="48" height="48" transform="rotate(0,1528,1432)"/><rect x="1600" y="1408" width="48" height="48" transform="rotate(0,1624,1432)"/><path d="M 1744 1408v 48h 48v -24a 24 24, 0, 0, 0, -24 -24" transform="rotate(-90,1768,1432)"/><rect x="1792" y="1408" width="48" height="48" transform="rotate(0,1816,1432)"/><path d="M 1840 1408v 48h 48v -24a 24 24, 0, 0, 0, -24 -24" transform="rotate(0,1864,1432)"/><rect x="16" y="1456" width="48" height="48" transform="rotate(0,40,1480)"/><rect x="64" y="1456" width="48" height="48" transform="rotate(0,88,1480)"/><rect x="208" y="1456" width="48" height="48" transform="rotate(0,232,1480)"/><rect x="256" y="1456" width="48" height="48" transform="rotate(0,280,1480)"/><rect x="304" y="1456" width="48" height="48" transform="rotate(0,328,1480)"/><rect x="352" y="1456" width="48" height="48" transform="rotate(0,376,1480)"/><path d="M 544 1456v 48h 24a 24 24, 0, 0, 0, 0 -48" transform="rotate(180,568,1480)"/><rect x="592" y="1456" width="48" height="48" transform="rotate(0,616,1480)"/><rect x="832" y="1456" width="48" height="48" transform="rotate(0,856,1480)"/><path d="M 880 1456v 48h 24a 24 24, 0, 0, 0, 0 -48" transform="rotate(0,904,1480)"/><path d="M 976 1456v 48h 24a 24 24, 0, 0, 0, 0 -48" transform="rotate(180,1000,1480)"/><rect x="1024" y="1456" width="48" height="48" transform="rotate(0,1048,1480)"/><path d="M 1072 1456v 48h 48v -24a 24 24, 0, 0, 0, -24 -24" transform="rotate(90,1096,1480)"/><path d="M 1264 1456v 48h 24a 24 24, 0, 0, 0, 0 -48" transform="rotate(90,1288,1480)"/><path d="M 1360 1456v 48h 48v -24a 24 24, 0, 0, 0, -24 -24" transform="rotate(-90,1384,1480)"/><path d="M 1408 1456v 48h 48v -24a 24 24, 0, 0, 0, -24 -24" transform="rotate(90,1432,1480)"/><path d="M 1504 1456v 48h 24a 24 24, 0, 0, 0, 0 -48" transform="rotate(90,1528,1480)"/><path d="M 1600 1456v 48h 24a 24 24, 0, 0, 0, 0 -48" transform="rotate(90,1624,1480)"/><rect x="1744" y="1456" width="48" height="48" transform="rotate(0,1768,1480)"/><rect x="1840" y="1456" width="48" height="48" transform="rotate(0,1864,1480)"/><circle cx="1960" cy="1480" r="24" transform="rotate(0,1960,1480)"/><rect x="16" y="1504" width="48" height="48" transform="rotate(0,40,1528)"/><rect x="64" y="1504" width="48" height="48" transform="rotate(0,88,1528)"/><rect x="112" y="1504" width="48" height="48" transform="rotate(0,136,1528)"/><rect x="160" y="1504" width="48" height="48" transform="rotate(0,184,1528)"/><path d="M 208 1504v 48h 48v -24a 24 24, 0, 0, 0, -24 -24" transform="rotate(90,232,1528)"/><rect x="352" y="1504" width="48" height="48" transform="rotate(0,376,1528)"/><rect x="400" y="1504" width="48" height="48" transform="rotate(0,424,1528)"/><path d="M 448 1504v 48h 48v -24a 24 24, 0, 0, 0, -24 -24" transform="rotate(0,472,1528)"/><rect x="592" y="1504" width="48" height="48" transform="rotate(0,616,1528)"/><circle cx="712" cy="1528" r="24" transform="rotate(0,712,1528)"/><path d="M 784 1504v 48h 24a 24 24, 0, 0, 0, 0 -48" transform="rotate(180,808,1528)"/><rect x="832" y="1504" width="48" height="48" transform="rotate(0,856,1528)"/><circle cx="952" cy="1528" r="24" transform="rotate(0,952,1528)"/><path d="M 1024 1504v 48h 24a 24 24, 0, 0, 0, 0 -48" transform="rotate(90,1048,1528)"/><path d="M 1120 1504v 48h 24a 24 24, 0, 0, 0, 0 -48" transform="rotate(180,1144,1528)"/><rect x="1168" y="1504" width="48" height="48" transform="rotate(0,1192,1528)"/><path d="M 1216 1504v 48h 24a 24 24, 0, 0, 0, 0 -48" transform="rotate(0,1240,1528)"/><path d="M 1312 1504v 48h 24a 24 24, 0, 0, 0, 0 -48" transform="rotate(180,1336,1528)"/><rect x="1360" y="1504" width="48" height="48" transform="rotate(0,1384,1528)"/><circle cx="1480" cy="1528" r="24" transform="rotate(0,1480,1528)"/><path d="M 1648 1504v 48h 24a 24 24, 0, 0, 0, 0 -48" transform="rotate(-90,1672,1528)"/><rect x="1744" y="1504" width="48" height="48" transform="rotate(0,1768,1528)"/><rect x="1840" y="1504" width="48" height="48" transform="rotate(0,1864,1528)"/><path d="M 1888 1504v 48h 24a 24 24, 0, 0, 0, 0 -48" transform="rotate(0,1912,1528)"/><path d="M 16 1552v 48h 48v -24a 24 24, 0, 0, 0, -24 -24" transform="rotate(180,40,1576)"/><path d="M 64 1552v 48h 48v -24a 24 24, 0, 0, 0, -24 -24" transform="rotate(90,88,1576)"/><path d="M 256 1552v 48h 24a 24 24, 0, 0, 0, 0 -48" transform="rotate(180,280,1576)"/><rect x="304" y="1552" width="48" height="48" transform="rotate(0,328,1576)"/><path d="M 352 1552v 48h 48v -24a 24 24, 0, 0, 0, -24 -24" transform="rotate(90,376,1576)"/><path d="M 448 1552v 48h 48v -24a 24 24, 0, 0, 0, -24 -24" transform="rotate(180,472,1576)"/><path d="M 496 1552v 48h 24a 24 24, 0, 0, 0, 0 -48" transform="rotate(0,520,1576)"/><path d="M 592 1552v 48h 48v -24a 24 24, 0, 0, 0, -24 -24" transform="rotate(180,616,1576)"/><path d="M 640 1552v 48h 24a 24 24, 0, 0, 0, 0 -48" transform="rotate(0,664,1576)"/><rect x="832" y="1552" width="48" height="48" transform="rotate(0,856,1576)"/><path d="M 880 1552v 48h 48v -24a 24 24, 0, 0, 0, -24 -24" transform="rotate(0,904,1576)"/><path d="M 1072 1552v 48h 24a 24 24, 0, 0, 0, 0 -48" transform="rotate(-90,1096,1576)"/><rect x="1168" y="1552" width="48" height="48" transform="rotate(0,1192,1576)"/><path d="M 1360 1552v 48h 48v -24a 24 24, 0, 0, 0, -24 -24" transform="rotate(180,1384,1576)"/><path d="M 1408 1552v 48h 24a 24 24, 0, 0, 0, 0 -48" transform="rotate(0,1432,1576)"/><path d="M 1504 1552v 48h 24a 24 24, 0, 0, 0, 0 -48" transform="rotate(180,1528,1576)"/><rect x="1552" y="1552" width="48" height="48" transform="rotate(0,1576,1576)"/><rect x="1600" y="1552" width="48" height="48" transform="rotate(0,1624,1576)"/><rect x="1648" y="1552" width="48" height="48" transform="rotate(0,1672,1576)"/><rect x="1696" y="1552" width="48" height="48" transform="rotate(0,1720,1576)"/><rect x="1744" y="1552" width="48" height="48" transform="rotate(0,1768,1576)"/><rect x="1792" y="1552" width="48" height="48" transform="rotate(0,1816,1576)"/><rect x="1840" y="1552" width="48" height="48" transform="rotate(0,1864,1576)"/><circle cx="1960" cy="1576" r="24" transform="rotate(0,1960,1576)"/><path d="M 400 1600v 48h 24a 24 24, 0, 0, 0, 0 -48" transform="rotate(-90,424,1624)"/><path d="M 544 1600v 48h 24a 24 24, 0, 0, 0, 0 -48" transform="rotate(-90,568,1624)"/><path d="M 832 1600v 48h 48v -24a 24 24, 0, 0, 0, -24 -24" transform="rotate(180,856,1624)"/><rect x="880" y="1600" width="48" height="48" transform="rotate(0,904,1624)"/><rect x="928" y="1600" width="48" height="48" transform="rotate(0,952,1624)"/><path d="M 976 1600v 48h 24a 24 24, 0, 0, 0, 0 -48" transform="rotate(0,1000,1624)"/><path d="M 1072 1600v 48h 48v -24a 24 24, 0, 0, 0, -24 -24" transform="rotate(180,1096,1624)"/><rect x="1120" y="1600" width="48" height="48" transform="rotate(0,1144,1624)"/><path d="M 1168 1600v 48h 48v -24a 24 24, 0, 0, 0, -24 -24" transform="rotate(90,1192,1624)"/><path d="M 1312 1600v 48h 24a 24 24, 0, 0, 0, 0 -48" transform="rotate(-90,1336,1624)"/><path d="M 1456 1600v 48h 24a 24 24, 0, 0, 0, 0 -48" transform="rotate(-90,1480,1624)"/><rect x="1552" y="1600" width="48" height="48" transform="rotate(0,1576,1624)"/><rect x="1744" y="1600" width="48" height="48" transform="rotate(0,1768,1624)"/><path d="M 1840 1600v 48h 48v -24a 24 24, 0, 0, 0, -24 -24" transform="rotate(180,1864,1624)"/><path d="M 1888 1600v 48h 24a 24 24, 0, 0, 0, 0 -48" transform="rotate(0,1912,1624)"/><path d="M 400 1648v 48h 24a 24 24, 0, 0, 0, 0 -48" transform="rotate(90,424,1672)"/><path d="M 496 1648v 48h 24a 24 24, 0, 0, 0, 0 -48" transform="rotate(180,520,1672)"/><rect x="544" y="1648" width="48" height="48" transform="rotate(0,568,1672)"/><path d="M 592 1648v 48h 24a 24 24, 0, 0, 0, 0 -48" transform="rotate(0,616,1672)"/><path d="M 688 1648v 48h 24a 24 24, 0, 0, 0, 0 -48" transform="rotate(180,712,1672)"/><path d="M 736 1648v 48h 24a 24 24, 0, 0, 0, 0 -48" transform="rotate(0,760,1672)"/><rect x="928" y="1648" width="48" height="48" transform="rotate(0,952,1672)"/><rect x="1312" y="1648" width="48" height="48" transform="rotate(0,1336,1672)"/><path d="M 1408 1648v 48h 48v -24a 24 24, 0, 0, 0, -24 -24" transform="rotate(-90,1432,1672)"/><rect x="1456" y="1648" width="48" height="48" transform="rotate(0,1480,1672)"/><rect x="1504" y="1648" width="48" height="48" transform="rotate(0,1528,1672)"/><rect x="1552" y="1648" width="48" height="48" transform="rotate(0,1576,1672)"/><circle cx="1672" cy="1672" r="24" transform="rotate(0,1672,1672)"/><rect x="1744" y="1648" width="48" height="48" transform="rotate(0,1768,1672)"/><circle cx="472" cy="1720" r="24" transform="rotate(0,472,1720)"/><path d="M 544 1696v 48h 24a 24 24, 0, 0, 0, 0 -48" transform="rotate(90,568,1720)"/><path d="M 880 1696v 48h 24a 24 24, 0, 0, 0, 0 -48" transform="rotate(180,904,1720)"/><rect x="928" y="1696" width="48" height="48" transform="rotate(0,952,1720)"/><path d="M 976 1696v 48h 48v -24a 24 24, 0, 0, 0, -24 -24" transform="rotate(0,1000,1720)"/><path d="M 1072 1696v 48h 48v -24a 24 24, 0, 0, 0, -24 -24" transform="rotate(-90,1096,1720)"/><path d="M 1120 1696v 48h 24a 24 24, 0, 0, 0, 0 -48" transform="rotate(0,1144,1720)"/><path d="M 1216 1696v 48h 24a 24 24, 0, 0, 0, 0 -48" transform="rotate(-90,1240,1720)"/><rect x="1312" y="1696" width="48" height="48" transform="rotate(0,1336,1720)"/><rect x="1360" y="1696" width="48" height="48" transform="rotate(0,1384,1720)"/><rect x="1408" y="1696" width="48" height="48" transform="rotate(0,1432,1720)"/><rect x="1504" y="1696" width="48" height="48" transform="rotate(0,1528,1720)"/><rect x="1552" y="1696" width="48" height="48" transform="rotate(0,1576,1720)"/><rect x="1744" y="1696" width="48" height="48" transform="rotate(0,1768,1720)"/><path d="M 1792 1696v 48h 48v -24a 24 24, 0, 0, 0, -24 -24" transform="rotate(0,1816,1720)"/><path d="M 1888 1696v 48h 48v -24a 24 24, 0, 0, 0, -24 -24" transform="rotate(-90,1912,1720)"/><path d="M 1936 1696v 48h 24a 24 24, 0, 0, 0, 0 -48" transform="rotate(0,1960,1720)"/><path d="M 400 1744v 48h 24a 24 24, 0, 0, 0, 0 -48" transform="rotate(-90,424,1768)"/><path d="M 496 1744v 48h 24a 24 24, 0, 0, 0, 0 -48" transform="rotate(-90,520,1768)"/><path d="M 592 1744v 48h 24a 24 24, 0, 0, 0, 0 -48" transform="rotate(-90,616,1768)"/><path d="M 784 1744v 48h 48v -24a 24 24, 0, 0, 0, -24 -24" transform="rotate(-90,808,1768)"/><path d="M 832 1744v 48h 24a 24 24, 0, 0, 0, 0 -48" transform="rotate(0,856,1768)"/><path d="M 928 1744v 48h 48v -24a 24 24, 0, 0, 0, -24 -24" transform="rotate(180,952,1768)"/><rect x="976" y="1744" width="48" height="48" transform="rotate(0,1000,1768)"/><rect x="1024" y="1744" width="48" height="48" transform="rotate(0,1048,1768)"/><rect x="1072" y="1744" width="48" height="48" transform="rotate(0,1096,1768)"/><path d="M 1216 1744v 48h 24a 24 24, 0, 0, 0, 0 -48" transform="rotate(90,1240,1768)"/><rect x="1312" y="1744" width="48" height="48" transform="rotate(0,1336,1768)"/><rect x="1360" y="1744" width="48" height="48" transform="rotate(0,1384,1768)"/><rect x="1408" y="1744" width="48" height="48" transform="rotate(0,1432,1768)"/><rect x="1456" y="1744" width="48" height="48" transform="rotate(0,1480,1768)"/><rect x="1504" y="1744" width="48" height="48" transform="rotate(0,1528,1768)"/><rect x="1552" y="1744" width="48" height="48" transform="rotate(0,1576,1768)"/><rect x="1600" y="1744" width="48" height="48" transform="rotate(0,1624,1768)"/><rect x="1648" y="1744" width="48" height="48" transform="rotate(0,1672,1768)"/><rect x="1696" y="1744" width="48" height="48" transform="rotate(0,1720,1768)"/><rect x="1744" y="1744" width="48" height="48" transform="rotate(0,1768,1768)"/><path d="M 1792 1744v 48h 48v -24a 24 24, 0, 0, 0, -24 -24" transform="rotate(90,1816,1768)"/><rect x="1888" y="1744" width="48" height="48" transform="rotate(0,1912,1768)"/><path d="M 400 1792v 48h 24a 24 24, 0, 0, 0, 0 -48" transform="rotate(90,424,1816)"/><path d="M 496 1792v 48h 48v -24a 24 24, 0, 0, 0, -24 -24" transform="rotate(180,520,1816)"/><rect x="544" y="1792" width="48" height="48" transform="rotate(0,568,1816)"/><rect x="592" y="1792" width="48" height="48" transform="rotate(0,616,1816)"/><path d="M 640 1792v 48h 48v -24a 24 24, 0, 0, 0, -24 -24" transform="rotate(0,664,1816)"/><rect x="784" y="1792" width="48" height="48" transform="rotate(0,808,1816)"/><rect x="1024" y="1792" width="48" height="48" transform="rotate(0,1048,1816)"/><rect x="1072" y="1792" width="48" height="48" transform="rotate(0,1096,1816)"/><circle cx="1192" cy="1816" r="24" transform="rotate(0,1192,1816)"/><path d="M 1264 1792v 48h 24a 24 24, 0, 0, 0, 0 -48" transform="rotate(180,1288,1816)"/><rect x="1312" y="1792" width="48" height="48" transform="rotate(0,1336,1816)"/><path d="M 1408 1792v 48h 24a 24 24, 0, 0, 0, 0 -48" transform="rotate(90,1432,1816)"/><rect x="1696" y="1792" width="48" height="48" transform="rotate(0,1720,1816)"/><path d="M 1840 1792v 48h 48v -24a 24 24, 0, 0, 0, -24 -24" transform="rotate(-90,1864,1816)"/><rect x="1888" y="1792" width="48" height="48" transform="rotate(0,1912,1816)"/><path d="M 1936 1792v 48h 48v -24a 24 24, 0, 0, 0, -24 -24" transform="rotate(0,1960,1816)"/><path d="M 448 1840v 48h 24a 24 24, 0, 0, 0, 0 -48" transform="rotate(-90,472,1864)"/><rect x="544" y="1840" width="48" height="48" transform="rotate(0,568,1864)"/><rect x="640" y="1840" width="48" height="48" transform="rotate(0,664,1864)"/><path d="M 688 1840v 48h 24a 24 24, 0, 0, 0, 0 -48" transform="rotate(0,712,1864)"/><path d="M 784 1840v 48h 48v -24a 24 24, 0, 0, 0, -24 -24" transform="rotate(180,808,1864)"/><path d="M 832 1840v 48h 24a 24 24, 0, 0, 0, 0 -48" transform="rotate(0,856,1864)"/><path d="M 928 1840v 48h 24a 24 24, 0, 0, 0, 0 -48" transform="rotate(180,952,1864)"/><rect x="976" y="1840" width="48" height="48" transform="rotate(0,1000,1864)"/><rect x="1024" y="1840" width="48" height="48" transform="rotate(0,1048,1864)"/><rect x="1072" y="1840" width="48" height="48" transform="rotate(0,1096,1864)"/><path d="M 1312 1840v 48h 24a 24 24, 0, 0, 0, 0 -48" transform="rotate(90,1336,1864)"/><circle cx="1480" cy="1864" r="24" transform="rotate(0,1480,1864)"/><path d="M 1552 1840v 48h 24a 24 24, 0, 0, 0, 0 -48" transform="rotate(180,1576,1864)"/><path d="M 1600 1840v 48h 24a 24 24, 0, 0, 0, 0 -48" transform="rotate(0,1624,1864)"/><path d="M 1696 1840v 48h 48v -24a 24 24, 0, 0, 0, -24 -24" transform="rotate(180,1720,1864)"/><rect x="1744" y="1840" width="48" height="48" transform="rotate(0,1768,1864)"/><rect x="1792" y="1840" width="48" height="48" transform="rotate(0,1816,1864)"/><rect x="1840" y="1840" width="48" height="48" transform="rotate(0,1864,1864)"/><rect x="1888" y="1840" width="48" height="48" transform="rotate(0,1912,1864)"/><rect x="1936" y="1840" width="48" height="48" transform="rotate(0,1960,1864)"/><rect x="448" y="1888" width="48" height="48" transform="rotate(0,472,1912)"/><rect x="496" y="1888" width="48" height="48" transform="rotate(0,520,1912)"/><rect x="544" y="1888" width="48" height="48" transform="rotate(0,568,1912)"/><rect x="592" y="1888" width="48" height="48" transform="rotate(0,616,1912)"/><rect x="640" y="1888" width="48" height="48" transform="rotate(0,664,1912)"/><path d="M 736 1888v 48h 24a 24 24, 0, 0, 0, 0 -48" transform="rotate(-90,760,1912)"/><circle cx="904" cy="1912" r="24" transform="rotate(0,904,1912)"/><path d="M 1072 1888v 48h 48v -24a 24 24, 0, 0, 0, -24 -24" transform="rotate(180,1096,1912)"/><path d="M 1120 1888v 48h 24a 24 24, 0, 0, 0, 0 -48" transform="rotate(0,1144,1912)"/><path d="M 1216 1888v 48h 24a 24 24, 0, 0, 0, 0 -48" transform="rotate(-90,1240,1912)"/><circle cx="1384" cy="1912" r="24" transform="rotate(0,1384,1912)"/><circle cx="1672" cy="1912" r="24" transform="rotate(0,1672,1912)"/><rect x="1744" y="1888" width="48" height="48" transform="rotate(0,1768,1912)"/><path d="M 1840 1888v 48h 24a 24 24, 0, 0, 0, 0 -48" transform="rotate(90,1864,1912)"/><path d="M 1936 1888v 48h 24a 24 24, 0, 0, 0, 0 -48" transform="rotate(90,1960,1912)"/><path d="M 448 1936v 48h 48v -24a 24 24, 0, 0, 0, -24 -24" transform="rotate(180,472,1960)"/><path d="M 496 1936v 48h 48v -24a 24 24, 0, 0, 0, -24 -24" transform="rotate(90,520,1960)"/><path d="M 640 1936v 48h 24a 24 24, 0, 0, 0, 0 -48" transform="rotate(90,664,1960)"/><path d="M 736 1936v 48h 48v -24a 24 24, 0, 0, 0, -24 -24" transform="rotate(180,760,1960)"/><path d="M 784 1936v 48h 24a 24 24, 0, 0, 0, 0 -48" transform="rotate(0,808,1960)"/><circle cx="952" cy="1960" r="24" transform="rotate(0,952,1960)"/><path d="M 1216 1936v 48h 24a 24 24, 0, 0, 0, 0 -48" transform="rotate(90,1240,1960)"/><circle cx="1336" cy="1960" r="24" transform="rotate(0,1336,1960)"/><path d="M 1504 1936v 48h 24a 24 24, 0, 0, 0, 0 -48" transform="rotate(180,1528,1960)"/><path d="M 1552 1936v 48h 24a 24 24, 0, 0, 0, 0 -48" transform="rotate(0,1576,1960)"/><path d="M 1744 1936v 48h 48v -24a 24 24, 0, 0, 0, -24 -24" transform="rotate(180,1768,1960)"/><path d="M 1792 1936v 48h 24a 24 24, 0, 0, 0, 0 -48" transform="rotate(0,1816,1960)"/></clipPath><clipPath id="clip-path-corners-square-color-0-0-3"><path clip-rule="evenodd" d="M 16 136v 96a 120 120, 0, 0, 0, 120 120h 96a 120 120, 0, 0, 0, 120 -120v -96a 120 120, 0, 0, 0, -120 -120h -96a 120 120, 0, 0, 0, -120 120M 136 64h 96a 72 72, 0, 0, 1, 72 72v 96a 72 72, 0, 0, 1, -72 72h -96a 72 72, 0, 0, 1, -72 -72v -96a 72 72, 0, 0, 1, 72 -72" transform="rotate(0,184,184)"/></clipPath><clipPath id="clip-path-corners-dot-color-0-0-3"><circle cx="184" cy="184" r="72" transform="rotate(0,184,184)"/></clipPath><clipPath id="clip-path-corners-square-color-1-0-3"><path clip-rule="evenodd" d="M 1648 136v 96a 120 120, 0, 0, 0, 120 120h 96a 120 120, 0, 0, 0, 120 -120v -96a 120 120, 0, 0, 0, -120 -120h -96a 120 120, 0, 0, 0, -120 120M 1768 64h 96a 72 72, 0, 0, 1, 72 72v 96a 72 72, 0, 0, 1, -72 72h -96a 72 72, 0, 0, 1, -72 -72v -96a 72 72, 0, 0, 1, 72 -72" transform="rotate(90,1816,184)"/></clipPath><clipPath id="clip-path-corners-dot-color-1-0-3"><circle cx="1816" cy="184" r="72" transform="rotate(90,1816,184)"/></clipPath><clipPath id="clip-path-corners-square-color-0-1-3"><path clip-rule="evenodd" d="M 16 1768v 96a 120 120, 0, 0, 0, 120 120h 96a 120 120, 0, 0, 0, 120 -120v -96a 120 120, 0, 0, 0, -120 -120h -96a 120 120, 0, 0, 0, -120 120M 136 1696h 96a 72 72, 0, 0, 1, 72 72v 96a 72 72, 0, 0, 1, -72 72h -96a 72 72, 0, 0, 1, -72 -72v -96a 72 72, 0, 0, 1, 72 -72" transform="rotate(-90,184,1816)"/></clipPath><clipPath id="clip-path-corners-dot-color-0-1-3"><circle cx="184" cy="1816" r="72" transform="rotate(-90,184,1816)"/></clipPath></defs><rect x="0" y="0" height="2000" width="2000" clip-path="url('#clip-path-background-color-3')" fill="#1f1f1f"/><rect x="0" y="0" height="2000" width="2000" clip-path="url('#clip-path-dot-color-3')" fill="#2dd4bf"/><rect x="16" y="16" height="336" width="336" clip-path="url('#clip-path-corners-square-color-0-0-3')" fill="#2dd4bf"/><rect x="112" y="112" height="144" width="144" clip-path="url('#clip-path-corners-dot-color-0-0-3')" fill="#ffbd4a"/><rect x="1648" y="16" height="336" width="336" clip-path="url('#clip-path-corners-square-color-1-0-3')" fill="#2dd4bf"/><rect x="1744" y="112" height="144" width="144" clip-path="url('#clip-path-corners-dot-color-1-0-3')" fill="#ffbd4a"/><rect x="16" y="1648" height="336" width="336" clip-path="url('#clip-path-corners-square-color-0-1-3')" fill="#2dd4bf"/><rect x="112" y="1744" height="144" width="144" clip-path="url('#clip-path-corners-dot-color-0-1-3')" fill="#ffbd4a"/></svg>