<?xml version="1.0" standalone="no"?>
<svg xmlns="http://www.w3.org/2000/svg" width="2000" height="2000" xmlns:xlink="http://www.w3.org/1999/xlink" viewBox="0 0 2000 2000"><defs><clipPath id="clip-path-background-color-4"><rect x="0" y="0" width="2000" height="2000"/></clipPath><clipPath id="clip-path-dot-color-4"><path d="M 400 16v 48h 24a 24 24, 0, 0, 0, 0 -48" transform="rotate(180,424,40)"/><rect x="448" y="16" width="48" height="48" transform="rotate(0,472,40)"/><rect x="496" y="16" width="48" height="48" transform="rotate(0,520,40)"/><path d="M 544 16v 48h 48v -24a 24 24, 0, 0, 0, -24 -24" transform="rotate(0,568,40)"/><path d="M 640 16v 48h 24a 24 24, 0, 0, 0, 0 -48" transform="rotate(180,664,40)"/><path d="M 688 16v 48h 24a 24 24, 0, 0, 0, 0 -48" transform="rotate(0,712,40)"/><path d="M 784 16v 48h 48v -24a 24 24, 0, 0, 0, -24 -24" transform="rotate(-90,808,40)"/><rect x="832" y="16" width="48" height="48" transform="rotate(0,856,40)"/><rect x="880" y="16" width="48" height="48" transform="rotate(0,904,40)"/><rect x="928" y="16" width="48" height="48" transform="rotate(0,952,40)"/><path d="M 976 16v 48h 24a 24 24, 0, 0, 0, 0 -48" transform="rotate(0,1000,40)"/><path d="M 1120 16v 48h 48v -24a 24 24, 0, 0, 0, -24 -24" transform="rotate(-90,1144,40)"/><path d="M 1168 16v 48h 24a 24 24, 0, 0, 0, 0 -48" transform="rotate(0,1192,40)"/><path d="M 1264 16v 48h 24a 24 24, 0, 0, 0, 0 -48" transform="rotate(-90,1288,40)"/><path d="M 1408 16v 48h 48v -24a 24 24, 0, 0, 0, -24 -24" transform="rotate(-90,1432,40)"/><path d="M 1456 16v 48h 48v -24a 24 24, 0, 0, 0, -24 -24" transform="rotate(0,1480,40)"/><path d="M 448 64v 48h 24a 24 24, 0, 0, 0, 0 -48" transform="rotate(90,472,88)"/><path d="M 544 64v 48h 48v -24a 24 24, 0, 0, 0, -24 -24" transform="rotate(180,568,88)"/><path d="M 592 64v 48h 24a 24 24, 0, 0, 0, 0 -48" transform="rotate(0,616,88)"/><rect x="784" y="64" width="48" height="48" transform="rotate(0,808,88)"/><path d="M 880 64v 48h 48v -24a 24 24, 0, 0, 0, -24 -24" transform="rotate(180,904,88)"/><path d="M 928 64v 48h 48v -24a 24 24, 0, 0, 0, -24 -24" transform="rotate(90,952,88)"/><path d="M 1024 64v 48h 24a 24 24, 0, 0, 0, 0 -48" transform="rotate(-90,1048,88)"/><rect x="1120" y="64" width="48" height="48" transform="rotate(0,1144,88)"/><path d="M 1216 64v 48h 48v -24a 24 24, 0, 0, 0, -24 -24" transform="rotate(-90,1240,88)"/><path d="M 1264 64v 48h 48v -24a 24 24, 0, 0, 0, -24 -24" transform="rotate(90,1288,88)"/><path d="M 1408 64v 48h 48v -24a 24 24, 0, 0, 0, -24 -24" transform="rotate(180,1432,88)"/><rect x="1456" y="64" width="48" height="48" transform="rotate(0,1480,88)"/><circle cx="1576" cy="88" r="24" transform="rotate(0,1576,88)"/><circle cx="424" cy="136" r="24" transform="rotate(0,424,136)"/><path d="M 496 112v 48h 24a 24 24, 0, 0, 0, 0 -48" transform="rotate(-90,520,136)"/><path d="M 640 112v 48h 48v -24a 24 24, 0, 0, 0, -24 -24" transform="rotate(-90,664,136)"/><path d="M 688 112v 48h 48v -24a 24 24, 0, 0, 0, -24 -24" transform="rotate(0,712,136)"/><rect x="784" y="112" width="48" height="48" transform="rotate(0,808,136)"/><path d="M 976 112v 48h 24a 24 24, 0, 0, 0, 0 -48" transform="rotate(180,1000,136)"/><path d="M 1024 112v 48h 48v -24a 24 24, 0, 0, 0, -24 -24" transform="rotate(90,1048,136)"/><rect x="1120" y="112" width="48" height="48" transform="rotate(0,1144,136)"/><rect x="1168" y="112" width="48" height="48" transform="rotate(0,1192,136)"/><path d="M 1216 112v 48h 48v -24a 24 24, 0, 0, 0, -24 -24" transform="rotate(90,1240,136)"/><path d="M 1312 112v 48h 48v -24a 24 24, 0, 0, 0, -24 -24" transform="rotate(-90,1336,136)"/><path d="M 1360 112v 48h 48v -24a 24 24, 0, 0, 0, -24 -24" transform="rotate(0,1384,136)"/><rect x="1456" y="112" width="48" height="48" transform="rotate(0,1480,136)"/><path d="M 448 160v 48h 24a 24 24, 0, 0, 0, 0 -48" transform="rotate(180,472,184)"/><rect x="496" y="160" width="48" height="48" transform="rotate(0,520,184)"/><path d="M 592 160v 48h 48v -24a 24 24, 0, 0, 0, -24 -24" transform="rotate(-90,616,184)"/><rect x="640" y="160" width="48" height="48" transform="rotate(0,664,184)"/><path d="M 688 160v 48h 48v -24a 24 24, 0, 0, 0, -24 -24" transform="rotate(90,712,184)"/><rect x="784" y="160" width="48" height="48" transform="rotate(0,808,184)"/><path d="M 832 160v 48h 24a 24 24, 0, 0, 0, 0 -48" transform="rotate(0,856,184)"/><rect x="1120" y="160" width="48" height="48" transform="rotate(0,1144,184)"/><path d="M 1312 160v 48h 48v -24a 24 24, 0, 0, 0, -24 -24" transform="rotate(180,1336,184)"/><rect x="1360" y="160" width="48" height="48" transform="rotate(0,1384,184)"/><rect x="1456" y="160" width="48" height="48" transform="rotate(0,1480,184)"/><circle cx="1576" cy="184" r="24" transform="rotate(0,1576,184)"/><circle cx="424" cy="232" r="24" transform="rotate(0,424,232)"/><rect x="496" y="208" width="48" height="48" transform="rotate(0,520,232)"/><rect x="592" y="208" width="48" height="48" transform="rotate(0,616,232)"/><path d="M 640 208v 48h 48v -24a 24 24, 0, 0, 0, -24 -24" transform="rotate(90,664,232)"/><path d="M 784 208v 48h 24a 24 24, 0, 0, 0, 0 -48" transform="rotate(90,808,232)"/><circle cx="904" cy="232" r="24" transform="rotate(0,904,232)"/><path d="M 976 208v 48h 48v -24a 24 24, 0, 0, 0, -24 -24" transform="rotate(-90,1000,232)"/><path d="M 1024 208v 48h 24a 24 24, 0, 0, 0, 0 -48" transform="rotate(0,1048,232)"/><path d="M 1120 208v 48h 48v -24a 24 24, 0, 0, 0, -24 -24" transform="rotate(180,1144,232)"/><path d="M 1168 208v 48h 24a 24 24, 0, 0, 0, 0 -48" transform="rotate(0,1192,232)"/><path d="M 1360 208v 48h 24a 24 24, 0, 0, 0, 0 -48" transform="rotate(90,1384,232)"/><path d="M 1456 208v 48h 48v -24a 24 24, 0, 0, 0, -24 -24" transform="rotate(180,1480,232)"/><path d="M 1504 208v 48h 24a 24 24, 0, 0, 0, 0 -48" transform="rotate(0,1528,232)"/><rect x="496" y="256" width="48" height="48" transform="rotate(0,520,280)"/><rect x="544" y="256" width="48" height="48" transform="rotate(0,568,280)"/><rect x="592" y="256" width="48" height="48" transform="rotate(0,616,280)"/><circle cx="760" cy="280" r="24" transform="rotate(0,760,280)"/><circle cx="856" cy="280" r="24" transform="rotate(0,856,280)"/><rect x="976" y="256" width="48" height="48" transform="rotate(0,1000,280)"/><path d="M 1264 256v 48h 24a 24 24, 0, 0, 0, 0 -48" transform="rotate(-90,1288,280)"/><path d="M 1552 256v 48h 24a 24 24, 0, 0, 0, 0 -48" transform="rotate(-90,1576,280)"/><path d="M 400 304v 48h 24a 24 24, 0, 0, 0, 0 -48" transform="rotate(-90,424,328)"/><rect x="496" y="304" width="48" height="48" transform="rotate(0,520,328)"/><rect x="592" y="304" width="48" height="48" transform="rotate(0,616,328)"/><path d="M 688 304v 48h 24a 24 24, 0, 0, 0, 0 -48" transform="rotate(-90,712,328)"/><path d="M 784 304v 48h 24a 24 24, 0, 0, 0, 0 -48" transform="rotate(-90,808,328)"/><circle cx="904" cy="328" r="24" transform="rotate(0,904,328)"/><path d="M 976 304v 48h 24a 24 24, 0, 0, 0, 0 -48" transform="rotate(90,1000,328)"/><circle cx="1096" cy="328" r="24" transform="rotate(0,1096,328)"/><circle cx="1192" cy="328" r="24" transform="rotate(0,1192,328)"/><path d="M 1264 304v 48h 24a 24 24, 0, 0, 0, 0 -48" transform="rotate(90,1288,328)"/><circle cx="1384" cy="328" r="24" transform="rotate(0,1384,328)"/><path d="M 1456 304v 48h 24a 24 24, 0, 0, 0, 0 -48" transform="rotate(-90,1480,328)"/><rect x="1552" y="304" width="48" height="48" transform="rotate(0,1576,328)"/><path d="M 400 352v 48h 48v -24a 24 24, 0, 0, 0, -24 -24" transform="rotate(180,424,376)"/><rect x="448" y="352" width="48" height="48" transform="rotate(0,472,376)"/><rect x="496" y="352" width="48" height="48" transform="rotate(0,520,376)"/><path d="M 592 352v 48h 24a 24 24, 0, 0, 0, 0 -48" transform="rotate(90,616,376)"/><rect x="688" y="352" width="48" height="48" transform="rotate(0,712,376)"/><rect x="784" y="352" width="48" height="48" transform="rotate(0,808,376)"/><path d="M 1024 352v 48h 24a 24 24, 0, 0, 0, 0 -48" transform="rotate(-90,1048,376)"/><circle cx="1240" cy="376" r="24" transform="rotate(0,1240,376)"/><path d="M 1312 352v 48h 24a 24 24, 0, 0, 0, 0 -48" transform="rotate(-90,1336,376)"/><path d="M 1456 352v 48h 24a 24 24, 0, 0, 0, 0 -48" transform="rotate(90,1480,376)"/><rect x="1552" y="352" width="48" height="48" transform="rotate(0,1576,376)"/><path d="M 256 400v 48h 24a 24 24, 0, 0, 0, 0 -48" transform="rotate(180,280,424)"/><path d="M 304 400v 48h 24a 24 24, 0, 0, 0, 0 -48" transform="rotate(0,328,424)"/><path d="M 496 400v 48h 48v -24a 24 24, 0, 0, 0, -24 -24" transform="rotate(180,520,424)"/><path d="M 544 400v 48h 24a 24 24, 0, 0, 0, 0 -48" transform="rotate(0,568,424)"/><rect x="688" y="400" width="48" height="48" transform="rotate(0,712,424)"/><rect x="736" y="400" width="48" height="48" transform="rotate(0,760,424)"/><rect x="784" y="400" width="48" height="48" transform="rotate(0,808,424)"/><path d="M 832 400v 48h 24a 24 24, 0, 0, 0, 0 -48" transform="rotate(0,856,424)"/><circle cx="952" cy="424" r="24" transform="rotate(0,952,424)"/><rect x="1024" y="400" width="48" height="48" transform="rotate(0,1048,424)"/><path d="M 1120 400v 48h 24a 24 24, 0, 0, 0, 0 -48" transform="rotate(180,1144,424)"/><path d="M 1168 400v 48h 24a 24 24, 0, 0, 0, 0 -48" transform="rotate(0,1192,424)"/><rect x="1312" y="400" width="48" height="48" transform="rotate(0,1336,424)"/><path d="M 1408 400v 48h 24a 24 24, 0, 0, 0, 0 -48" transform="rotate(-90,1432,424)"/><path d="M 1552 400v 48h 24a 24 24, 0, 0, 0, 0 -48" transform="rotate(90,1576,424)"/><circle cx="1672" cy="424" r="24" transform="rotate(0,1672,424)"/><path d="M 1744 400v 48h 24a 24 24, 0, 0, 0, 0 -48" transform="rotate(-90,1768,424)"/><circle cx="1864" cy="424" r="24" transform="rotate(0,1864,424)"/><circle cx="1960" cy="424" r="24" transform="rotate(0,1960,424)"/><path d="M 64 448v 48h 24a 24 24, 0, 0, 0, 0 -48" transform="rotate(180,88,472)"/><path d="M 112 448v 48h 24a 24 24, 0, 0, 0, 0 -48" transform="rotate(0,136,472)"/><path d="M 400 448v 48h 24a 24 24, 0, 0, 0, 0 -48" transform="rotate(-90,424,472)"/><path d="M 640 448v 48h 48v -24a 24 24, 0, 0, 0, -24 -24" transform="rotate(-90,664,472)"/><rect x="688" y="448" width="48" height="48" transform="rotate(0,712,472)"/><path d="M 736 448v 48h 48v -24a 24 24, 0, 0, 0, -24 -24" transform="rotate(90,760,472)"/><path d="M 1024 448v 48h 48v -24a 24 24, 0, 0, 0, -24 -24" transform="rotate(180,1048,472)"/><path d="M 1072 448v 48h 48v -24a 24 24, 0, 0, 0, -24 -24" transform="rotate(0,1096,472)"/><path d="M 1216 448v 48h 24a 24 24, 0, 0, 0, 0 -48" transform="rotate(-90,1240,472)"/><rect x="1312" y="448" width="48" height="48" transform="rotate(0,1336,472)"/><rect x="1408" y="448" width="48" height="48" transform="rotate(0,1432,472)"/><circle cx="1528" cy="472" r="24" transform="rotate(0,1528,472)"/><path d="M 1600 448v 48h 24a 24 24, 0, 0, 0, 0 -48" transform="rotate(-90,1624,472)"/><path d="M 1696 448v 48h 48v -24a 24 24, 0, 0, 0, -24 -24" transform="rotate(-90,1720,472)"/><path d="M 1744 448v 48h 48v -24a 24 24, 0, 0, 0, -24 -24" transform="rotate(90,1768,472)"/><circle cx="232" cy="520" r="24" transform="rotate(0,232,520)"/><path d="M 304 496v 48h 24a 24 24, 0, 0, 0, 0 -48" transform="rotate(180,328,520)"/><rect x="352" y="496" width="48" height="48" transform="rotate(0,376,520)"/><rect x="400" y="496" width="48" height="48" transform="rotate(0,424,520)"/><rect x="448" y="496" width="48" height="48" transform="rotate(0,472,520)"/><rect x="496" y="496" width="48" height="48" transform="rotate(0,520,520)"/><path d="M 544 496v 48h 24a 24 24, 0, 0, 0, 0 -48" transform="rotate(0,568,520)"/><path d="M 640 496v 48h 48v -24a 24 24, 0, 0, 0, -24 -24" transform="rotate(180,664,520)"/><path d="M 688 496v 48h 48v -24a 24 24, 0, 0, 0, -24 -24" transform="rotate(90,712,520)"/><path d="M 928 496v 48h 24a 24 24, 0, 0, 0, 0 -48" transform="rotate(-90,952,520)"/><path d="M 1072 496v 48h 48v -24a 24 24, 0, 0, 0, -24 -24" transform="rotate(180,1096,520)"/><path d="M 1120 496v 48h 24a 24 24, 0, 0, 0, 0 -48" transform="rotate(0,1144,520)"/><path d="M 1216 496v 48h 48v -24a 24 24, 0, 0, 0, -24 -24" transform="rotate(180,1240,520)"/><rect x="1264" y="496" width="48" height="48" transform="rotate(0,1288,520)"/><path d="M 1312 496v 48h 48v -24a 24 24, 0, 0, 0, -24 -24" transform="rotate(90,1336,520)"/><path d="M 1408 496v 48h 24a 24 24, 0, 0, 0, 0 -48" transform="rotate(90,1432,520)"/><path d="M 1552 496v 48h 48v -24a 24 24, 0, 0, 0, -24 -24" transform="rotate(-90,1576,520)"/><rect x="1600" y="496" width="48" height="48" transform="rotate(0,1624,520)"/><rect x="1648" y="496" width="48" height="48" transform="rotate(0,1672,520)"/><path d="M 1696 496v 48h 48v -24a 24 24, 0, 0, 0, -24 -24" transform="rotate(90,1720,520)"/><rect x="400" y="544" width="48" height="48" transform="rotate(0,424,568)"/><path d="M 880 544v 48h 48v -24a 24 24, 0, 0, 0, -24 -24" transform="rotate(-90,904,568)"/><rect x="928" y="544" width="48" height="48" transform="rotate(0,952,568)"/><rect x="976" y="544" width="48" height="48" transform="rotate(0,1000,568)"/><path d="M 1024 544v 48h 24a 24 24, 0, 0, 0, 0 -48" transform="rotate(0,1048,568)"/><circle cx="1192" cy="568" r="24" transform="rotate(0,1192,568)"/><circle cx="1384" cy="568" r="24" transform="rotate(0,1384,568)"/><path d="M 1456 544v 48h 24a 24 24, 0, 0, 0, 0 -48" transform="rotate(180,1480,568)"/><rect x="1504" y="544" width="48" height="48" transform="rotate(0,1528,568)"/><path d="M 1552 544v 48h 48v -24a 24 24, 0, 0, 0, -24 -24" transform="rotate(90,1576,568)"/><path d="M 1744 544v 48h 24a 24 24, 0, 0, 0, 0 -48" transform="rotate(180,1768,568)"/><path d="M 1792 544v 48h 24a 24 24, 0, 0, 0, 0 -48" transform="rotate(0,1816,568)"/><path d="M 1888 544v 48h 24a 24 24, 0, 0, 0, 0 -48" transform="rotate(180,1912,568)"/><path d="M 1936 544v 48h 24a 24 24, 0, 0, 0, 0 -48" transform="rotate(0,1960,568)"/><path d="M 64 592v 48h 48v -24a 24 24, 0, 0, 0, -24 -24" transform="rotate(-90,88,616)"/><rect x="112" y="592" width="48" height="48" transform="rotate(0,136,616)"/><path d="M 160 592v 48h 48v -24a 24 24, 0, 0, 0, -24 -24" transform="rotate(0,184,616)"/><path d="M 256 592v 48h 24a 24 24, 0, 0, 0, 0 -48" transform="rotate(180,280,616)"/><path d="M 304 592v 48h 24a 24 24, 0, 0, 0, 0 -48" transform="rotate(0,328,616)"/><path d="M 400 592v 48h 48v -24a 24 24, 0, 0, 0, -24 -24" transform="rotate(180,424,616)"/><path d="M 448 592v 48h 48v -24a 24 24, 0, 0, 0, -24 -24" transform="rotate(0,472,616)"/><circle cx="616" cy="616" r="24" transform="rotate(0,616,616)"/><path d="M 688 592v 48h 24a 24 24, 0, 0, 0, 0 -48" transform="rotate(-90,712,616)"/><path d="M 832 592v 48h 48v -24a 24 24, 0, 0, 0, -24 -24" transform="rotate(-90,856,616)"/><rect x="880" y="592" width="48" height="48" transform="rotate(0,904,616)"/><rect x="928" y="592" width="48" height="48" transform="rotate(0,952,616)"/><rect x="976" y="592" width="48" height="48" transform="rotate(0,1000,616)"/><path d="M 1600 592v 48h 48v -24a 24 24, 0, 0, 0, -24 -24" transform="rotate(-90,1624,616)"/><path d="M 1648 592v 48h 48v -24a 24 24, 0, 0, 0, -24 -24" transform="rotate(0,1672,616)"/><path d="M 16 640v 48h 24a 24 24, 0, 0, 0, 0 -48" transform="rotate(180,40,664)"/><rect x="64" y="640" width="48" height="48" transform="rotate(0,88,664)"/><rect x="160" y="640" width="48" height="48" transform="rotate(0,184,664)"/><path d="M 448 640v 48h 48v -24a 24 24, 0, 0, 0, -24 -24" transform="rotate(180,472,664)"/><path d="M 496 640v 48h 24a 24 24, 0, 0, 0, 0 -48" transform="rotate(0,520,664)"/><path d="M 688 640v 48h 48v -24a 24 24, 0, 0, 0, -24 -24" transform="rotate(180,712,664)"/><rect x="736" y="640" width="48" height="48" transform="rotate(0,760,664)"/><rect x="784" y="640" width="48" height="48" transform="rotate(0,808,664)"/><rect x="832" y="640" width="48" height="48" transform="rotate(0,856,664)"/><path d="M 880 640v 48h 48v -24a 24 24, 0, 0, 0, -24 -24" transform="rotate(90,904,664)"/><rect x="976" y="640" width="48" height="48" transform="rotate(0,1000,664)"/><rect x="1024" y="640" width="48" height="48" transform="rotate(0,1048,664)"/><rect x="1072" y="640" width="48" height="48" transform="rotate(0,1096,664)"/><rect x="1120" y="640" width="48" height="48" transform="rotate(0,1144,664)"/><path d="M 1168 640v 48h 48v -24a 24 24, 0, 0, 0, -24 -24" transform="rotate(0,1192,664)"/><path d="M 1264 640v 48h 24a 24 24, 0, 0, 0, 0 -48" transform="rotate(-90,1288,664)"/><path d="M 1408 640v 48h 48v -24a 24 24, 0, 0, 0, -24 -24" transform="rotate(-90,1432,664)"/><rect x="1456" y="640" width="48" height="48" transform="rotate(0,1480,664)"/><path d="M 1504 640v 48h 24a 24 24, 0, 0, 0, 0 -48" transform="rotate(0,1528,664)"/><rect x="1600" y="640" width="48" height="48" transform="rotate(0,1624,664)"/><rect x="1648" y="640" width="48" height="48" transform="rotate(0,1672,664)"/><rect x="1696" y="640" width="48" height="48" transform="rotate(0,1720,664)"/><rect x="1744" y="640" width="48" height="48" transform="rotate(0,1768,664)"/><rect x="1792" y="640" width="48" height="48" transform="rotate(0,1816,664)"/><path d="M 1840 640v 48h 24a 24 24, 0, 0, 0, 0 -48" transform="rotate(0,1864,664)"/><circle cx="1960" cy="664" r="24" transform="rotate(0,1960,664)"/><rect x="64" y="688" width="48" height="48" transform="rotate(0,88,712)"/><path d="M 160 688v 48h 48v -24a 24 24, 0, 0, 0, -24 -24" transform="rotate(180,184,712)"/><rect x="208" y="688" width="48" height="48" transform="rotate(0,232,712)"/><rect x="256" y="688" width="48" height="48" transform="rotate(0,280,712)"/><path d="M 304 688v 48h 24a 24 24, 0, 0, 0, 0 -48" transform="rotate(0,328,712)"/><path d="M 400 688v 48h 24a 24 24, 0, 0, 0, 0 -48" transform="rotate(-90,424,712)"/><path d="M 592 688v 48h 24a 24 24, 0, 0, 0, 0 -48" transform="rotate(180,616,712)"/><path d="M 640 688v 48h 48v -24a 24 24, 0, 0, 0, -24 -24" transform="rotate(0,664,712)"/><path d="M 736 688v 48h 24a 24 24, 0, 0, 0, 0 -48" transform="rotate(90,760,712)"/><rect x="976" y="688" width="48" height="48" transform="rotate(0,1000,712)"/><path d="M 1024 688v 48h 48v -24a 24 24, 0, 0, 0, -24 -24" transform="rotate(90,1048,712)"/><path d="M 1120 688v 48h 48v -24a 24 24, 0, 0, 0, -24 -24" transform="rotate(180,1144,712)"/><rect x="1168" y="688" width="48" height="48" transform="rotate(0,1192,712)"/><rect x="1216" y="688" width="48" height="48" transform="rotate(0,1240,712)"/><rect x="1264" y="688" width="48" height="48" transform="rotate(0,1288,712)"/><rect x="1312" y="688" width="48" height="48" transform="rotate(0,1336,712)"/><rect x="1360" y="688" width="48" height="48" transform="rotate(0,1384,712)"/><path d="M 1408 688v 48h 48v -24a 24 24, 0, 0, 0, -24 -24" transform="rotate(90,1432,712)"/><rect x="1600" y="688" width="48" height="48" transform="rotate(0,1624,712)"/><path d="M 1696 688v 48h 24a 24 24, 0, 0, 0, 0 -48" transform="rotate(90,1720,712)"/><rect x="1792" y="688" width="48" height="48" transform="rotate(0,1816,712)"/><rect x="64" y="736" width="48" height="48" transform="rotate(0,88,760)"/><rect x="256" y="736" width="48" height="48" transform="rotate(0,280,760)"/><path d="M 400 736v 48h 48v -24a 24 24, 0, 0, 0, -24 -24" transform="rotate(180,424,760)"/><rect x="448" y="736" width="48" height="48" transform="rotate(0,472,760)"/><rect x="496" y="736" width="48" height="48" transform="rotate(0,520,760)"/><path d="M 544 736v 48h 24a 24 24, 0, 0, 0, 0 -48" transform="rotate(0,568,760)"/><path d="M 640 736v 48h 24a 24 24, 0, 0, 0, 0 -48" transform="rotate(90,664,760)"/><path d="M 880 736v 48h 24a 24 24, 0, 0, 0, 0 -48" transform="rotate(180,904,760)"/><rect x="928" y="736" width="48" height="48" transform="rotate(0,952,760)"/><path d="M 976 736v 48h 48v -24a 24 24, 0, 0, 0, -24 -24" transform="rotate(90,1000,760)"/><circle cx="1096" cy="760" r="24" transform="rotate(0,1096,760)"/><path d="M 1168 736v 48h 24a 24 24, 0, 0, 0, 0 -48" transform="rotate(90,1192,760)"/><path d="M 1360 736v 48h 24a 24 24, 0, 0, 0, 0 -48" transform="rotate(90,1384,760)"/><circle cx="1480" cy="760" r="24" transform="rotate(0,1480,760)"/><rect x="1600" y="736" width="48" height="48" transform="rotate(0,1624,760)"/><path d="M 1744 736v 48h 24a 24 24, 0, 0, 0, 0 -48" transform="rotate(180,1768,760)"/><rect x="1792" y="736" width="48" height="48" transform="rotate(0,1816,760)"/><path d="M 1840 736v 48h 48v -24a 24 24, 0, 0, 0, -24 -24" transform="rotate(0,1864,760)"/><circle cx="1960" cy="760" r="24" transform="rotate(0,1960,760)"/><path d="M 16 784v 48h 24a 24 24, 0, 0, 0, 0 -48" transform="rotate(180,40,808)"/><path d="M 64 784v 48h 48v -24a 24 24, 0, 0, 0, -24 -24" transform="rotate(90,88,808)"/><rect x="256" y="784" width="48" height="48" transform="rotate(0,280,808)"/><rect x="304" y="784" width="48" height="48" transform="rotate(0,328,808)"/><path d="M 352 784v 48h 48v -24a 24 24, 0, 0, 0, -24 -24" transform="rotate(0,376,808)"/><path d="M 448 784v 48h 48v -24a 24 24, 0, 0, 0, -24 -24" transform="rotate(180,472,808)"/><rect x="496" y="784" width="48" height="48" transform="rotate(0,520,808)"/><circle cx="616" cy="808" r="24" transform="rotate(0,616,808)"/><circle cx="808" cy="808" r="24" transform="rotate(0,808,808)"/><path d="M 928 784v 48h 24a 24 24, 0, 0, 0, 0 -48" transform="rotate(90,952,808)"/><path d="M 1120 784v 48h 24a 24 24, 0, 0, 0, 0 -48" transform="rotate(-90,1144,808)"/><path d="M 1264 784v 48h 48v -24a 24 24, 0, 0, 0, -24 -24" transform="rotate(-90,1288,808)"/><path d="M 1312 784v 48h 48v -24a 24 24, 0, 0, 0, -24 -24" transform="rotate(0,1336,808)"/><path d="M 1408 784v 48h 24a 24 24, 0, 0, 0, 0 -48" transform="rotate(-90,1432,808)"/><rect x="1600" y="784" width="48" height="48" transform="rotate(0,1624,808)"/><path d="M 1696 784v 48h 24a 24 24, 0, 0, 0, 0 -48" transform="rotate(-90,1720,808)"/><rect x="1840" y="784" width="48" height="48" transform="rotate(0,1864,808)"/><path d="M 160 832v 48h 24a 24 24, 0, 0, 0, 0 -48" transform="rotate(-90,184,856)"/><rect x="256" y="832" width="48" height="48" transform="rotate(0,280,856)"/><rect x="352" y="832" width="48" height="48" transform="rotate(0,376,856)"/><path d="M 400 832v 48h 48v -24a 24 24, 0, 0, 0, -24 -24" transform="rotate(0,424,856)"/><rect x="496" y="832" width="48" height="48" transform="rotate(0,520,856)"/><path d="M 544 832v 48h 48v -24a 24 24, 0, 0, 0, -24 -24" transform="rotate(0,568,856)"/><path d="M 688 832v 48h 24a 24 24, 0, 0, 0, 0 -48" transform="rotate(-90,712,856)"/><circle cx="856" cy="856" r="24" transform="rotate(0,856,856)"/><rect x="1120" y="832" width="48" height="48" transform="rotate(0,1144,856)"/><rect x="1168" y="832" width="48" height="48" transform="rotate(0,1192,856)"/><rect x="1216" y="832" width="48" height="48" transform="rotate(0,1240,856)"/><rect x="1264" y="832" width="48" height="48" transform="rotate(0,1288,856)"/><rect x="1312" y="832" width="48" height="48" transform="rotate(0,1336,856)"/><rect x="1360" y="832" width="48" height="48" transform="rotate(0,1384,856)"/><rect x="1408" y="832" width="48" height="48" transform="rotate(0,1432,856)"/><rect x="1456" y="832" width="48" height="48" transform="rotate(0,1480,856)"/><rect x="1504" y="832" width="48" height="48" transform="rotate(0,1528,856)"/><rect x="1552" y="832" width="48" height="48" transform="rotate(0,1576,856)"/><rect x="1600" y="832" width="48" height="48" transform="rotate(0,1624,856)"/><rect x="1648" y="832" width="48" height="48" transform="rotate(0,1672,856)"/><rect x="1696" y="832" width="48" height="48" transform="rotate(0,1720,856)"/><path d="M 1744 832v 48h 48v -24a 24 24, 0, 0, 0, -24 -24" transform="rotate(0,1768,856)"/><rect x="1840" y="832" width="48" height="48" transform="rotate(0,1864,856)"/><path d="M 1936 832v 48h 24a 24 24, 0, 0, 0, 0 -48" transform="rotate(-90,1960,856)"/><path d="M 64 880v 48h 24a 24 24, 0, 0, 0, 0 -48" transform="rotate(-90,88,904)"/><rect x="160" y="880" width="48" height="48" transform="rotate(0,184,904)"/><rect x="208" y="880" width="48" height="48" transform="rotate(0,232,904)"/><rect x="256" y="880" width="48" height="48" transform="rotate(0,280,904)"/><rect x="304" y="880" width="48" height="48" transform="rotate(0,328,904)"/><rect x="352" y="880" width="48" height="48" transform="rotate(0,376,904)"/><rect x="400" y="880" width="48" height="48" transform="rotate(0,424,904)"/><rect x="448" y="880" width="48" height="48" transform="rotate(0,472,904)"/><rect x="496" y="880" width="48" height="48" transform="rotate(0,520,904)"/><rect x="544" y="880" width="48" height="48" transform="rotate(0,568,904)"/><rect x="592" y="880" width="48" height="48" transform="rotate(0,616,904)"/><rect x="640" y="880" width="48" height="48" transform="rotate(0,664,904)"/><rect x="688" y="880" width="48" height="48" transform="rotate(0,712,904)"/><path d="M 736 880v 48h 24a 24 24, 0, 0, 0, 0 -48" transform="rotate(0,760,904)"/><path d="M 880 880v 48h 24a 24 24, 0, 0, 0, 0 -48" transform="rotate(180,904,904)"/><rect x="928" y="880" width="48" height="48" transform="rotate(0,952,904)"/><path d="M 976 880v 48h 24a 24 24, 0, 0, 0, 0 -48" transform="rotate(0,1000,904)"/><path d="M 1072 880v 48h 48v -24a 24 24, 0, 0, 0, -24 -24" transform="rotate(-90,1096,904)"/><rect x="1120" y="880" width="48" height="48" transform="rotate(0,1144,904)"/><rect x="1168" y="880" width="48" height="48" transform="rotate(0,1192,904)"/><rect x="1216" y="880" width="48" height="48" transform="rotate(0,1240,904)"/><rect x="1264" y="880" width="48" height="48" transform="rotate(0,1288,904)"/><path d="M 1312 880v 48h 48v -24a 24 24, 0, 0, 0, -24 -24" transform="rotate(90,1336,904)"/><path d="M 1504 880v 48h 48v -24a 24 24, 0, 0, 0, -24 -24" transform="rotate(180,1528,904)"/><rect x="1552" y="880" width="48" height="48" transform="rotate(0,1576,904)"/><rect x="1600" y="880" width="48" height="48" transform="rotate(0,1624,904)"/><rect x="1648" y="880" width="48" height="48" transform="rotate(0,1672,904)"/><rect x="1696" y="880" width="48" height="48" transform="rotate(0,1720,904)"/><rect x="1744" y="880" width="48" height="48" transform="rotate(0,1768,904)"/><path d="M 1840 880v 48h 24a 24 24, 0, 0, 0, 0 -48" transform="rotate(90,1864,904)"/><path d="M 1936 880v 48h 24a 24 24, 0, 0, 0, 0 -48" transform="rotate(90,1960,904)"/><rect x="64" y="928" width="48" height="48" transform="rotate(0,88,952)"/><path d="M 160 928v 48h 24a 24 24, 0, 0, 0, 0 -48" transform="rotate(90,184,952)"/><path d="M 592 928v 48h 24a 24 24, 0, 0, 0, 0 -48" transform="rotate(90,616,952)"/><path d="M 784 928v 48h 24a 24 24, 0, 0, 0, 0 -48" transform="rotate(-90,808,952)"/><rect x="928" y="928" width="48" height="48" transform="rotate(0,952,952)"/><path d="M 1024 928v 48h 24a 24 24, 0, 0, 0, 0 -48" transform="rotate(180,1048,952)"/><rect x="1072" y="928" width="48" height="48" transform="rotate(0,1096,952)"/><path d="M 1120 928v 48h 48v -24a 24 24, 0, 0, 0, -24 -24" transform="rotate(90,1144,952)"/><path d="M 1264 928v 48h 24a 24 24, 0, 0, 0, 0 -48" transform="rotate(90,1288,952)"/><path d="M 1408 928v 48h 24a 24 24, 0, 0, 0, 0 -48" transform="rotate(180,1432,952)"/><path d="M 1456 928v 48h 24a 24 24, 0, 0, 0, 0 -48" transform="rotate(0,1480,952)"/><path d="M 1600 928v 48h 48v -24a 24 24, 0, 0, 0, -24 -24" transform="rotate(180,1624,952)"/><path d="M 1648 928v 48h 48v -24a 24 24, 0, 0, 0, -24 -24" transform="rotate(90,1672,952)"/><path d="M 1744 928v 48h 48v -24a 24 24, 0, 0, 0, -24 -24" transform="rotate(180,1768,952)"/><path d="M 1792 928v 48h 48v -24a 24 24, 0, 0, 0, -24 -24" transform="rotate(0,1816,952)"/><circle cx="1912" cy="952" r="24" transform="rotate(0,1912,952)"/><rect x="64" y="976" width="48" height="48" transform="rotate(0,88,1000)"/><path d="M 112 976v 48h 48v -24a 24 24, 0, 0, 0, -24 -24" transform="rotate(0,136,1000)"/><path d="M 256 976v 48h 24a 24 24, 0, 0, 0, 0 -48" transform="rotate(180,280,1000)"/><rect x="304" y="976" width="48" height="48" transform="rotate(0,328,1000)"/><rect x="352" y="976" width="48" height="48" transform="rotate(0,376,1000)"/><rect x="400" y="976" width="48" height="48" transform="rotate(0,424,1000)"/><rect x="448" y="976" width="48" height="48" transform="rotate(0,472,1000)"/><rect x="496" y="976" width="48" height="48" transform="rotate(0,520,1000)"/><path d="M 544 976v 48h 24a 24 24, 0, 0, 0, 0 -48" transform="rotate(0,568,1000)"/><path d="M 640 976v 48h 24a 24 24, 0, 0, 0, 0 -48" transform="rotate(-90,664,1000)"/><path d="M 736 976v 48h 48v -24a 24 24, 0, 0, 0, -24 -24" transform="rotate(-90,760,1000)"/><path d="M 784 976v 48h 48v -24a 24 24, 0, 0, 0, -24 -24" transform="rotate(90,808,1000)"/><rect x="928" y="976" width="48" height="48" transform="rotate(0,952,1000)"/><path d="M 976 976v 48h 24a 24 24, 0, 0, 0, 0 -48" transform="rotate(0,1000,1000)"/><circle cx="1192" cy="1000" r="24" transform="rotate(0,1192,1000)"/><circle cx="1384" cy="1000" r="24" transform="rotate(0,1384,1000)"/><path d="M 1504 976v 48h 24a 24 24, 0, 0, 0, 0 -48" transform="rotate(-90,1528,1000)"/><circle cx="1720" cy="1000" r="24" transform="rotate(0,1720,1000)"/><rect x="1792" y="976" width="48" height="48" transform="rotate(0,1816,1000)"/><path d="M 1840 976v 48h 48v -24a 24 24, 0, 0, 0, -24 -24" transform="rotate(0,1864,1000)"/><path d="M 16 1024v 48h 24a 24 24, 0, 0, 0, 0 -48" transform="rotate(180,40,1048)"/><rect x="64" y="1024" width="48" height="48" transform="rotate(0,88,1048)"/><rect x="112" y="1024" width="48" height="48" transform="rotate(0,136,1048)"/><path d="M 208 1024v 48h 24a 24 24, 0, 0, 0, 0 -48" transform="rotate(-90,232,1048)"/><path d="M 352 1024v 48h 48v -24a 24 24, 0, 0, 0, -24 -24" transform="rotate(180,376,1048)"/><rect x="400" y="1024" width="48" height="48" transform="rotate(0,424,1048)"/><rect x="640" y="1024" width="48" height="48" transform="rotate(0,664,1048)"/><path d="M 736 1024v 48h 24a 24 24, 0, 0, 0, 0 -48" transform="rotate(90,760,1048)"/><circle cx="856" cy="1048" r="24" transform="rotate(0,856,1048)"/><path d="M 928 1024v 48h 24a 24 24, 0, 0, 0, 0 -48" transform="rotate(90,952,1048)"/><path d="M 1024 1024v 48h 24a 24 24, 0, 0, 0, 0 -48" transform="rotate(180,1048,1048)"/><rect x="1072" y="1024" width="48" height="48" transform="rotate(0,1096,1048)"/><path d="M 1120 1024v 48h 48v -24a 24 24, 0, 0, 0, -24 -24" transform="rotate(0,1144,1048)"/><path d="M 1264 1024v 48h 48v -24a 24 24, 0, 0, 0, -24 -24" transform="rotate(-90,1288,1048)"/><path d="M 1312 1024v 48h 48v -24a 24 24, 0, 0, 0, -24 -24" transform="rotate(0,1336,1048)"/><path d="M 1456 1024v 48h 48v -24a 24 24, 0, 0, 0, -24 -24" transform="rotate(-90,1480,1048)"/><path d="M 1504 1024v 48h 48v -24a 24 24, 0, 0, 0, -24 -24" transform="rotate(90,1528,1048)"/><path d="M 1744 1024v 48h 24a 24 24, 0, 0, 0, 0 -48" transform="rotate(180,1768,1048)"/><rect x="1792" y="1024" width="48" height="48" transform="rotate(0,1816,1048)"/><path d="M 1840 1024v 48h 48v -24a 24 24, 0, 0, 0, -24 -24" transform="rotate(90,1864,1048)"/><rect x="112" y="1072" width="48" height="48" transform="rotate(0,136,1096)"/><rect x="208" y="1072" width="48" height="48" transform="rotate(0,232,1096)"/><circle cx="328" cy="1096" r="24" transform="rotate(0,328,1096)"/><rect x="400" y="1072" width="48" height="48" transform="rotate(0,424,1096)"/><path d="M 496 1072v 48h 48v -24a 24 24, 0, 0, 0, -24 -24" transform="rotate(-90,520,1096)"/><rect x="544" y="1072" width="48" height="48" transform="rotate(0,568,1096)"/><rect x="592" y="1072" width="48" height="48" transform="rotate(0,616,1096)"/><rect x="640" y="1072" width="48" height="48" transform="rotate(0,664,1096)"/><circle cx="808" cy="1096" r="24" transform="rotate(0,808,1096)"/><circle cx="904" cy="1096" r="24" transform="rotate(0,904,1096)"/><path d="M 976 1072v 48h 24a 24 24, 0, 0, 0, 0 -48" transform="rotate(-90,1000,1096)"/><path d="M 1120 1072v 48h 48v -24a 24 24, 0, 0, 0, -24 -24" transform="rotate(180,1144,1096)"/><path d="M 1168 1072v 48h 24a 24 24, 0, 0, 0, 0 -48" transform="rotate(0,1192,1096)"/><path d="M 1264 1072v 48h 48v -24a 24 24, 0, 0, 0, -24 -24" transform="rotate(180,1288,1096)"/><rect x="1312" y="1072" width="48" height="48" transform="rotate(0,1336,1096)"/><rect x="1360" y="1072" width="48" height="48" transform="rotate(0,1384,1096)"/><rect x="1408" y="1072" width="48" height="48" transform="rotate(0,1432,1096)"/><rect x="1456" y="1072" width="48" height="48" transform="rotate(0,1480,1096)"/><path d="M 1552 1072v 48h 24a 24 24, 0, 0, 0, 0 -48" transform="rotate(-90,1576,1096)"/><circle cx="1720" cy="1096" r="24" transform="rotate(0,1720,1096)"/><path d="M 1792 1072v 48h 24a 24 24, 0, 0, 0, 0 -48" transform="rotate(90,1816,1096)"/><circle cx="40" cy="1144" r="24" transform="rotate(0,40,1144)"/><rect x="112" y="1120" width="48" height="48" transform="rotate(0,136,1144)"/><rect x="160" y="1120" width="48" height="48" transform="rotate(0,184,1144)"/><rect x="208" y="1120" width="48" height="48" transform="rotate(0,232,1144)"/><path d="M 256 1120v 48h 48v -24a 24 24, 0, 0, 0, -24 -24" transform="rotate(0,280,1144)"/><path d="M 400 1120v 48h 48v -24a 24 24, 0, 0, 0, -24 -24" transform="rotate(180,424,1144)"/><rect x="448" y="1120" width="48" height="48" transform="rotate(0,472,1144)"/><rect x="496" y="1120" width="48" height="48" transform="rotate(0,520,1144)"/><rect x="544" y="1120" width="48" height="48" transform="rotate(0,568,1144)"/><rect x="640" y="1120" width="48" height="48" transform="rotate(0,664,1144)"/><path d="M 688 1120v 48h 48v -24a 24 24, 0, 0, 0, -24 -24" transform="rotate(0,712,1144)"/><rect x="976" y="1120" width="48" height="48" transform="rotate(0,1000,1144)"/><path d="M 1024 1120v 48h 24a 24 24, 0, 0, 0, 0 -48" transform="rotate(0,1048,1144)"/><path d="M 1216 1120v 48h 24a 24 24, 0, 0, 0, 0 -48" transform="rotate(-90,1240,1144)"/><path d="M 1312 1120v 48h 48v -24a 24 24, 0, 0, 0, -24 -24" transform="rotate(180,1336,1144)"/><rect x="1360" y="1120" width="48" height="48" transform="rotate(0,1384,1144)"/><path d="M 1456 1120v 48h 48v -24a 24 24, 0, 0, 0, -24 -24" transform="rotate(180,1480,1144)"/><rect x="1504" y="1120" width="48" height="48" transform="rotate(0,1528,1144)"/><rect x="1552" y="1120" width="48" height="48" transform="rotate(0,1576,1144)"/><circle cx="1768" cy="1144" r="24" transform="rotate(0,1768,1144)"/><circle cx="1912" cy="1144" r="24" transform="rotate(0,1912,1144)"/><path d="M 64 1168v 48h 24a 24 24, 0, 0, 0, 0 -48" transform="rotate(180,88,1192)"/><rect x="112" y="1168" width="48" height="48" transform="rotate(0,136,1192)"/><path d="M 208 1168v 48h 48v -24a 24 24, 0, 0, 0, -24 -24" transform="rotate(180,232,1192)"/><rect x="256" y="1168" width="48" height="48" transform="rotate(0,280,1192)"/><path d="M 304 1168v 48h 24a 24 24, 0, 0, 0, 0 -48" transform="rotate(0,328,1192)"/><rect x="448" y="1168" width="48" height="48" transform="rotate(0,472,1192)"/><rect x="496" y="1168" width="48" height="48" transform="rotate(0,520,1192)"/><path d="M 544 1168v 48h 48v -24a 24 24, 0, 0, 0, -24 -24" transform="rotate(90,568,1192)"/><path d="M 640 1168v 48h 48v -24a 24 24, 0, 0, 0, -24 -24" transform="rotate(180,664,1192)"/><rect x="688" y="1168" width="48" height="48" transform="rotate(0,712,1192)"/><path d="M 880 1168v 48h 24a 24 24, 0, 0, 0, 0 -48" transform="rotate(-90,904,1192)"/><path d="M 976 1168v 48h 24a 24 24, 0, 0, 0, 0 -48" transform="rotate(90,1000,1192)"/><path d="M 1072 1168v 48h 24a 24 24, 0, 0, 0, 0 -48" transform="rotate(-90,1096,1192)"/><path d="M 1216 1168v 48h 24a 24 24, 0, 0, 0, 0 -48" transform="rotate(90,1240,1192)"/><rect x="1360" y="1168" width="48" height="48" transform="rotate(0,1384,1192)"/><rect x="1504" y="1168" width="48" height="48" transform="rotate(0,1528,1192)"/><rect x="1552" y="1168" width="48" height="48" transform="rotate(0,1576,1192)"/><rect x="1600" y="1168" width="48" height="48" transform="rotate(0,1624,1192)"/><rect x="1648" y="1168" width="48" height="48" transform="rotate(0,1672,1192)"/><path d="M 1696 1168v 48h 48v -24a 24 24, 0, 0, 0, -24 -24" transform="rotate(0,1720,1192)"/><circle cx="1960" cy="1192" r="24" transform="rotate(0,1960,1192)"/><path d="M 112 1216v 48h 24a 24 24, 0, 0, 0, 0 -48" transform="rotate(90,136,1240)"/><path d="M 352 1216v 48h 48v -24a 24 24, 0, 0, 0, -24 -24" transform="rotate(-90,376,1240)"/><rect x="400" y="1216" width="48" height="48" transform="rotate(0,424,1240)"/><rect x="448" y="1216" width="48" height="48" transform="rotate(0,472,1240)"/><path d="M 496 1216v 48h 48v -24a 24 24, 0, 0, 0, -24 -24" transform="rotate(90,520,1240)"/><circle cx="616" cy="1240" r="24" transform="rotate(0,616,1240)"/><rect x="688" y="1216" width="48" height="48" transform="rotate(0,712,1240)"/><rect x="736" y="1216" width="48" height="48" transform="rotate(0,760,1240)"/><rect x="784" y="1216" width="48" height="48" transform="rotate(0,808,1240)"/><rect x="832" y="1216" width="48" height="48" transform="rotate(0,856,1240)"/><path d="M 880 1216v 48h 48v -24a 24 24, 0, 0, 0, -24 -24" transform="rotate(90,904,1240)"/><path d="M 1072 1216v 48h 48v -24a 24 24, 0, 0, 0, -24 -24" transform="rotate(180,1096,1240)"/><path d="M 1120 1216v 48h 48v -24a 24 24, 0, 0, 0, -24 -24" transform="rotate(0,1144,1240)"/><path d="M 1312 1216v 48h 48v -24a 24 24, 0, 0, 0, -24 -24" transform="rotate(-90,1336,1240)"/><rect x="1360" y="1216" width="48" height="48" transform="rotate(0,1384,1240)"/><rect x="1408" y="1216" width="48" height="48" transform="rotate(0,1432,1240)"/><rect x="1456" y="1216" width="48" height="48" transform="rotate(0,1480,1240)"/><path d="M 1504 1216v 48h 48v -24a 24 24, 0, 0, 0, -24 -24" transform="rotate(90,1528,1240)"/><rect x="1648" y="1216" width="48" height="48" transform="rotate(0,1672,1240)"/><rect x="1696" y="1216" width="48" height="48" transform="rotate(0,1720,1240)"/><rect x="1744" y="1216" width="48" height="48" transform="rotate(0,1768,1240)"/><path d="M 1792 1216v 48h 24a 24 24, 0, 0, 0, 0 -48" transform="rotate(0,1816,1240)"/><circle cx="1912" cy="1240" r="24" transform="rotate(0,1912,1240)"/><path d="M 208 1264v 48h 24a 24 24, 0, 0, 0, 0 -48" transform="rotate(-90,232,1288)"/><path d="M 304 1264v 48h 24a 24 24, 0, 0, 0, 0 -48" transform="rotate(180,328,1288)"/><rect x="352" y="1264" width="48" height="48" transform="rotate(0,376,1288)"/><path d="M 544 1264v 48h 24a 24 24, 0, 0, 0, 0 -48" transform="rotate(-90,568,1288)"/><path d="M 688 1264v 48h 48v -24a 24 24, 0, 0, 0, -24 -24" transform="rotate(180,712,1288)"/><path d="M 736 1264v 48h 48v -24a 24 24, 0, 0, 0, -24 -24" transform="rotate(90,760,1288)"/><path d="M 1120 1264v 48h 48v -24a 24 24, 0, 0, 0, -24 -24" transform="rotate(180,1144,1288)"/><rect x="1168" y="1264" width="48" height="48" transform="rotate(0,1192,1288)"/><path d="M 1216 1264v 48h 48v -24a 24 24, 0, 0, 0, -24 -24" transform="rotate(0,1240,1288)"/><path d="M 1312 1264v 48h 24a 24 24, 0, 0, 0, 0 -48" transform="rotate(90,1336,1288)"/><path d="M 1552 1264v 48h 24a 24 24, 0, 0, 0, 0 -48" transform="rotate(180,1576,1288)"/><rect x="1600" y="1264" width="48" height="48" transform="rotate(0,1624,1288)"/><rect x="1648" y="1264" width="48" height="48" transform="rotate(0,1672,1288)"/><rect x="1696" y="1264" width="48" height="48" transform="rotate(0,1720,1288)"/><rect x="1744" y="1264" width="48" height="48" transform="rotate(0,1768,1288)"/><circle cx="40" cy="1336" r="24" transform="rotate(0,40,1336)"/><path d="M 160 1312v 48h 48v -24a 24 24, 0, 0, 0, -24 -24" transform="rotate(-90,184,1336)"/><rect x="208" y="1312" width="48" height="48" transform="rotate(0,232,1336)"/><rect x="352" y="1312" width="48" height="48" transform="rotate(0,376,1336)"/><path d="M 496 1312v 48h 24a 24 24, 0, 0, 0, 0 -48" transform="rotate(180,520,1336)"/><rect x="544" y="1312" width="48" height="48" transform="rotate(0,568,1336)"/><rect x="592" y="1312" width="48" height="48" transform="rotate(0,616,1336)"/><path d="M 640 1312v 48h 24a 24 24, 0, 0, 0, 0 -48" transform="rotate(0,664,1336)"/><path d="M 832 1312v 48h 24a 24 24, 0, 0, 0, 0 -48" transform="rotate(-90,856,1336)"/><path d="M 928 1312v 48h 48v -24a 24 24, 0, 0, 0, -24 -24" transform="rotate(-90,952,1336)"/><rect x="976" y="1312" width="48" height="48" transform="rotate(0,1000,1336)"/><path d="M 1024 1312v 48h 48v -24a 24 24, 0, 0, 0, -24 -24" transform="rotate(0,1048,1336)"/><path d="M 1216 1312v 48h 48v -24a 24 24, 0, 0, 0, -24 -24" transform="rotate(180,1240,1336)"/><path d="M 1264 1312v 48h 24a 24 24, 0, 0, 0, 0 -48" transform="rotate(0,1288,1336)"/><path d="M 1456 1312v 48h 24a 24 24, 0, 0, 0, 0 -48" transform="rotate(180,1480,1336)"/><path d="M 1504 1312v 48h 48v -24a 24 24, 0, 0, 0, -24 -24" transform="rotate(0,1528,1336)"/><path d="M 1648 1312v 48h 48v -24a 24 24, 0, 0, 0, -24 -24" transform="rotate(180,1672,1336)"/><rect x="1696" y="1312" width="48" height="48" transform="rotate(0,1720,1336)"/><rect x="1744" y="1312" width="48" height="48" transform="rotate(0,1768,1336)"/><rect x="1792" y="1312" width="48" height="48" transform="rotate(0,1816,1336)"/><path d="M 1840 1312v 48h 48v -24a 24 24, 0, 0, 0, -24 -24" transform="rotate(0,1864,1336)"/><path d="M 1936 1312v 48h 24a 24 24, 0, 0, 0, 0 -48" transform="rotate(-90,1960,1336)"/><path d="M 64 1360v 48h 24a 24 24, 0, 0, 0, 0 -48" transform="rotate(180,88,1384)"/><rect x="112" y="1360" width="48" height="48" transform="rotate(0,136,1384)"/><rect x="160" y="1360" width="48" height="48" transform="rotate(0,184,1384)"/><rect x="208" y="1360" width="48" height="48" transform="rotate(0,232,1384)"/><rect x="256" y="1360" width="48" height="48" transform="rotate(0,280,1384)"/><rect x="304" y="1360" width="48" height="48" transform="rotate(0,328,1384)"/><rect x="352" y="1360" width="48" height="48" transform="rotate(0,376,1384)"/><path d="M 544 1360v 48h 24a 24 24, 0, 0, 0, 0 -48" transform="rotate(90,568,1384)"/><path d="M 832 1360v 48h 48v -24a 24 24, 0, 0, 0, -24 -24" transform="rotate(180,856,1384)"/><rect x="880" y="1360" width="48" height="48" transform="rotate(0,904,1384)"/><rect x="928" y="1360" width="48" height="48" transform="rotate(0,952,1384)"/><rect x="976" y="1360" width="48" height="48" transform="rotate(0,1000,1384)"/><rect x="1024" y="1360" width="48" height="48" transform="rotate(0,1048,1384)"/><path d="M 1072 1360v 48h 24a 24 24, 0, 0, 0, 0 -48" transform="rotate(0,1096,1384)"/><path d="M 1168 1360v 48h 24a 24 24, 0, 0, 0, 0 -48" transform="rotate(-90,1192,1384)"/><circle cx="1432" cy="1384" r="24" transform="rotate(0,1432,1384)"/><rect x="1504" y="1360" width="48" height="48" transform="rotate(0,1528,1384)"/><rect x="1552" y="1360" width="48" height="48" transform="rotate(0,1576,1384)"/><path d="M 1600 1360v 48h 48v -24a 24 24, 0, 0, 0, -24 -24" transform="rotate(0,1624,1384)"/><rect x="1696" y="1360" width="48" height="48" transform="rotate(0,1720,1384)"/><rect x="1792" y="1360" width="48" height="48" transform="rotate(0,1816,1384)"/><rect x="1840" y="1360" width="48" height="48" transform="rotate(0,1864,1384)"/><rect x="1936" y="1360" width="48" height="48" transform="rotate(0,1960,1384)"/><path d="M 16 1408v 48h 24a 24 24, 0, 0, 0, 0 -48" transform="rotate(-90,40,1432)"/><path d="M 112 1408v 48h 24a 24 24, 0, 0, 0, 0 -48" transform="rotate(90,136,1432)"/><rect x="256" y="1408" width="48" height="48" transform="rotate(0,280,1432)"/><rect x="352" y="1408" width="48" height="48" transform="rotate(0,376,1432)"/><circle cx="472" cy="1432" r="24" transform="rotate(0,472,1432)"/><circle cx="616" cy="1432" r="24" transform="rotate(0,616,1432)"/><circle cx="712" cy="1432" r="24" transform="rotate(0,712,1432)"/><circle cx="808" cy="1432" r="24" transform="rotate(0,808,1432)"/><rect x="1024" y="1408" width="48" height="48" transform="rotate(0,1048,1432)"/><path d="M 1120 1408v 48h 24a 24 24, 0, 0, 0, 0 -48" transform="rotate(180,1144,1432)"/><path d="M 1168 1408v 48h 48v -24a 24 24, 0, 0, 0, -24 -24" transform="rotate(90,1192,1432)"/><path d="M 1264 1408v 48h 24a 24 24, 0, 0, 0, 0 -48" transform="rotate(-90,1288,1432)"/><path d="M 1360 1408v 48h 24a 24 24, 0, 0, 0, 0 -48" transform="rotate(-90,1384,1432)"/><path d="M 1456 1408v 48h 24a 24 24, 0, 0, 0, 0 -48" transform="rotate(180,1480,1432)"/><rect x="1504" y="1408" width="48" height="48" transform="rotate(0,1528,1432)"/><rect x="1600" y="1408" width="48" height="48" transform="rotate(0,1624,1432)"/><rect x="1648" y="1408" width="48" height="48" transform="rotate(0,1672,1432)"/><rect x="1696" y="1408" width="48" height="48" transform="rotate(0,1720,1432)"/><rect x="1744" y="1408" width="48" height="48" transform="rotate(0,1768,1432)"/><rect x="1792" y="1408" width="48" height="48" transform="rotate(0,1816,1432)"/><rect x="1840" y="1408" width="48" height="48" transform="rotate(0,1864,1432)"/><rect x="1936" y="1408" width="48" height="48" transform="rotate(0,1960,1432)"/><rect x="16" y="1456" width="48" height="48" transform="rotate(0,40,1480)"/><path d="M 64 1456v 48h 24a 24 24, 0, 0, 0, 0 -48" transform="rotate(0,88,1480)"/><path d="M 208 1456v 48h 48v -24a 24 24, 0, 0, 0, -24 -24" transform="rotate(-90,232,1480)"/><rect x="256" y="1456" width="48" height="48" transform="rotate(0,280,1480)"/><rect x="304" y="1456" width="48" height="48" transform="rotate(0,328,1480)"/><path d="M 352 1456v 48h 48v -24a 24 24, 0, 0, 0, -24 -24" transform="rotate(90,376,1480)"/><circle cx="568" cy="1480" r="24" transform="rotate(0,568,1480)"/><circle cx="760" cy="1480" r="24" transform="rotate(0,760,1480)"/><path d="M 832 1456v 48h 48v -24a 24 24, 0, 0, 0, -24 -24" transform="rotate(-90,856,1480)"/><path d="M 880 1456v 48h 24a 24 24, 0, 0, 0, 0 -48" transform="rotate(0,904,1480)"/><path d="M 976 1456v 48h 48v -24a 24 24, 0, 0, 0, -24 -24" transform="rotate(-90,1000,1480)"/><rect x="1024" y="1456" width="48" height="48" transform="rotate(0,1048,1480)"/><path d="M 1072 1456v 48h 24a 24 24, 0, 0, 0, 0 -48" transform="rotate(0,1096,1480)"/><rect x="1264" y="1456" width="48" height="48" transform="rotate(0,1288,1480)"/><rect x="1360" y="1456" width="48" height="48" transform="rotate(0,1384,1480)"/><path d="M 1408 1456v 48h 24a 24 24, 0, 0, 0, 0 -48" transform="rotate(0,1432,1480)"/><rect x="1504" y="1456" width="48" height="48" transform="rotate(0,1528,1480)"/><rect x="1552" y="1456" width="48" height="48" transform="rotate(0,1576,1480)"/><path d="M 1600 1456v 48h 48v -24a 24 24, 0, 0, 0, -24 -24" transform="rotate(90,1624,1480)"/><rect x="1744" y="1456" width="48" height="48" transform="rotate(0,1768,1480)"/><path d="M 1840 1456v 48h 24a 24 24, 0, 0, 0, 0 -48" transform="rotate(90,1864,1480)"/><path d="M 1936 1456v 48h 24a 24 24, 0, 0, 0, 0 -48" transform="rotate(90,1960,1480)"/><rect x="16" y="1504" width="48" height="48" transform="rotate(0,40,1528)"/><path d="M 160 1504v 48h 24a 24 24, 0, 0, 0, 0 -48" transform="rotate(180,184,1528)"/><rect x="208" y="1504" width="48" height="48" transform="rotate(0,232,1528)"/><path d="M 448 1504v 48h 24a 24 24, 0, 0, 0, 0 -48" transform="rotate(-90,472,1528)"/><circle cx="664" cy="1528" r="24" transform="rotate(0,664,1528)"/><path d="M 784 1504v 48h 48v -24a 24 24, 0, 0, 0, -24 -24" transform="rotate(-90,808,1528)"/><rect x="832" y="1504" width="48" height="48" transform="rotate(0,856,1528)"/><path d="M 976 1504v 48h 48v -24a 24 24, 0, 0, 0, -24 -24" transform="rotate(180,1000,1528)"/><path d="M 1024 1504v 48h 48v -24a 24 24, 0, 0, 0, -24 -24" transform="rotate(90,1048,1528)"/><path d="M 1264 1504v 48h 48v -24a 24 24, 0, 0, 0, -24 -24" transform="rotate(180,1288,1528)"/><rect x="1312" y="1504" width="48" height="48" transform="rotate(0,1336,1528)"/><path d="M 1360 1504v 48h 48v -24a 24 24, 0, 0, 0, -24 -24" transform="rotate(90,1384,1528)"/><path d="M 1456 1504v 48h 24a 24 24, 0, 0, 0, 0 -48" transform="rotate(180,1480,1528)"/><path d="M 1504 1504v 48h 48v -24a 24 24, 0, 0, 0, -24 -24" transform="rotate(90,1528,1528)"/><path d="M 1648 1504v 48h 24a 24 24, 0, 0, 0, 0 -48" transform="rotate(-90,1672,1528)"/><rect x="1744" y="1504" width="48" height="48" transform="rotate(0,1768,1528)"/><path d="M 1792 1504v 48h 24a 24 24, 0, 0, 0, 0 -48" transform="rotate(0,1816,1528)"/><circle cx="1912" cy="1528" r="24" transform="rotate(0,1912,1528)"/><path d="M 16 1552v 48h 24a 24 24, 0, 0, 0, 0 -48" transform="rotate(90,40,1576)"/><path d="M 208 1552v 48h 48v -24a 24 24, 0, 0, 0, -24 -24" transform="rotate(180,232,1576)"/><rect x="256" y="1552" width="48" height="48" transform="rotate(0,280,1576)"/><path d="M 304 1552v 48h 24a 24 24, 0, 0, 0, 0 -48" transform="rotate(0,328,1576)"/><path d="M 448 1552v 48h 24a 24 24, 0, 0, 0, 0 -48" transform="rotate(90,472,1576)"/><circle cx="616" cy="1576" r="24" transform="rotate(0,616,1576)"/><path d="M 784 1552v 48h 48v -24a 24 24, 0, 0, 0, -24 -24" transform="rotate(180,808,1576)"/><rect x="832" y="1552" width="48" height="48" transform="rotate(0,856,1576)"/><path d="M 880 1552v 48h 48v -24a 24 24, 0, 0, 0, -24 -24" transform="rotate(0,904,1576)"/><path d="M 1120 1552v 48h 48v -24a 24 24, 0, 0, 0, -24 -24" transform="rotate(-90,1144,1576)"/><rect x="1168" y="1552" width="48" height="48" transform="rotate(0,1192,1576)"/><path d="M 1216 1552v 48h 24a 24 24, 0, 0, 0, 0 -48" transform="rotate(0,1240,1576)"/><circle cx="1432" cy="1576" r="24" transform="rotate(0,1432,1576)"/><path d="M 1552 1552v 48h 48v -24a 24 24, 0, 0, 0, -24 -24" transform="rotate(-90,1576,1576)"/><rect x="1600" y="1552" width="48" height="48" transform="rotate(0,1624,1576)"/><rect x="1648" y="1552" width="48" height="48" transform="rotate(0,1672,1576)"/><rect x="1696" y="1552" width="48" height="48" transform="rotate(0,1720,1576)"/><rect x="1744" y="1552" width="48" height="48" transform="rotate(0,1768,1576)"/><path d="M 1840 1552v 48h 24a 24 24, 0, 0, 0, 0 -48" transform="rotate(-90,1864,1576)"/><circle cx="424" cy="1624" r="24" transform="rotate(0,424,1624)"/><circle cx="568" cy="1624" r="24" transform="rotate(0,568,1624)"/><path d="M 832 1600v 48h 48v -24a 24 24, 0, 0, 0, -24 -24" transform="rotate(180,856,1624)"/><rect x="880" y="1600" width="48" height="48" transform="rotate(0,904,1624)"/><rect x="928" y="1600" width="48" height="48" transform="rotate(0,952,1624)"/><rect x="976" y="1600" width="48" height="48" transform="rotate(0,1000,1624)"/><rect x="1024" y="1600" width="48" height="48" transform="rotate(0,1048,1624)"/><rect x="1072" y="1600" width="48" height="48" transform="rotate(0,1096,1624)"/><rect x="1120" y="1600" width="48" height="48" transform="rotate(0,1144,1624)"/><path d="M 1168 1600v 48h 48v -24a 24 24, 0, 0, 0, -24 -24" transform="rotate(90,1192,1624)"/><path d="M 1312 1600v 48h 24a 24 24, 0, 0, 0, 0 -48" transform="rotate(-90,1336,1624)"/><path d="M 1456 1600v 48h 24a 24 24, 0, 0, 0, 0 -48" transform="rotate(-90,1480,1624)"/><rect x="1552" y="1600" width="48" height="48" transform="rotate(0,1576,1624)"/><rect x="1744" y="1600" width="48" height="48" transform="rotate(0,1768,1624)"/><rect x="1840" y="1600" width="48" height="48" transform="rotate(0,1864,1624)"/><path d="M 1888 1600v 48h 24a 24 24, 0, 0, 0, 0 -48" transform="rotate(0,1912,1624)"/><path d="M 448 1648v 48h 24a 24 24, 0, 0, 0, 0 -48" transform="rotate(180,472,1672)"/><path d="M 496 1648v 48h 24a 24 24, 0, 0, 0, 0 -48" transform="rotate(0,520,1672)"/><path d="M 592 1648v 48h 24a 24 24, 0, 0, 0, 0 -48" transform="rotate(180,616,1672)"/><path d="M 640 1648v 48h 24a 24 24, 0, 0, 0, 0 -48" transform="rotate(0,664,1672)"/><circle cx="760" cy="1672" r="24" transform="rotate(0,760,1672)"/><path d="M 880 1648v 48h 48v -24a 24 24, 0, 0, 0, -24 -24" transform="rotate(180,904,1672)"/><rect x="928" y="1648" width="48" height="48" transform="rotate(0,952,1672)"/><rect x="976" y="1648" width="48" height="48" transform="rotate(0,1000,1672)"/><rect x="1024" y="1648" width="48" height="48" transform="rotate(0,1048,1672)"/><rect x="1072" y="1648" width="48" height="48" transform="rotate(0,1096,1672)"/><path d="M 1120 1648v 48h 48v -24a 24 24, 0, 0, 0, -24 -24" transform="rotate(90,1144,1672)"/><path d="M 1216 1648v 48h 24a 24 24, 0, 0, 0, 0 -48" transform="rotate(180,1240,1672)"/><rect x="1264" y="1648" width="48" height="48" transform="rotate(0,1288,1672)"/><rect x="1312" y="1648" width="48" height="48" transform="rotate(0,1336,1672)"/><path d="M 1456 1648v 48h 48v -24a 24 24, 0, 0, 0, -24 -24" transform="rotate(180,1480,1672)"/><rect x="1504" y="1648" width="48" height="48" transform="rotate(0,1528,1672)"/><rect x="1552" y="1648" width="48" height="48" transform="rotate(0,1576,1672)"/><circle cx="1672" cy="1672" r="24" transform="rotate(0,1672,1672)"/><rect x="1744" y="1648" width="48" height="48" transform="rotate(0,1768,1672)"/><path d="M 1840 1648v 48h 24a 24 24, 0, 0, 0, 0 -48" transform="rotate(90,1864,1672)"/><circle cx="424" cy="1720" r="24" transform="rotate(0,424,1720)"/><path d="M 784 1696v 48h 48v -24a 24 24, 0, 0, 0, -24 -24" transform="rotate(-90,808,1720)"/><path d="M 832 1696v 48h 24a 24 24, 0, 0, 0, 0 -48" transform="rotate(0,856,1720)"/><rect x="928" y="1696" width="48" height="48" transform="rotate(0,952,1720)"/><rect x="976" y="1696" width="48" height="48" transform="rotate(0,1000,1720)"/><rect x="1312" y="1696" width="48" height="48" transform="rotate(0,1336,1720)"/><rect x="1504" y="1696" width="48" height="48" transform="rotate(0,1528,1720)"/><rect x="1552" y="1696" width="48" height="48" transform="rotate(0,1576,1720)"/><rect x="1744" y="1696" width="48" height="48" transform="rotate(0,1768,1720)"/><path d="M 1792 1696v 48h 48v -24a 24 24, 0, 0, 0, -24 -24" transform="rotate(0,1816,1720)"/><path d="M 1888 1696v 48h 24a 24 24, 0, 0, 0, 0 -48" transform="rotate(-90,1912,1720)"/><path d="M 592 1744v 48h 24a 24 24, 0, 0, 0, 0 -48" transform="rotate(-90,616,1768)"/><rect x="784" y="1744" width="48" height="48" transform="rotate(0,808,1768)"/><rect x="928" y="1744" width="48" height="48" transform="rotate(0,952,1768)"/><rect x="976" y="1744" width="48" height="48" transform="rotate(0,1000,1768)"/><path d="M 1024 1744v 48h 48v -24a 24 24, 0, 0, 0, -24 -24" transform="rotate(0,1048,1768)"/><path d="M 1216 1744v 48h 48v -24a 24 24, 0, 0, 0, -24 -24" transform="rotate(-90,1240,1768)"/><rect x="1264" y="1744" width="48" height="48" transform="rotate(0,1288,1768)"/><rect x="1312" y="1744" width="48" height="48" transform="rotate(0,1336,1768)"/><rect x="1360" y="1744" width="48" height="48" transform="rotate(0,1384,1768)"/><rect x="1408" y="1744" width="48" height="48" transform="rotate(0,1432,1768)"/><rect x="1456" y="1744" width="48" height="48" transform="rotate(0,1480,1768)"/><rect x="1504" y="1744" width="48" height="48" transform="rotate(0,1528,1768)"/><rect x="1552" y="1744" width="48" height="48" transform="rotate(0,1576,1768)"/><rect x="1600" y="1744" width="48" height="48" transform="rotate(0,1624,1768)"/><rect x="1648" y="1744" width="48" height="48" transform="rotate(0,1672,1768)"/><rect x="1696" y="1744" width="48" height="48" transform="rotate(0,1720,1768)"/><rect x="1744" y="1744" width="48" height="48" transform="rotate(0,1768,1768)"/><path d="M 1792 1744v 48h 48v -24a 24 24, 0, 0, 0, -24 -24" transform="rotate(90,1816,1768)"/><rect x="1888" y="1744" width="48" height="48" transform="rotate(0,1912,1768)"/><path d="M 544 1792v 48h 48v -24a 24 24, 0, 0, 0, -24 -24" transform="rotate(-90,568,1816)"/><path d="M 592 1792v 48h 48v -24a 24 24, 0, 0, 0, -24 -24" transform="rotate(90,616,1816)"/><path d="M 688 1792v 48h 24a 24 24, 0, 0, 0, 0 -48" transform="rotate(-90,712,1816)"/><path d="M 784 1792v 48h 24a 24 24, 0, 0, 0, 0 -48" transform="rotate(90,808,1816)"/><path d="M 880 1792v 48h 24a 24 24, 0, 0, 0, 0 -48" transform="rotate(180,904,1816)"/><rect x="928" y="1792" width="48" height="48" transform="rotate(0,952,1816)"/><rect x="976" y="1792" width="48" height="48" transform="rotate(0,1000,1816)"/><rect x="1024" y="1792" width="48" height="48" transform="rotate(0,1048,1816)"/><path d="M 1072 1792v 48h 24a 24 24, 0, 0, 0, 0 -48" transform="rotate(0,1096,1816)"/><path d="M 1168 1792v 48h 24a 24 24, 0, 0, 0, 0 -48" transform="rotate(180,1192,1816)"/><rect x="1216" y="1792" width="48" height="48" transform="rotate(0,1240,1816)"/><rect x="1264" y="1792" width="48" height="48" transform="rotate(0,1288,1816)"/><rect x="1312" y="1792" width="48" height="48" transform="rotate(0,1336,1816)"/><path d="M 1408 1792v 48h 24a 24 24, 0, 0, 0, 0 -48" transform="rotate(90,1432,1816)"/><rect x="1504" y="1792" width="48" height="48" transform="rotate(0,1528,1816)"/><rect x="1552" y="1792" width="48" height="48" transform="rotate(0,1576,1816)"/><rect x="1696" y="1792" width="48" height="48" transform="rotate(0,1720,1816)"/><path d="M 1840 1792v 48h 24a 24 24, 0, 0, 0, 0 -48" transform="rotate(180,1864,1816)"/><rect x="1888" y="1792" width="48" height="48" transform="rotate(0,1912,1816)"/><path d="M 1936 1792v 48h 24a 24 24, 0, 0, 0, 0 -48" transform="rotate(0,1960,1816)"/><path d="M 448 1840v 48h 48v -24a 24 24, 0, 0, 0, -24 -24" transform="rotate(-90,472,1864)"/><rect x="496" y="1840" width="48" height="48" transform="rotate(0,520,1864)"/><rect x="544" y="1840" width="48" height="48" transform="rotate(0,568,1864)"/><path d="M 688 1840v 48h 24a 24 24, 0, 0, 0, 0 -48" transform="rotate(90,712,1864)"/><circle cx="856" cy="1864" r="24" transform="rotate(0,856,1864)"/><path d="M 976 1840v 48h 48v -24a 24 24, 0, 0, 0, -24 -24" transform="rotate(180,1000,1864)"/><path d="M 1024 1840v 48h 48v -24a 24 24, 0, 0, 0, -24 -24" transform="rotate(90,1048,1864)"/><rect x="1216" y="1840" width="48" height="48" transform="rotate(0,1240,1864)"/><path d="M 1312 1840v 48h 48v -24a 24 24, 0, 0, 0, -24 -24" transform="rotate(180,1336,1864)"/><path d="M 1360 1840v 48h 48v -24a 24 24, 0, 0, 0, -24 -24" transform="rotate(0,1384,1864)"/><path d="M 1456 1840v 48h 24a 24 24, 0, 0, 0, 0 -48" transform="rotate(180,1480,1864)"/><rect x="1504" y="1840" width="48" height="48" transform="rotate(0,1528,1864)"/><rect x="1552" y="1840" width="48" height="48" transform="rotate(0,1576,1864)"/><rect x="1600" y="1840" width="48" height="48" transform="rotate(0,1624,1864)"/><rect x="1648" y="1840" width="48" height="48" transform="rotate(0,1672,1864)"/><rect x="1696" y="1840" width="48" height="48" transform="rotate(0,1720,1864)"/><path d="M 1744 1840v 48h 48v -24a 24 24, 0, 0, 0, -24 -24" transform="rotate(0,1768,1864)"/><path d="M 1888 1840v 48h 24a 24 24, 0, 0, 0, 0 -48" transform="rotate(90,1912,1864)"/><rect x="448" y="1888" width="48" height="48" transform="rotate(0,472,1912)"/><rect x="496" y="1888" width="48" height="48" transform="rotate(0,520,1912)"/><rect x="544" y="1888" width="48" height="48" transform="rotate(0,568,1912)"/><rect x="592" y="1888" width="48" height="48" transform="rotate(0,616,1912)"/><path d="M 640 1888v 48h 48v -24a 24 24, 0, 0, 0, -24 -24" transform="rotate(0,664,1912)"/><path d="M 736 1888v 48h 24a 24 24, 0, 0, 0, 0 -48" transform="rotate(-90,760,1912)"/><circle cx="904" cy="1912" r="24" transform="rotate(0,904,1912)"/><path d="M 1072 1888v 48h 24a 24 24, 0, 0, 0, 0 -48" transform="rotate(180,1096,1912)"/><path d="M 1120 1888v 48h 48v -24a 24 24, 0, 0, 0, -24 -24" transform="rotate(0,1144,1912)"/><rect x="1216" y="1888" width="48" height="48" transform="rotate(0,1240,1912)"/><path d="M 1360 1888v 48h 24a 24 24, 0, 0, 0, 0 -48" transform="rotate(90,1384,1912)"/><path d="M 1648 1888v 48h 24a 24 24, 0, 0, 0, 0 -48" transform="rotate(90,1672,1912)"/><rect x="1744" y="1888" width="48" height="48" transform="rotate(0,1768,1912)"/><rect x="1792" y="1888" width="48" height="48" transform="rotate(0,1816,1912)"/><path d="M 1840 1888v 48h 48v -24a 24 24, 0, 0, 0, -24 -24" transform="rotate(0,1864,1912)"/><circle cx="1960" cy="1912" r="24" transform="rotate(0,1960,1912)"/><path d="M 448 1936v 48h 48v -24a 24 24, 0, 0, 0, -24 -24" transform="rotate(180,472,1960)"/><rect x="496" y="1936" width="48" height="48" transform="rotate(0,520,1960)"/><path d="M 544 1936v 48h 48v -24a 24 24, 0, 0, 0, -24 -24" transform="rotate(90,568,1960)"/><path d="M 640 1936v 48h 48v -24a 24 24, 0, 0, 0, -24 -24" transform="rotate(180,664,1960)"/><rect x="688" y="1936" width="48" height="48" transform="rotate(0,712,1960)"/><rect x="736" y="1936" width="48" height="48" transform="rotate(0,760,1960)"/><rect x="784" y="1936" width="48" height="48" transform="rotate(0,808,1960)"/><path d="M 832 1936v 48h 24a 24 24, 0, 0, 0, 0 -48" transform="rotate(0,856,1960)"/><path d="M 928 1936v 48h 24a 24 24, 0, 0, 0, 0 -48" transform="rotate(180,952,1960)"/><path d="M 976 1936v 48h 24a 24 24, 0, 0, 0, 0 -48" transform="rotate(0,1000,1960)"/><path d="M 1120 1936v 48h 24a 24 24, 0, 0, 0, 0 -48" transform="rotate(90,1144,1960)"/><path d="M 1216 1936v 48h 48v -24a 24 24, 0, 0, 0, -24 -24" transform="rotate(180,1240,1960)"/><rect x="1264" y="1936" width="48" height="48" transform="rotate(0,1288,1960)"/><path d="M 1312 1936v 48h 24a 24 24, 0, 0, 0, 0 -48" transform="rotate(0,1336,1960)"/><circle cx="1432" cy="1960" r="24" transform="rotate(0,1432,1960)"/><circle cx="1528" cy="1960" r="24" transform="rotate(0,1528,1960)"/><path d="M 1696 1936v 48h 24a 24 24, 0, 0, 0, 0 -48" transform="rotate(180,1720,1960)"/><path d="M 1744 1936v 48h 48v -24a 24 24, 0, 0, 0, -24 -24" transform="rotate(90,1768,1960)"/><path d="M 1840 1936v 48h 24a 24 24, 0, 0, 0, 0 -48" transform="rotate(90,1864,1960)"/></clipPath><clipPath id="clip-path-corners-square-color-0-0-4"><path clip-rule="evenodd" d="M 16 136v 96a 120 120, 0, 0, 0, 120 120h 96a 120 120, 0, 0, 0, 120 -120v -96a 120 120, 0, 0, 0, -120 -120h -96a 120 120, 0, 0, 0, -120 120M 136 64h 96a 72 72, 0, 0, 1, 72 72v 96a 72 72, 0, 0, 1, -72 72h -96a 72 72, 0, 0, 1, -72 -72v -96a 72 72, 0, 0, 1, 72 -72" transform="rotate(0,184,184)"/></clipPath><clipPath id="clip-path-corners-dot-color-0-0-4"><circle cx="184" cy="184" r="72" transform="rotate(0,184,184)"/></clipPath><clipPath id="clip-path-corners-square-color-1-0-4"><path clip-rule="evenodd" d="M 1648 136v 96a 120 120, 0, 0, 0, 120 120h 96a 120 120, 0, 0, 0, 120 -120v -96a 120 120, 0, 0, 0, -120 -120h -96a 120 120, 0, 0, 0, -120 120M 1768 64h 96a 72 72, 0, 0, 1, 72 72v 96a 72 72, 0, 0, 1, -72 72h -96a 72 72, 0, 0, 1, -72 -72v -96a 72 72, 0, 0, 1, 72 -72" transform="rotate(90,1816,184)"/></clipPath><clipPath id="clip-path-corners-dot-color-1-0-4"><circle cx="1816" cy="184" r="72" transform="rotate(90,1816,184)"/></clipPath><clipPath id="clip-path-corners-square-color-0-1-4"><path clip-rule="evenodd" d="M 16 1768v 96a 120 120, 0, 0, 0, 120 120h 96a 120 120, 0, 0, 0, 120 -120v -96a 120 120, 0, 0, 0, -120 -120h -96a 120 120, 0, 0, 0, -120 120M 136 1696h 96a 72 72, 0, 0, 1, 72 72v 96a 72 72, 0, 0, 1, -72 72h -96a 72 72, 0, 0, 1, -72 -72v -96a 72 72, 0, 0, 1, 72 -72" transform="rotate(-90,184,1816)"/></clipPath><clipPath id="clip-path-corners-dot-color-0-1-4"><circle cx="184" cy="1816" r="72" transform="rotate(-90,184,1816)"/></clipPath></defs><rect x="0" y="0" height="2000" width="2000" clip-path="url('#clip-path-background-color-4')" fill="#1f1f1f"/><rect x="0" y="0" height="2000" width="2000" clip-path="url('#clip-path-dot-color-4')" fill="#2dd4bf"/><rect x="16" y="16" height="336" width="336" clip-path="url('#clip-path-corners-square-color-0-0-4')" fill="#2dd4bf"/><rect x="112" y="112" height="144" width="144" clip-path="url('#clip-path-corners-dot-color-0-0-4')" fill="#ffbd4a"/><rect x="1648" y="16" height="336" width="336" clip-path="url('#clip-path-corners-square-color-1-0-4')" fill="#2dd4bf"/><rect x="1744" y="112" height="144" width="144" clip-path="url('#clip-path-corners-dot-color-1-0-4')" fill="#ffbd4a"/><rect x="16" y="1648" height="336" width="336" clip-path="url('#clip-path-corners-square-color-0-1-4')" fill="#2dd4bf"/><rect x="112" y="1744" height="144" width="144" clip-path="url('#clip-path-corners-dot-color-0-1-4')" fill="#ffbd4a"/></svg>