<?xml version="1.0" standalone="no"?>
<svg xmlns="http://www.w3.org/2000/svg" width="2000" height="2000" xmlns:xlink="http://www.w3.org/1999/xlink" viewBox="0 0 2000 2000"><defs><clipPath id="clip-path-background-color-2"><rect x="0" y="0" width="2000" height="2000"/></clipPath><clipPath id="clip-path-dot-color-2"><path d="M 448 16v 48h 48v -24a 24 24, 0, 0, 0, -24 -24" transform="rotate(-90,472,40)"/><rect x="496" y="16" width="48" height="48" transform="rotate(0,520,40)"/><path d="M 544 16v 48h 48v -24a 24 24, 0, 0, 0, -24 -24" transform="rotate(0,568,40)"/><path d="M 688 16v 48h 24a 24 24, 0, 0, 0, 0 -48" transform="rotate(-90,712,40)"/><path d="M 784 16v 48h 24a 24 24, 0, 0, 0, 0 -48" transform="rotate(-90,808,40)"/><path d="M 880 16v 48h 48v -24a 24 24, 0, 0, 0, -24 -24" transform="rotate(-90,904,40)"/><rect x="928" y="16" width="48" height="48" transform="rotate(0,952,40)"/><rect x="976" y="16" width="48" height="48" transform="rotate(0,1000,40)"/><path d="M 1024 16v 48h 24a 24 24, 0, 0, 0, 0 -48" transform="rotate(0,1048,40)"/><path d="M 1120 16v 48h 48v -24a 24 24, 0, 0, 0, -24 -24" transform="rotate(-90,1144,40)"/><path d="M 1168 16v 48h 48v -24a 24 24, 0, 0, 0, -24 -24" transform="rotate(0,1192,40)"/><path d="M 1264 16v 48h 24a 24 24, 0, 0, 0, 0 -48" transform="rotate(-90,1288,40)"/><path d="M 1408 16v 48h 48v -24a 24 24, 0, 0, 0, -24 -24" transform="rotate(-90,1432,40)"/><path d="M 1456 16v 48h 24a 24 24, 0, 0, 0, 0 -48" transform="rotate(0,1480,40)"/><path d="M 400 64v 48h 48v -24a 24 24, 0, 0, 0, -24 -24" transform="rotate(-90,424,88)"/><rect x="448" y="64" width="48" height="48" transform="rotate(0,472,88)"/><rect x="496" y="64" width="48" height="48" transform="rotate(0,520,88)"/><rect x="544" y="64" width="48" height="48" transform="rotate(0,568,88)"/><path d="M 640 64v 48h 24a 24 24, 0, 0, 0, 0 -48" transform="rotate(180,664,88)"/><path d="M 688 64v 48h 48v -24a 24 24, 0, 0, 0, -24 -24" transform="rotate(90,712,88)"/><path d="M 784 64v 48h 24a 24 24, 0, 0, 0, 0 -48" transform="rotate(90,808,88)"/><path d="M 880 64v 48h 48v -24a 24 24, 0, 0, 0, -24 -24" transform="rotate(180,904,88)"/><rect x="928" y="64" width="48" height="48" transform="rotate(0,952,88)"/><path d="M 1072 64v 48h 48v -24a 24 24, 0, 0, 0, -24 -24" transform="rotate(-90,1096,88)"/><rect x="1120" y="64" width="48" height="48" transform="rotate(0,1144,88)"/><rect x="1168" y="64" width="48" height="48" transform="rotate(0,1192,88)"/><rect x="1216" y="64" width="48" height="48" transform="rotate(0,1240,88)"/><rect x="1264" y="64" width="48" height="48" transform="rotate(0,1288,88)"/><rect x="1408" y="64" width="48" height="48" transform="rotate(0,1432,88)"/><path d="M 1552 64v 48h 24a 24 24, 0, 0, 0, 0 -48" transform="rotate(-90,1576,88)"/><rect x="400" y="112" width="48" height="48" transform="rotate(0,424,136)"/><rect x="496" y="112" width="48" height="48" transform="rotate(0,520,136)"/><path d="M 544 112v 48h 48v -24a 24 24, 0, 0, 0, -24 -24" transform="rotate(90,568,136)"/><path d="M 832 112v 48h 24a 24 24, 0, 0, 0, 0 -48" transform="rotate(-90,856,136)"/><path d="M 928 112v 48h 24a 24 24, 0, 0, 0, 0 -48" transform="rotate(90,952,136)"/><path d="M 1024 112v 48h 24a 24 24, 0, 0, 0, 0 -48" transform="rotate(180,1048,136)"/><path d="M 1072 112v 48h 48v -24a 24 24, 0, 0, 0, -24 -24" transform="rotate(90,1096,136)"/><rect x="1168" y="112" width="48" height="48" transform="rotate(0,1192,136)"/><rect x="1264" y="112" width="48" height="48" transform="rotate(0,1288,136)"/><path d="M 1312 112v 48h 48v -24a 24 24, 0, 0, 0, -24 -24" transform="rotate(0,1336,136)"/><path d="M 1408 112v 48h 48v -24a 24 24, 0, 0, 0, -24 -24" transform="rotate(180,1432,136)"/><rect x="1456" y="112" width="48" height="48" transform="rotate(0,1480,136)"/><rect x="1504" y="112" width="48" height="48" transform="rotate(0,1528,136)"/><path d="M 1552 112v 48h 48v -24a 24 24, 0, 0, 0, -24 -24" transform="rotate(90,1576,136)"/><rect x="400" y="160" width="48" height="48" transform="rotate(0,424,184)"/><rect x="496" y="160" width="48" height="48" transform="rotate(0,520,184)"/><path d="M 688 160v 48h 24a 24 24, 0, 0, 0, 0 -48" transform="rotate(-90,712,184)"/><rect x="832" y="160" width="48" height="48" transform="rotate(0,856,184)"/><circle cx="1000" cy="184" r="24" transform="rotate(0,1000,184)"/><path d="M 1120 160v 48h 24a 24 24, 0, 0, 0, 0 -48" transform="rotate(180,1144,184)"/><rect x="1168" y="160" width="48" height="48" transform="rotate(0,1192,184)"/><rect x="1264" y="160" width="48" height="48" transform="rotate(0,1288,184)"/><path d="M 1312 160v 48h 48v -24a 24 24, 0, 0, 0, -24 -24" transform="rotate(90,1336,184)"/><rect x="400" y="208" width="48" height="48" transform="rotate(0,424,232)"/><rect x="496" y="208" width="48" height="48" transform="rotate(0,520,232)"/><rect x="544" y="208" width="48" height="48" transform="rotate(0,568,232)"/><path d="M 592 208v 48h 24a 24 24, 0, 0, 0, 0 -48" transform="rotate(0,616,232)"/><path d="M 688 208v 48h 24a 24 24, 0, 0, 0, 0 -48" transform="rotate(90,712,232)"/><rect x="832" y="208" width="48" height="48" transform="rotate(0,856,232)"/><rect x="880" y="208" width="48" height="48" transform="rotate(0,904,232)"/><path d="M 928 208v 48h 24a 24 24, 0, 0, 0, 0 -48" transform="rotate(0,952,232)"/><path d="M 1024 208v 48h 24a 24 24, 0, 0, 0, 0 -48" transform="rotate(180,1048,232)"/><path d="M 1072 208v 48h 24a 24 24, 0, 0, 0, 0 -48" transform="rotate(0,1096,232)"/><rect x="1168" y="208" width="48" height="48" transform="rotate(0,1192,232)"/><rect x="1216" y="208" width="48" height="48" transform="rotate(0,1240,232)"/><rect x="1264" y="208" width="48" height="48" transform="rotate(0,1288,232)"/><path d="M 1408 208v 48h 24a 24 24, 0, 0, 0, 0 -48" transform="rotate(180,1432,232)"/><path d="M 1456 208v 48h 48v -24a 24 24, 0, 0, 0, -24 -24" transform="rotate(0,1480,232)"/><path d="M 1552 208v 48h 24a 24 24, 0, 0, 0, 0 -48" transform="rotate(-90,1576,232)"/><rect x="400" y="256" width="48" height="48" transform="rotate(0,424,280)"/><rect x="496" y="256" width="48" height="48" transform="rotate(0,520,280)"/><path d="M 544 256v 48h 48v -24a 24 24, 0, 0, 0, -24 -24" transform="rotate(90,568,280)"/><circle cx="760" cy="280" r="24" transform="rotate(0,760,280)"/><path d="M 832 256v 48h 48v -24a 24 24, 0, 0, 0, -24 -24" transform="rotate(180,856,280)"/><rect x="880" y="256" width="48" height="48" transform="rotate(0,904,280)"/><path d="M 976 256v 48h 24a 24 24, 0, 0, 0, 0 -48" transform="rotate(-90,1000,280)"/><rect x="1168" y="256" width="48" height="48" transform="rotate(0,1192,280)"/><rect x="1264" y="256" width="48" height="48" transform="rotate(0,1288,280)"/><rect x="1456" y="256" width="48" height="48" transform="rotate(0,1480,280)"/><rect x="1552" y="256" width="48" height="48" transform="rotate(0,1576,280)"/><path d="M 400 304v 48h 24a 24 24, 0, 0, 0, 0 -48" transform="rotate(90,424,328)"/><rect x="496" y="304" width="48" height="48" transform="rotate(0,520,328)"/><circle cx="616" cy="328" r="24" transform="rotate(0,616,328)"/><path d="M 688 304v 48h 24a 24 24, 0, 0, 0, 0 -48" transform="rotate(-90,712,328)"/><path d="M 784 304v 48h 24a 24 24, 0, 0, 0, 0 -48" transform="rotate(-90,808,328)"/><rect x="880" y="304" width="48" height="48" transform="rotate(0,904,328)"/><path d="M 976 304v 48h 24a 24 24, 0, 0, 0, 0 -48" transform="rotate(90,1000,328)"/><circle cx="1096" cy="328" r="24" transform="rotate(0,1096,328)"/><rect x="1168" y="304" width="48" height="48" transform="rotate(0,1192,328)"/><path d="M 1264 304v 48h 24a 24 24, 0, 0, 0, 0 -48" transform="rotate(90,1288,328)"/><circle cx="1384" cy="328" r="24" transform="rotate(0,1384,328)"/><path d="M 1456 304v 48h 24a 24 24, 0, 0, 0, 0 -48" transform="rotate(90,1480,328)"/><rect x="1552" y="304" width="48" height="48" transform="rotate(0,1576,328)"/><path d="M 448 352v 48h 24a 24 24, 0, 0, 0, 0 -48" transform="rotate(180,472,376)"/><path d="M 496 352v 48h 48v -24a 24 24, 0, 0, 0, -24 -24" transform="rotate(90,520,376)"/><path d="M 688 352v 48h 24a 24 24, 0, 0, 0, 0 -48" transform="rotate(90,712,376)"/><path d="M 784 352v 48h 24a 24 24, 0, 0, 0, 0 -48" transform="rotate(90,808,376)"/><path d="M 880 352v 48h 24a 24 24, 0, 0, 0, 0 -48" transform="rotate(90,904,376)"/><path d="M 1024 352v 48h 24a 24 24, 0, 0, 0, 0 -48" transform="rotate(-90,1048,376)"/><rect x="1168" y="352" width="48" height="48" transform="rotate(0,1192,376)"/><path d="M 1216 352v 48h 48v -24a 24 24, 0, 0, 0, -24 -24" transform="rotate(0,1240,376)"/><path d="M 1312 352v 48h 24a 24 24, 0, 0, 0, 0 -48" transform="rotate(-90,1336,376)"/><path d="M 1552 352v 48h 24a 24 24, 0, 0, 0, 0 -48" transform="rotate(90,1576,376)"/><circle cx="136" cy="424" r="24" transform="rotate(0,136,424)"/><path d="M 256 400v 48h 24a 24 24, 0, 0, 0, 0 -48" transform="rotate(180,280,424)"/><rect x="304" y="400" width="48" height="48" transform="rotate(0,328,424)"/><rect x="352" y="400" width="48" height="48" transform="rotate(0,376,424)"/><path d="M 400 400v 48h 24a 24 24, 0, 0, 0, 0 -48" transform="rotate(0,424,424)"/><path d="M 640 400v 48h 24a 24 24, 0, 0, 0, 0 -48" transform="rotate(-90,664,424)"/><path d="M 736 400v 48h 24a 24 24, 0, 0, 0, 0 -48" transform="rotate(-90,760,424)"/><path d="M 976 400v 48h 48v -24a 24 24, 0, 0, 0, -24 -24" transform="rotate(-90,1000,424)"/><rect x="1024" y="400" width="48" height="48" transform="rotate(0,1048,424)"/><path d="M 1072 400v 48h 24a 24 24, 0, 0, 0, 0 -48" transform="rotate(0,1096,424)"/><rect x="1168" y="400" width="48" height="48" transform="rotate(0,1192,424)"/><rect x="1216" y="400" width="48" height="48" transform="rotate(0,1240,424)"/><rect x="1264" y="400" width="48" height="48" transform="rotate(0,1288,424)"/><rect x="1312" y="400" width="48" height="48" transform="rotate(0,1336,424)"/><path d="M 1360 400v 48h 48v -24a 24 24, 0, 0, 0, -24 -24" transform="rotate(0,1384,424)"/><path d="M 1504 400v 48h 24a 24 24, 0, 0, 0, 0 -48" transform="rotate(-90,1528,424)"/><path d="M 1600 400v 48h 24a 24 24, 0, 0, 0, 0 -48" transform="rotate(-90,1624,424)"/><path d="M 1696 400v 48h 48v -24a 24 24, 0, 0, 0, -24 -24" transform="rotate(-90,1720,424)"/><rect x="1744" y="400" width="48" height="48" transform="rotate(0,1768,424)"/><rect x="1792" y="400" width="48" height="48" transform="rotate(0,1816,424)"/><rect x="1840" y="400" width="48" height="48" transform="rotate(0,1864,424)"/><path d="M 1888 400v 48h 48v -24a 24 24, 0, 0, 0, -24 -24" transform="rotate(0,1912,424)"/><circle cx="88" cy="472" r="24" transform="rotate(0,88,472)"/><path d="M 208 448v 48h 24a 24 24, 0, 0, 0, 0 -48" transform="rotate(-90,232,472)"/><circle cx="520" cy="472" r="24" transform="rotate(0,520,472)"/><path d="M 592 448v 48h 24a 24 24, 0, 0, 0, 0 -48" transform="rotate(180,616,472)"/><path d="M 640 448v 48h 48v -24a 24 24, 0, 0, 0, -24 -24" transform="rotate(90,664,472)"/><path d="M 736 448v 48h 48v -24a 24 24, 0, 0, 0, -24 -24" transform="rotate(180,760,472)"/><path d="M 784 448v 48h 48v -24a 24 24, 0, 0, 0, -24 -24" transform="rotate(0,808,472)"/><circle cx="904" cy="472" r="24" transform="rotate(0,904,472)"/><rect x="976" y="448" width="48" height="48" transform="rotate(0,1000,472)"/><path d="M 1024 448v 48h 48v -24a 24 24, 0, 0, 0, -24 -24" transform="rotate(90,1048,472)"/><path d="M 1168 448v 48h 48v -24a 24 24, 0, 0, 0, -24 -24" transform="rotate(180,1192,472)"/><rect x="1216" y="448" width="48" height="48" transform="rotate(0,1240,472)"/><rect x="1264" y="448" width="48" height="48" transform="rotate(0,1288,472)"/><rect x="1312" y="448" width="48" height="48" transform="rotate(0,1336,472)"/><rect x="1360" y="448" width="48" height="48" transform="rotate(0,1384,472)"/><rect x="1408" y="448" width="48" height="48" transform="rotate(0,1432,472)"/><rect x="1456" y="448" width="48" height="48" transform="rotate(0,1480,472)"/><rect x="1504" y="448" width="48" height="48" transform="rotate(0,1528,472)"/><rect x="1552" y="448" width="48" height="48" transform="rotate(0,1576,472)"/><rect x="1600" y="448" width="48" height="48" transform="rotate(0,1624,472)"/><rect x="1648" y="448" width="48" height="48" transform="rotate(0,1672,472)"/><path d="M 1696 448v 48h 48v -24a 24 24, 0, 0, 0, -24 -24" transform="rotate(90,1720,472)"/><rect x="1840" y="448" width="48" height="48" transform="rotate(0,1864,472)"/><rect x="1888" y="448" width="48" height="48" transform="rotate(0,1912,472)"/><path d="M 1936 448v 48h 48v -24a 24 24, 0, 0, 0, -24 -24" transform="rotate(0,1960,472)"/><circle cx="40" cy="520" r="24" transform="rotate(0,40,520)"/><circle cx="136" cy="520" r="24" transform="rotate(0,136,520)"/><path d="M 208 496v 48h 24a 24 24, 0, 0, 0, 0 -48" transform="rotate(90,232,520)"/><circle cx="328" cy="520" r="24" transform="rotate(0,328,520)"/><circle cx="472" cy="520" r="24" transform="rotate(0,472,520)"/><path d="M 784 496v 48h 48v -24a 24 24, 0, 0, 0, -24 -24" transform="rotate(180,808,520)"/><path d="M 832 496v 48h 24a 24 24, 0, 0, 0, 0 -48" transform="rotate(0,856,520)"/><rect x="976" y="496" width="48" height="48" transform="rotate(0,1000,520)"/><path d="M 1312 496v 48h 48v -24a 24 24, 0, 0, 0, -24 -24" transform="rotate(180,1336,520)"/><rect x="1360" y="496" width="48" height="48" transform="rotate(0,1384,520)"/><rect x="1504" y="496" width="48" height="48" transform="rotate(0,1528,520)"/><path d="M 1600 496v 48h 48v -24a 24 24, 0, 0, 0, -24 -24" transform="rotate(180,1624,520)"/><rect x="1648" y="496" width="48" height="48" transform="rotate(0,1672,520)"/><path d="M 1792 496v 48h 48v -24a 24 24, 0, 0, 0, -24 -24" transform="rotate(-90,1816,520)"/><rect x="1840" y="496" width="48" height="48" transform="rotate(0,1864,520)"/><rect x="1888" y="496" width="48" height="48" transform="rotate(0,1912,520)"/><rect x="1936" y="496" width="48" height="48" transform="rotate(0,1960,520)"/><circle cx="88" cy="568" r="24" transform="rotate(0,88,568)"/><path d="M 400 544v 48h 24a 24 24, 0, 0, 0, 0 -48" transform="rotate(-90,424,568)"/><path d="M 592 544v 48h 24a 24 24, 0, 0, 0, 0 -48" transform="rotate(-90,616,568)"/><path d="M 928 544v 48h 48v -24a 24 24, 0, 0, 0, -24 -24" transform="rotate(-90,952,568)"/><rect x="976" y="544" width="48" height="48" transform="rotate(0,1000,568)"/><path d="M 1024 544v 48h 24a 24 24, 0, 0, 0, 0 -48" transform="rotate(0,1048,568)"/><path d="M 1360 544v 48h 24a 24 24, 0, 0, 0, 0 -48" transform="rotate(90,1384,568)"/><path d="M 1504 544v 48h 48v -24a 24 24, 0, 0, 0, -24 -24" transform="rotate(180,1528,568)"/><path d="M 1552 544v 48h 48v -24a 24 24, 0, 0, 0, -24 -24" transform="rotate(0,1576,568)"/><rect x="1648" y="544" width="48" height="48" transform="rotate(0,1672,568)"/><path d="M 1792 544v 48h 24a 24 24, 0, 0, 0, 0 -48" transform="rotate(90,1816,568)"/><path d="M 1888 544v 48h 48v -24a 24 24, 0, 0, 0, -24 -24" transform="rotate(180,1912,568)"/><path d="M 1936 544v 48h 48v -24a 24 24, 0, 0, 0, -24 -24" transform="rotate(90,1960,568)"/><path d="M 112 592v 48h 24a 24 24, 0, 0, 0, 0 -48" transform="rotate(180,136,616)"/><path d="M 160 592v 48h 48v -24a 24 24, 0, 0, 0, -24 -24" transform="rotate(0,184,616)"/><circle cx="328" cy="616" r="24" transform="rotate(0,328,616)"/><path d="M 400 592v 48h 48v -24a 24 24, 0, 0, 0, -24 -24" transform="rotate(180,424,616)"/><path d="M 448 592v 48h 48v -24a 24 24, 0, 0, 0, -24 -24" transform="rotate(0,472,616)"/><path d="M 592 592v 48h 24a 24 24, 0, 0, 0, 0 -48" transform="rotate(90,616,616)"/><path d="M 688 592v 48h 24a 24 24, 0, 0, 0, 0 -48" transform="rotate(-90,712,616)"/><path d="M 832 592v 48h 48v -24a 24 24, 0, 0, 0, -24 -24" transform="rotate(-90,856,616)"/><rect x="880" y="592" width="48" height="48" transform="rotate(0,904,616)"/><rect x="928" y="592" width="48" height="48" transform="rotate(0,952,616)"/><path d="M 976 592v 48h 48v -24a 24 24, 0, 0, 0, -24 -24" transform="rotate(90,1000,616)"/><path d="M 1168 592v 48h 24a 24 24, 0, 0, 0, 0 -48" transform="rotate(-90,1192,616)"/><rect x="1552" y="592" width="48" height="48" transform="rotate(0,1576,616)"/><rect x="1648" y="592" width="48" height="48" transform="rotate(0,1672,616)"/><circle cx="88" cy="664" r="24" transform="rotate(0,88,664)"/><rect x="160" y="640" width="48" height="48" transform="rotate(0,184,664)"/><circle cx="280" cy="664" r="24" transform="rotate(0,280,664)"/><path d="M 448 640v 48h 48v -24a 24 24, 0, 0, 0, -24 -24" transform="rotate(180,472,664)"/><path d="M 496 640v 48h 48v -24a 24 24, 0, 0, 0, -24 -24" transform="rotate(0,520,664)"/><rect x="688" y="640" width="48" height="48" transform="rotate(0,712,664)"/><rect x="736" y="640" width="48" height="48" transform="rotate(0,760,664)"/><rect x="784" y="640" width="48" height="48" transform="rotate(0,808,664)"/><rect x="832" y="640" width="48" height="48" transform="rotate(0,856,664)"/><path d="M 1024 640v 48h 48v -24a 24 24, 0, 0, 0, -24 -24" transform="rotate(-90,1048,664)"/><rect x="1072" y="640" width="48" height="48" transform="rotate(0,1096,664)"/><rect x="1120" y="640" width="48" height="48" transform="rotate(0,1144,664)"/><path d="M 1168 640v 48h 48v -24a 24 24, 0, 0, 0, -24 -24" transform="rotate(90,1192,664)"/><circle cx="1288" cy="664" r="24" transform="rotate(0,1288,664)"/><circle cx="1432" cy="664" r="24" transform="rotate(0,1432,664)"/><path d="M 1504 640v 48h 48v -24a 24 24, 0, 0, 0, -24 -24" transform="rotate(-90,1528,664)"/><path d="M 1552 640v 48h 48v -24a 24 24, 0, 0, 0, -24 -24" transform="rotate(90,1576,664)"/><rect x="1648" y="640" width="48" height="48" transform="rotate(0,1672,664)"/><path d="M 1696 640v 48h 24a 24 24, 0, 0, 0, 0 -48" transform="rotate(0,1720,664)"/><path d="M 1792 640v 48h 24a 24 24, 0, 0, 0, 0 -48" transform="rotate(180,1816,664)"/><path d="M 1840 640v 48h 48v -24a 24 24, 0, 0, 0, -24 -24" transform="rotate(0,1864,664)"/><path d="M 1936 640v 48h 24a 24 24, 0, 0, 0, 0 -48" transform="rotate(-90,1960,664)"/><path d="M 112 688v 48h 48v -24a 24 24, 0, 0, 0, -24 -24" transform="rotate(-90,136,712)"/><path d="M 160 688v 48h 48v -24a 24 24, 0, 0, 0, -24 -24" transform="rotate(90,184,712)"/><path d="M 304 688v 48h 24a 24 24, 0, 0, 0, 0 -48" transform="rotate(180,328,712)"/><path d="M 352 688v 48h 24a 24 24, 0, 0, 0, 0 -48" transform="rotate(0,376,712)"/><path d="M 496 688v 48h 24a 24 24, 0, 0, 0, 0 -48" transform="rotate(90,520,712)"/><rect x="688" y="688" width="48" height="48" transform="rotate(0,712,712)"/><rect x="736" y="688" width="48" height="48" transform="rotate(0,760,712)"/><rect x="784" y="688" width="48" height="48" transform="rotate(0,808,712)"/><path d="M 832 688v 48h 48v -24a 24 24, 0, 0, 0, -24 -24" transform="rotate(90,856,712)"/><path d="M 1024 688v 48h 48v -24a 24 24, 0, 0, 0, -24 -24" transform="rotate(180,1048,712)"/><rect x="1072" y="688" width="48" height="48" transform="rotate(0,1096,712)"/><rect x="1120" y="688" width="48" height="48" transform="rotate(0,1144,712)"/><circle cx="1336" cy="712" r="24" transform="rotate(0,1336,712)"/><path d="M 1504 688v 48h 24a 24 24, 0, 0, 0, 0 -48" transform="rotate(90,1528,712)"/><path d="M 1600 688v 48h 48v -24a 24 24, 0, 0, 0, -24 -24" transform="rotate(-90,1624,712)"/><rect x="1648" y="688" width="48" height="48" transform="rotate(0,1672,712)"/><path d="M 1840 688v 48h 24a 24 24, 0, 0, 0, 0 -48" transform="rotate(90,1864,712)"/><path d="M 1936 688v 48h 24a 24 24, 0, 0, 0, 0 -48" transform="rotate(90,1960,712)"/><path d="M 16 736v 48h 48v -24a 24 24, 0, 0, 0, -24 -24" transform="rotate(-90,40,760)"/><rect x="64" y="736" width="48" height="48" transform="rotate(0,88,760)"/><rect x="112" y="736" width="48" height="48" transform="rotate(0,136,760)"/><path d="M 208 736v 48h 48v -24a 24 24, 0, 0, 0, -24 -24" transform="rotate(-90,232,760)"/><path d="M 256 736v 48h 24a 24 24, 0, 0, 0, 0 -48" transform="rotate(0,280,760)"/><path d="M 448 736v 48h 24a 24 24, 0, 0, 0, 0 -48" transform="rotate(-90,472,760)"/><circle cx="568" cy="760" r="24" transform="rotate(0,568,760)"/><path d="M 640 736v 48h 48v -24a 24 24, 0, 0, 0, -24 -24" transform="rotate(-90,664,760)"/><rect x="688" y="736" width="48" height="48" transform="rotate(0,712,760)"/><path d="M 784 736v 48h 24a 24 24, 0, 0, 0, 0 -48" transform="rotate(90,808,760)"/><path d="M 976 736v 48h 24a 24 24, 0, 0, 0, 0 -48" transform="rotate(-90,1000,760)"/><path d="M 1120 736v 48h 24a 24 24, 0, 0, 0, 0 -48" transform="rotate(90,1144,760)"/><circle cx="1288" cy="760" r="24" transform="rotate(0,1288,760)"/><rect x="1600" y="736" width="48" height="48" transform="rotate(0,1624,760)"/><rect x="1648" y="736" width="48" height="48" transform="rotate(0,1672,760)"/><path d="M 1792 736v 48h 24a 24 24, 0, 0, 0, 0 -48" transform="rotate(-90,1816,760)"/><rect x="16" y="784" width="48" height="48" transform="rotate(0,40,808)"/><path d="M 112 784v 48h 24a 24 24, 0, 0, 0, 0 -48" transform="rotate(90,136,808)"/><path d="M 208 784v 48h 24a 24 24, 0, 0, 0, 0 -48" transform="rotate(90,232,808)"/><circle cx="328" cy="808" r="24" transform="rotate(0,328,808)"/><path d="M 400 784v 48h 48v -24a 24 24, 0, 0, 0, -24 -24" transform="rotate(-90,424,808)"/><path d="M 448 784v 48h 48v -24a 24 24, 0, 0, 0, -24 -24" transform="rotate(90,472,808)"/><path d="M 592 784v 48h 48v -24a 24 24, 0, 0, 0, -24 -24" transform="rotate(-90,616,808)"/><rect x="640" y="784" width="48" height="48" transform="rotate(0,664,808)"/><rect x="688" y="784" width="48" height="48" transform="rotate(0,712,808)"/><path d="M 736 784v 48h 24a 24 24, 0, 0, 0, 0 -48" transform="rotate(0,760,808)"/><path d="M 832 784v 48h 24a 24 24, 0, 0, 0, 0 -48" transform="rotate(-90,856,808)"/><path d="M 976 784v 48h 24a 24 24, 0, 0, 0, 0 -48" transform="rotate(90,1000,808)"/><circle cx="1096" cy="808" r="24" transform="rotate(0,1096,808)"/><path d="M 1216 784v 48h 24a 24 24, 0, 0, 0, 0 -48" transform="rotate(-90,1240,808)"/><path d="M 1312 784v 48h 48v -24a 24 24, 0, 0, 0, -24 -24" transform="rotate(-90,1336,808)"/><path d="M 1360 784v 48h 48v -24a 24 24, 0, 0, 0, -24 -24" transform="rotate(0,1384,808)"/><path d="M 1504 784v 48h 48v -24a 24 24, 0, 0, 0, -24 -24" transform="rotate(-90,1528,808)"/><rect x="1552" y="784" width="48" height="48" transform="rotate(0,1576,808)"/><rect x="1600" y="784" width="48" height="48" transform="rotate(0,1624,808)"/><rect x="1648" y="784" width="48" height="48" transform="rotate(0,1672,808)"/><path d="M 1792 784v 48h 24a 24 24, 0, 0, 0, 0 -48" transform="rotate(90,1816,808)"/><path d="M 1936 784v 48h 24a 24 24, 0, 0, 0, 0 -48" transform="rotate(-90,1960,808)"/><path d="M 16 832v 48h 24a 24 24, 0, 0, 0, 0 -48" transform="rotate(90,40,856)"/><path d="M 160 832v 48h 24a 24 24, 0, 0, 0, 0 -48" transform="rotate(-90,184,856)"/><path d="M 256 832v 48h 24a 24 24, 0, 0, 0, 0 -48" transform="rotate(-90,280,856)"/><path d="M 352 832v 48h 48v -24a 24 24, 0, 0, 0, -24 -24" transform="rotate(-90,376,856)"/><rect x="400" y="832" width="48" height="48" transform="rotate(0,424,856)"/><path d="M 496 832v 48h 48v -24a 24 24, 0, 0, 0, -24 -24" transform="rotate(-90,520,856)"/><rect x="544" y="832" width="48" height="48" transform="rotate(0,568,856)"/><rect x="592" y="832" width="48" height="48" transform="rotate(0,616,856)"/><rect x="640" y="832" width="48" height="48" transform="rotate(0,664,856)"/><rect x="688" y="832" width="48" height="48" transform="rotate(0,712,856)"/><path d="M 832 832v 48h 48v -24a 24 24, 0, 0, 0, -24 -24" transform="rotate(180,856,856)"/><path d="M 880 832v 48h 24a 24 24, 0, 0, 0, 0 -48" transform="rotate(0,904,856)"/><path d="M 1024 832v 48h 24a 24 24, 0, 0, 0, 0 -48" transform="rotate(-90,1048,856)"/><path d="M 1120 832v 48h 24a 24 24, 0, 0, 0, 0 -48" transform="rotate(-90,1144,856)"/><rect x="1216" y="832" width="48" height="48" transform="rotate(0,1240,856)"/><rect x="1264" y="832" width="48" height="48" transform="rotate(0,1288,856)"/><rect x="1312" y="832" width="48" height="48" transform="rotate(0,1336,856)"/><rect x="1360" y="832" width="48" height="48" transform="rotate(0,1384,856)"/><path d="M 1408 832v 48h 24a 24 24, 0, 0, 0, 0 -48" transform="rotate(0,1432,856)"/><rect x="1504" y="832" width="48" height="48" transform="rotate(0,1528,856)"/><rect x="1552" y="832" width="48" height="48" transform="rotate(0,1576,856)"/><rect x="1600" y="832" width="48" height="48" transform="rotate(0,1624,856)"/><rect x="1648" y="832" width="48" height="48" transform="rotate(0,1672,856)"/><path d="M 1696 832v 48h 48v -24a 24 24, 0, 0, 0, -24 -24" transform="rotate(0,1720,856)"/><path d="M 1840 832v 48h 24a 24 24, 0, 0, 0, 0 -48" transform="rotate(-90,1864,856)"/><rect x="1936" y="832" width="48" height="48" transform="rotate(0,1960,856)"/><path d="M 64 880v 48h 24a 24 24, 0, 0, 0, 0 -48" transform="rotate(-90,88,904)"/><rect x="160" y="880" width="48" height="48" transform="rotate(0,184,904)"/><rect x="208" y="880" width="48" height="48" transform="rotate(0,232,904)"/><rect x="256" y="880" width="48" height="48" transform="rotate(0,280,904)"/><rect x="304" y="880" width="48" height="48" transform="rotate(0,328,904)"/><rect x="352" y="880" width="48" height="48" transform="rotate(0,376,904)"/><path d="M 400 880v 48h 48v -24a 24 24, 0, 0, 0, -24 -24" transform="rotate(90,424,904)"/><path d="M 496 880v 48h 48v -24a 24 24, 0, 0, 0, -24 -24" transform="rotate(180,520,904)"/><rect x="544" y="880" width="48" height="48" transform="rotate(0,568,904)"/><rect x="592" y="880" width="48" height="48" transform="rotate(0,616,904)"/><rect x="640" y="880" width="48" height="48" transform="rotate(0,664,904)"/><rect x="688" y="880" width="48" height="48" transform="rotate(0,712,904)"/><path d="M 736 880v 48h 24a 24 24, 0, 0, 0, 0 -48" transform="rotate(0,760,904)"/><path d="M 928 880v 48h 48v -24a 24 24, 0, 0, 0, -24 -24" transform="rotate(-90,952,904)"/><rect x="976" y="880" width="48" height="48" transform="rotate(0,1000,904)"/><path d="M 1024 880v 48h 48v -24a 24 24, 0, 0, 0, -24 -24" transform="rotate(90,1048,904)"/><rect x="1120" y="880" width="48" height="48" transform="rotate(0,1144,904)"/><rect x="1168" y="880" width="48" height="48" transform="rotate(0,1192,904)"/><rect x="1216" y="880" width="48" height="48" transform="rotate(0,1240,904)"/><rect x="1264" y="880" width="48" height="48" transform="rotate(0,1288,904)"/><path d="M 1312 880v 48h 48v -24a 24 24, 0, 0, 0, -24 -24" transform="rotate(90,1336,904)"/><path d="M 1504 880v 48h 48v -24a 24 24, 0, 0, 0, -24 -24" transform="rotate(180,1528,904)"/><rect x="1552" y="880" width="48" height="48" transform="rotate(0,1576,904)"/><rect x="1600" y="880" width="48" height="48" transform="rotate(0,1624,904)"/><rect x="1648" y="880" width="48" height="48" transform="rotate(0,1672,904)"/><rect x="1696" y="880" width="48" height="48" transform="rotate(0,1720,904)"/><path d="M 1744 880v 48h 24a 24 24, 0, 0, 0, 0 -48" transform="rotate(0,1768,904)"/><path d="M 1840 880v 48h 24a 24 24, 0, 0, 0, 0 -48" transform="rotate(90,1864,904)"/><path d="M 1936 880v 48h 24a 24 24, 0, 0, 0, 0 -48" transform="rotate(90,1960,904)"/><path d="M 16 928v 48h 24a 24 24, 0, 0, 0, 0 -48" transform="rotate(180,40,952)"/><path d="M 64 928v 48h 48v -24a 24 24, 0, 0, 0, -24 -24" transform="rotate(90,88,952)"/><rect x="160" y="928" width="48" height="48" transform="rotate(0,184,952)"/><circle cx="472" cy="952" r="24" transform="rotate(0,472,952)"/><circle cx="808" cy="952" r="24" transform="rotate(0,808,952)"/><path d="M 880 928v 48h 48v -24a 24 24, 0, 0, 0, -24 -24" transform="rotate(-90,904,952)"/><path d="M 928 928v 48h 48v -24a 24 24, 0, 0, 0, -24 -24" transform="rotate(90,952,952)"/><rect x="1120" y="928" width="48" height="48" transform="rotate(0,1144,952)"/><rect x="1168" y="928" width="48" height="48" transform="rotate(0,1192,952)"/><path d="M 1408 928v 48h 24a 24 24, 0, 0, 0, 0 -48" transform="rotate(-90,1432,952)"/><path d="M 1600 928v 48h 48v -24a 24 24, 0, 0, 0, -24 -24" transform="rotate(180,1624,952)"/><rect x="1648" y="928" width="48" height="48" transform="rotate(0,1672,952)"/><circle cx="1816" cy="952" r="24" transform="rotate(0,1816,952)"/><circle cx="1912" cy="952" r="24" transform="rotate(0,1912,952)"/><path d="M 160 976v 48h 48v -24a 24 24, 0, 0, 0, -24 -24" transform="rotate(180,184,1000)"/><path d="M 208 976v 48h 24a 24 24, 0, 0, 0, 0 -48" transform="rotate(0,232,1000)"/><circle cx="328" cy="1000" r="24" transform="rotate(0,328,1000)"/><path d="M 400 976v 48h 24a 24 24, 0, 0, 0, 0 -48" transform="rotate(-90,424,1000)"/><circle cx="520" cy="1000" r="24" transform="rotate(0,520,1000)"/><path d="M 640 976v 48h 24a 24 24, 0, 0, 0, 0 -48" transform="rotate(-90,664,1000)"/><path d="M 736 976v 48h 24a 24 24, 0, 0, 0, 0 -48" transform="rotate(-90,760,1000)"/><path d="M 880 976v 48h 24a 24 24, 0, 0, 0, 0 -48" transform="rotate(90,904,1000)"/><path d="M 1024 976v 48h 24a 24 24, 0, 0, 0, 0 -48" transform="rotate(-90,1048,1000)"/><rect x="1120" y="976" width="48" height="48" transform="rotate(0,1144,1000)"/><rect x="1168" y="976" width="48" height="48" transform="rotate(0,1192,1000)"/><path d="M 1408 976v 48h 24a 24 24, 0, 0, 0, 0 -48" transform="rotate(90,1432,1000)"/><path d="M 1552 976v 48h 24a 24 24, 0, 0, 0, 0 -48" transform="rotate(-90,1576,1000)"/><rect x="1648" y="976" width="48" height="48" transform="rotate(0,1672,1000)"/><path d="M 1696 976v 48h 48v -24a 24 24, 0, 0, 0, -24 -24" transform="rotate(0,1720,1000)"/><path d="M 1936 976v 48h 24a 24 24, 0, 0, 0, 0 -48" transform="rotate(-90,1960,1000)"/><path d="M 64 1024v 48h 48v -24a 24 24, 0, 0, 0, -24 -24" transform="rotate(-90,88,1048)"/><path d="M 112 1024v 48h 48v -24a 24 24, 0, 0, 0, -24 -24" transform="rotate(0,136,1048)"/><path d="M 352 1024v 48h 24a 24 24, 0, 0, 0, 0 -48" transform="rotate(180,376,1048)"/><path d="M 400 1024v 48h 48v -24a 24 24, 0, 0, 0, -24 -24" transform="rotate(90,424,1048)"/><path d="M 592 1024v 48h 48v -24a 24 24, 0, 0, 0, -24 -24" transform="rotate(-90,616,1048)"/><rect x="640" y="1024" width="48" height="48" transform="rotate(0,664,1048)"/><rect x="688" y="1024" width="48" height="48" transform="rotate(0,712,1048)"/><rect x="736" y="1024" width="48" height="48" transform="rotate(0,760,1048)"/><rect x="784" y="1024" width="48" height="48" transform="rotate(0,808,1048)"/><path d="M 832 1024v 48h 48v -24a 24 24, 0, 0, 0, -24 -24" transform="rotate(0,856,1048)"/><path d="M 928 1024v 48h 48v -24a 24 24, 0, 0, 0, -24 -24" transform="rotate(-90,952,1048)"/><rect x="976" y="1024" width="48" height="48" transform="rotate(0,1000,1048)"/><path d="M 1024 1024v 48h 48v -24a 24 24, 0, 0, 0, -24 -24" transform="rotate(90,1048,1048)"/><path d="M 1120 1024v 48h 48v -24a 24 24, 0, 0, 0, -24 -24" transform="rotate(180,1144,1048)"/><rect x="1168" y="1024" width="48" height="48" transform="rotate(0,1192,1048)"/><path d="M 1312 1024v 48h 48v -24a 24 24, 0, 0, 0, -24 -24" transform="rotate(-90,1336,1048)"/><path d="M 1360 1024v 48h 24a 24 24, 0, 0, 0, 0 -48" transform="rotate(0,1384,1048)"/><path d="M 1504 1024v 48h 48v -24a 24 24, 0, 0, 0, -24 -24" transform="rotate(-90,1528,1048)"/><path d="M 1552 1024v 48h 48v -24a 24 24, 0, 0, 0, -24 -24" transform="rotate(90,1576,1048)"/><rect x="1648" y="1024" width="48" height="48" transform="rotate(0,1672,1048)"/><rect x="1696" y="1024" width="48" height="48" transform="rotate(0,1720,1048)"/><rect x="1936" y="1024" width="48" height="48" transform="rotate(0,1960,1048)"/><path d="M 64 1072v 48h 48v -24a 24 24, 0, 0, 0, -24 -24" transform="rotate(180,88,1096)"/><rect x="112" y="1072" width="48" height="48" transform="rotate(0,136,1096)"/><path d="M 160 1072v 48h 48v -24a 24 24, 0, 0, 0, -24 -24" transform="rotate(0,184,1096)"/><path d="M 256 1072v 48h 48v -24a 24 24, 0, 0, 0, -24 -24" transform="rotate(-90,280,1096)"/><path d="M 304 1072v 48h 24a 24 24, 0, 0, 0, 0 -48" transform="rotate(0,328,1096)"/><rect x="592" y="1072" width="48" height="48" transform="rotate(0,616,1096)"/><rect x="688" y="1072" width="48" height="48" transform="rotate(0,712,1096)"/><path d="M 832 1072v 48h 48v -24a 24 24, 0, 0, 0, -24 -24" transform="rotate(180,856,1096)"/><rect x="880" y="1072" width="48" height="48" transform="rotate(0,904,1096)"/><path d="M 928 1072v 48h 48v -24a 24 24, 0, 0, 0, -24 -24" transform="rotate(90,952,1096)"/><circle cx="1096" cy="1096" r="24" transform="rotate(0,1096,1096)"/><rect x="1168" y="1072" width="48" height="48" transform="rotate(0,1192,1096)"/><path d="M 1216 1072v 48h 48v -24a 24 24, 0, 0, 0, -24 -24" transform="rotate(0,1240,1096)"/><rect x="1312" y="1072" width="48" height="48" transform="rotate(0,1336,1096)"/><path d="M 1456 1072v 48h 24a 24 24, 0, 0, 0, 0 -48" transform="rotate(180,1480,1096)"/><rect x="1504" y="1072" width="48" height="48" transform="rotate(0,1528,1096)"/><path d="M 1648 1072v 48h 48v -24a 24 24, 0, 0, 0, -24 -24" transform="rotate(180,1672,1096)"/><rect x="1696" y="1072" width="48" height="48" transform="rotate(0,1720,1096)"/><rect x="1744" y="1072" width="48" height="48" transform="rotate(0,1768,1096)"/><rect x="1792" y="1072" width="48" height="48" transform="rotate(0,1816,1096)"/><path d="M 1840 1072v 48h 24a 24 24, 0, 0, 0, 0 -48" transform="rotate(0,1864,1096)"/><path d="M 1936 1072v 48h 24a 24 24, 0, 0, 0, 0 -48" transform="rotate(90,1960,1096)"/><path d="M 160 1120v 48h 48v -24a 24 24, 0, 0, 0, -24 -24" transform="rotate(180,184,1144)"/><rect x="208" y="1120" width="48" height="48" transform="rotate(0,232,1144)"/><rect x="256" y="1120" width="48" height="48" transform="rotate(0,280,1144)"/><circle cx="376" cy="1144" r="24" transform="rotate(0,376,1144)"/><path d="M 448 1120v 48h 48v -24a 24 24, 0, 0, 0, -24 -24" transform="rotate(-90,472,1144)"/><rect x="496" y="1120" width="48" height="48" transform="rotate(0,520,1144)"/><rect x="544" y="1120" width="48" height="48" transform="rotate(0,568,1144)"/><rect x="592" y="1120" width="48" height="48" transform="rotate(0,616,1144)"/><rect x="640" y="1120" width="48" height="48" transform="rotate(0,664,1144)"/><rect x="688" y="1120" width="48" height="48" transform="rotate(0,712,1144)"/><rect x="880" y="1120" width="48" height="48" transform="rotate(0,904,1144)"/><path d="M 976 1120v 48h 48v -24a 24 24, 0, 0, 0, -24 -24" transform="rotate(-90,1000,1144)"/><path d="M 1024 1120v 48h 24a 24 24, 0, 0, 0, 0 -48" transform="rotate(0,1048,1144)"/><path d="M 1168 1120v 48h 48v -24a 24 24, 0, 0, 0, -24 -24" transform="rotate(180,1192,1144)"/><rect x="1216" y="1120" width="48" height="48" transform="rotate(0,1240,1144)"/><path d="M 1312 1120v 48h 48v -24a 24 24, 0, 0, 0, -24 -24" transform="rotate(180,1336,1144)"/><path d="M 1360 1120v 48h 48v -24a 24 24, 0, 0, 0, -24 -24" transform="rotate(0,1384,1144)"/><rect x="1504" y="1120" width="48" height="48" transform="rotate(0,1528,1144)"/><path d="M 1552 1120v 48h 48v -24a 24 24, 0, 0, 0, -24 -24" transform="rotate(0,1576,1144)"/><rect x="1696" y="1120" width="48" height="48" transform="rotate(0,1720,1144)"/><rect x="1792" y="1120" width="48" height="48" transform="rotate(0,1816,1144)"/><circle cx="1912" cy="1144" r="24" transform="rotate(0,1912,1144)"/><circle cx="88" cy="1192" r="24" transform="rotate(0,88,1192)"/><path d="M 208 1168v 48h 48v -24a 24 24, 0, 0, 0, -24 -24" transform="rotate(180,232,1192)"/><rect x="256" y="1168" width="48" height="48" transform="rotate(0,280,1192)"/><path d="M 304 1168v 48h 24a 24 24, 0, 0, 0, 0 -48" transform="rotate(0,328,1192)"/><rect x="448" y="1168" width="48" height="48" transform="rotate(0,472,1192)"/><rect x="496" y="1168" width="48" height="48" transform="rotate(0,520,1192)"/><path d="M 544 1168v 48h 48v -24a 24 24, 0, 0, 0, -24 -24" transform="rotate(90,568,1192)"/><path d="M 640 1168v 48h 48v -24a 24 24, 0, 0, 0, -24 -24" transform="rotate(180,664,1192)"/><rect x="688" y="1168" width="48" height="48" transform="rotate(0,712,1192)"/><path d="M 880 1168v 48h 24a 24 24, 0, 0, 0, 0 -48" transform="rotate(90,904,1192)"/><path d="M 976 1168v 48h 24a 24 24, 0, 0, 0, 0 -48" transform="rotate(90,1000,1192)"/><path d="M 1072 1168v 48h 24a 24 24, 0, 0, 0, 0 -48" transform="rotate(-90,1096,1192)"/><path d="M 1216 1168v 48h 24a 24 24, 0, 0, 0, 0 -48" transform="rotate(90,1240,1192)"/><rect x="1360" y="1168" width="48" height="48" transform="rotate(0,1384,1192)"/><rect x="1504" y="1168" width="48" height="48" transform="rotate(0,1528,1192)"/><rect x="1552" y="1168" width="48" height="48" transform="rotate(0,1576,1192)"/><rect x="1600" y="1168" width="48" height="48" transform="rotate(0,1624,1192)"/><rect x="1648" y="1168" width="48" height="48" transform="rotate(0,1672,1192)"/><rect x="1696" y="1168" width="48" height="48" transform="rotate(0,1720,1192)"/><rect x="1792" y="1168" width="48" height="48" transform="rotate(0,1816,1192)"/><circle cx="1960" cy="1192" r="24" transform="rotate(0,1960,1192)"/><circle cx="40" cy="1240" r="24" transform="rotate(0,40,1240)"/><path d="M 112 1216v 48h 24a 24 24, 0, 0, 0, 0 -48" transform="rotate(-90,136,1240)"/><path d="M 352 1216v 48h 24a 24 24, 0, 0, 0, 0 -48" transform="rotate(180,376,1240)"/><rect x="400" y="1216" width="48" height="48" transform="rotate(0,424,1240)"/><rect x="448" y="1216" width="48" height="48" transform="rotate(0,472,1240)"/><rect x="496" y="1216" width="48" height="48" transform="rotate(0,520,1240)"/><path d="M 688 1216v 48h 48v -24a 24 24, 0, 0, 0, -24 -24" transform="rotate(180,712,1240)"/><rect x="736" y="1216" width="48" height="48" transform="rotate(0,760,1240)"/><rect x="784" y="1216" width="48" height="48" transform="rotate(0,808,1240)"/><path d="M 832 1216v 48h 48v -24a 24 24, 0, 0, 0, -24 -24" transform="rotate(0,856,1240)"/><rect x="1072" y="1216" width="48" height="48" transform="rotate(0,1096,1240)"/><rect x="1120" y="1216" width="48" height="48" transform="rotate(0,1144,1240)"/><path d="M 1168 1216v 48h 48v -24a 24 24, 0, 0, 0, -24 -24" transform="rotate(0,1192,1240)"/><path d="M 1312 1216v 48h 48v -24a 24 24, 0, 0, 0, -24 -24" transform="rotate(-90,1336,1240)"/><rect x="1360" y="1216" width="48" height="48" transform="rotate(0,1384,1240)"/><path d="M 1408 1216v 48h 48v -24a 24 24, 0, 0, 0, -24 -24" transform="rotate(0,1432,1240)"/><rect x="1504" y="1216" width="48" height="48" transform="rotate(0,1528,1240)"/><rect x="1648" y="1216" width="48" height="48" transform="rotate(0,1672,1240)"/><path d="M 1696 1216v 48h 48v -24a 24 24, 0, 0, 0, -24 -24" transform="rotate(90,1720,1240)"/><rect x="1792" y="1216" width="48" height="48" transform="rotate(0,1816,1240)"/><circle cx="1912" cy="1240" r="24" transform="rotate(0,1912,1240)"/><rect x="112" y="1264" width="48" height="48" transform="rotate(0,136,1288)"/><circle cx="328" cy="1288" r="24" transform="rotate(0,328,1288)"/><rect x="400" y="1264" width="48" height="48" transform="rotate(0,424,1288)"/><path d="M 496 1264v 48h 24a 24 24, 0, 0, 0, 0 -48" transform="rotate(90,520,1288)"/><path d="M 640 1264v 48h 24a 24 24, 0, 0, 0, 0 -48" transform="rotate(-90,664,1288)"/><path d="M 736 1264v 48h 48v -24a 24 24, 0, 0, 0, -24 -24" transform="rotate(180,760,1288)"/><rect x="784" y="1264" width="48" height="48" transform="rotate(0,808,1288)"/><rect x="832" y="1264" width="48" height="48" transform="rotate(0,856,1288)"/><path d="M 928 1264v 48h 48v -24a 24 24, 0, 0, 0, -24 -24" transform="rotate(-90,952,1288)"/><path d="M 976 1264v 48h 24a 24 24, 0, 0, 0, 0 -48" transform="rotate(0,1000,1288)"/><rect x="1072" y="1264" width="48" height="48" transform="rotate(0,1096,1288)"/><rect x="1168" y="1264" width="48" height="48" transform="rotate(0,1192,1288)"/><path d="M 1264 1264v 48h 24a 24 24, 0, 0, 0, 0 -48" transform="rotate(180,1288,1288)"/><rect x="1312" y="1264" width="48" height="48" transform="rotate(0,1336,1288)"/><rect x="1360" y="1264" width="48" height="48" transform="rotate(0,1384,1288)"/><path d="M 1408 1264v 48h 48v -24a 24 24, 0, 0, 0, -24 -24" transform="rotate(90,1432,1288)"/><rect x="1504" y="1264" width="48" height="48" transform="rotate(0,1528,1288)"/><path d="M 1600 1264v 48h 48v -24a 24 24, 0, 0, 0, -24 -24" transform="rotate(-90,1624,1288)"/><path d="M 1648 1264v 48h 48v -24a 24 24, 0, 0, 0, -24 -24" transform="rotate(90,1672,1288)"/><path d="M 1744 1264v 48h 24a 24 24, 0, 0, 0, 0 -48" transform="rotate(180,1768,1288)"/><rect x="1792" y="1264" width="48" height="48" transform="rotate(0,1816,1288)"/><path d="M 1840 1264v 48h 24a 24 24, 0, 0, 0, 0 -48" transform="rotate(0,1864,1288)"/><circle cx="1960" cy="1288" r="24" transform="rotate(0,1960,1288)"/><path d="M 64 1312v 48h 48v -24a 24 24, 0, 0, 0, -24 -24" transform="rotate(-90,88,1336)"/><rect x="112" y="1312" width="48" height="48" transform="rotate(0,136,1336)"/><path d="M 160 1312v 48h 48v -24a 24 24, 0, 0, 0, -24 -24" transform="rotate(0,184,1336)"/><path d="M 352 1312v 48h 24a 24 24, 0, 0, 0, 0 -48" transform="rotate(180,376,1336)"/><rect x="400" y="1312" width="48" height="48" transform="rotate(0,424,1336)"/><circle cx="568" cy="1336" r="24" transform="rotate(0,568,1336)"/><rect x="640" y="1312" width="48" height="48" transform="rotate(0,664,1336)"/><path d="M 688 1312v 48h 48v -24a 24 24, 0, 0, 0, -24 -24" transform="rotate(0,712,1336)"/><path d="M 784 1312v 48h 48v -24a 24 24, 0, 0, 0, -24 -24" transform="rotate(180,808,1336)"/><rect x="832" y="1312" width="48" height="48" transform="rotate(0,856,1336)"/><rect x="880" y="1312" width="48" height="48" transform="rotate(0,904,1336)"/><path d="M 928 1312v 48h 48v -24a 24 24, 0, 0, 0, -24 -24" transform="rotate(90,952,1336)"/><path d="M 1024 1312v 48h 48v -24a 24 24, 0, 0, 0, -24 -24" transform="rotate(-90,1048,1336)"/><path d="M 1072 1312v 48h 48v -24a 24 24, 0, 0, 0, -24 -24" transform="rotate(90,1096,1336)"/><rect x="1168" y="1312" width="48" height="48" transform="rotate(0,1192,1336)"/><path d="M 1216 1312v 48h 48v -24a 24 24, 0, 0, 0, -24 -24" transform="rotate(0,1240,1336)"/><rect x="1360" y="1312" width="48" height="48" transform="rotate(0,1384,1336)"/><path d="M 1504 1312v 48h 48v -24a 24 24, 0, 0, 0, -24 -24" transform="rotate(180,1528,1336)"/><rect x="1552" y="1312" width="48" height="48" transform="rotate(0,1576,1336)"/><path d="M 1600 1312v 48h 48v -24a 24 24, 0, 0, 0, -24 -24" transform="rotate(90,1624,1336)"/><circle cx="1720" cy="1336" r="24" transform="rotate(0,1720,1336)"/><path d="M 1792 1312v 48h 24a 24 24, 0, 0, 0, 0 -48" transform="rotate(90,1816,1336)"/><path d="M 16 1360v 48h 24a 24 24, 0, 0, 0, 0 -48" transform="rotate(180,40,1384)"/><rect x="64" y="1360" width="48" height="48" transform="rotate(0,88,1384)"/><path d="M 160 1360v 48h 24a 24 24, 0, 0, 0, 0 -48" transform="rotate(90,184,1384)"/><path d="M 256 1360v 48h 48v -24a 24 24, 0, 0, 0, -24 -24" transform="rotate(-90,280,1384)"/><path d="M 304 1360v 48h 24a 24 24, 0, 0, 0, 0 -48" transform="rotate(0,328,1384)"/><path d="M 400 1360v 48h 24a 24 24, 0, 0, 0, 0 -48" transform="rotate(90,424,1384)"/><circle cx="520" cy="1384" r="24" transform="rotate(0,520,1384)"/><path d="M 592 1360v 48h 48v -24a 24 24, 0, 0, 0, -24 -24" transform="rotate(-90,616,1384)"/><rect x="640" y="1360" width="48" height="48" transform="rotate(0,664,1384)"/><rect x="688" y="1360" width="48" height="48" transform="rotate(0,712,1384)"/><rect x="880" y="1360" width="48" height="48" transform="rotate(0,904,1384)"/><rect x="1024" y="1360" width="48" height="48" transform="rotate(0,1048,1384)"/><path d="M 1120 1360v 48h 24a 24 24, 0, 0, 0, 0 -48" transform="rotate(180,1144,1384)"/><rect x="1168" y="1360" width="48" height="48" transform="rotate(0,1192,1384)"/><rect x="1216" y="1360" width="48" height="48" transform="rotate(0,1240,1384)"/><path d="M 1264 1360v 48h 48v -24a 24 24, 0, 0, 0, -24 -24" transform="rotate(0,1288,1384)"/><rect x="1360" y="1360" width="48" height="48" transform="rotate(0,1384,1384)"/><rect x="1552" y="1360" width="48" height="48" transform="rotate(0,1576,1384)"/><path d="M 1648 1360v 48h 24a 24 24, 0, 0, 0, 0 -48" transform="rotate(-90,1672,1384)"/><rect x="64" y="1408" width="48" height="48" transform="rotate(0,88,1432)"/><path d="M 112 1408v 48h 24a 24 24, 0, 0, 0, 0 -48" transform="rotate(0,136,1432)"/><rect x="256" y="1408" width="48" height="48" transform="rotate(0,280,1432)"/><path d="M 352 1408v 48h 24a 24 24, 0, 0, 0, 0 -48" transform="rotate(-90,376,1432)"/><circle cx="472" cy="1432" r="24" transform="rotate(0,472,1432)"/><path d="M 544 1408v 48h 48v -24a 24 24, 0, 0, 0, -24 -24" transform="rotate(-90,568,1432)"/><rect x="592" y="1408" width="48" height="48" transform="rotate(0,616,1432)"/><path d="M 688 1408v 48h 48v -24a 24 24, 0, 0, 0, -24 -24" transform="rotate(180,712,1432)"/><rect x="736" y="1408" width="48" height="48" transform="rotate(0,760,1432)"/><path d="M 784 1408v 48h 48v -24a 24 24, 0, 0, 0, -24 -24" transform="rotate(0,808,1432)"/><rect x="880" y="1408" width="48" height="48" transform="rotate(0,904,1432)"/><rect x="1024" y="1408" width="48" height="48" transform="rotate(0,1048,1432)"/><path d="M 1168 1408v 48h 24a 24 24, 0, 0, 0, 0 -48" transform="rotate(90,1192,1432)"/><rect x="1264" y="1408" width="48" height="48" transform="rotate(0,1288,1432)"/><rect x="1360" y="1408" width="48" height="48" transform="rotate(0,1384,1432)"/><path d="M 1504 1408v 48h 48v -24a 24 24, 0, 0, 0, -24 -24" transform="rotate(-90,1528,1432)"/><path d="M 1552 1408v 48h 48v -24a 24 24, 0, 0, 0, -24 -24" transform="rotate(90,1576,1432)"/><path d="M 1648 1408v 48h 48v -24a 24 24, 0, 0, 0, -24 -24" transform="rotate(180,1672,1432)"/><path d="M 1696 1408v 48h 24a 24 24, 0, 0, 0, 0 -48" transform="rotate(0,1720,1432)"/><path d="M 1792 1408v 48h 24a 24 24, 0, 0, 0, 0 -48" transform="rotate(180,1816,1432)"/><path d="M 1840 1408v 48h 48v -24a 24 24, 0, 0, 0, -24 -24" transform="rotate(0,1864,1432)"/><path d="M 1936 1408v 48h 24a 24 24, 0, 0, 0, 0 -48" transform="rotate(-90,1960,1432)"/><path d="M 16 1456v 48h 24a 24 24, 0, 0, 0, 0 -48" transform="rotate(180,40,1480)"/><path d="M 64 1456v 48h 48v -24a 24 24, 0, 0, 0, -24 -24" transform="rotate(90,88,1480)"/><path d="M 208 1456v 48h 48v -24a 24 24, 0, 0, 0, -24 -24" transform="rotate(-90,232,1480)"/><rect x="256" y="1456" width="48" height="48" transform="rotate(0,280,1480)"/><rect x="304" y="1456" width="48" height="48" transform="rotate(0,328,1480)"/><path d="M 352 1456v 48h 48v -24a 24 24, 0, 0, 0, -24 -24" transform="rotate(90,376,1480)"/><path d="M 544 1456v 48h 48v -24a 24 24, 0, 0, 0, -24 -24" transform="rotate(180,568,1480)"/><rect x="592" y="1456" width="48" height="48" transform="rotate(0,616,1480)"/><path d="M 784 1456v 48h 48v -24a 24 24, 0, 0, 0, -24 -24" transform="rotate(180,808,1480)"/><rect x="832" y="1456" width="48" height="48" transform="rotate(0,856,1480)"/><rect x="880" y="1456" width="48" height="48" transform="rotate(0,904,1480)"/><rect x="1024" y="1456" width="48" height="48" transform="rotate(0,1048,1480)"/><rect x="1072" y="1456" width="48" height="48" transform="rotate(0,1096,1480)"/><path d="M 1120 1456v 48h 48v -24a 24 24, 0, 0, 0, -24 -24" transform="rotate(0,1144,1480)"/><rect x="1264" y="1456" width="48" height="48" transform="rotate(0,1288,1480)"/><rect x="1360" y="1456" width="48" height="48" transform="rotate(0,1384,1480)"/><path d="M 1408 1456v 48h 24a 24 24, 0, 0, 0, 0 -48" transform="rotate(0,1432,1480)"/><rect x="1504" y="1456" width="48" height="48" transform="rotate(0,1528,1480)"/><circle cx="1624" cy="1480" r="24" transform="rotate(0,1624,1480)"/><circle cx="1768" cy="1480" r="24" transform="rotate(0,1768,1480)"/><path d="M 1840 1456v 48h 24a 24 24, 0, 0, 0, 0 -48" transform="rotate(90,1864,1480)"/><path d="M 1936 1456v 48h 24a 24 24, 0, 0, 0, 0 -48" transform="rotate(90,1960,1480)"/><path d="M 160 1504v 48h 24a 24 24, 0, 0, 0, 0 -48" transform="rotate(180,184,1528)"/><path d="M 208 1504v 48h 48v -24a 24 24, 0, 0, 0, -24 -24" transform="rotate(90,232,1528)"/><path d="M 448 1504v 48h 24a 24 24, 0, 0, 0, 0 -48" transform="rotate(-90,472,1528)"/><rect x="592" y="1504" width="48" height="48" transform="rotate(0,616,1528)"/><path d="M 640 1504v 48h 48v -24a 24 24, 0, 0, 0, -24 -24" transform="rotate(0,664,1528)"/><path d="M 736 1504v 48h 24a 24 24, 0, 0, 0, 0 -48" transform="rotate(-90,760,1528)"/><path d="M 832 1504v 48h 48v -24a 24 24, 0, 0, 0, -24 -24" transform="rotate(180,856,1528)"/><rect x="880" y="1504" width="48" height="48" transform="rotate(0,904,1528)"/><path d="M 1024 1504v 48h 24a 24 24, 0, 0, 0, 0 -48" transform="rotate(90,1048,1528)"/><path d="M 1120 1504v 48h 24a 24 24, 0, 0, 0, 0 -48" transform="rotate(90,1144,1528)"/><rect x="1264" y="1504" width="48" height="48" transform="rotate(0,1288,1528)"/><rect x="1312" y="1504" width="48" height="48" transform="rotate(0,1336,1528)"/><rect x="1360" y="1504" width="48" height="48" transform="rotate(0,1384,1528)"/><rect x="1504" y="1504" width="48" height="48" transform="rotate(0,1528,1528)"/><path d="M 1648 1504v 48h 24a 24 24, 0, 0, 0, 0 -48" transform="rotate(-90,1672,1528)"/><path d="M 1792 1504v 48h 24a 24 24, 0, 0, 0, 0 -48" transform="rotate(-90,1816,1528)"/><circle cx="1912" cy="1528" r="24" transform="rotate(0,1912,1528)"/><path d="M 16 1552v 48h 24a 24 24, 0, 0, 0, 0 -48" transform="rotate(180,40,1576)"/><rect x="64" y="1552" width="48" height="48" transform="rotate(0,88,1576)"/><path d="M 112 1552v 48h 24a 24 24, 0, 0, 0, 0 -48" transform="rotate(0,136,1576)"/><path d="M 304 1552v 48h 24a 24 24, 0, 0, 0, 0 -48" transform="rotate(180,328,1576)"/><rect x="352" y="1552" width="48" height="48" transform="rotate(0,376,1576)"/><rect x="400" y="1552" width="48" height="48" transform="rotate(0,424,1576)"/><rect x="448" y="1552" width="48" height="48" transform="rotate(0,472,1576)"/><path d="M 496 1552v 48h 48v -24a 24 24, 0, 0, 0, -24 -24" transform="rotate(0,520,1576)"/><rect x="592" y="1552" width="48" height="48" transform="rotate(0,616,1576)"/><rect x="640" y="1552" width="48" height="48" transform="rotate(0,664,1576)"/><rect x="688" y="1552" width="48" height="48" transform="rotate(0,712,1576)"/><path d="M 736 1552v 48h 48v -24a 24 24, 0, 0, 0, -24 -24" transform="rotate(90,760,1576)"/><path d="M 880 1552v 48h 48v -24a 24 24, 0, 0, 0, -24 -24" transform="rotate(180,904,1576)"/><rect x="928" y="1552" width="48" height="48" transform="rotate(0,952,1576)"/><path d="M 976 1552v 48h 24a 24 24, 0, 0, 0, 0 -48" transform="rotate(0,1000,1576)"/><circle cx="1096" cy="1576" r="24" transform="rotate(0,1096,1576)"/><circle cx="1192" cy="1576" r="24" transform="rotate(0,1192,1576)"/><rect x="1264" y="1552" width="48" height="48" transform="rotate(0,1288,1576)"/><rect x="1360" y="1552" width="48" height="48" transform="rotate(0,1384,1576)"/><path d="M 1504 1552v 48h 48v -24a 24 24, 0, 0, 0, -24 -24" transform="rotate(180,1528,1576)"/><rect x="1552" y="1552" width="48" height="48" transform="rotate(0,1576,1576)"/><rect x="1600" y="1552" width="48" height="48" transform="rotate(0,1624,1576)"/><rect x="1648" y="1552" width="48" height="48" transform="rotate(0,1672,1576)"/><rect x="1696" y="1552" width="48" height="48" transform="rotate(0,1720,1576)"/><rect x="1744" y="1552" width="48" height="48" transform="rotate(0,1768,1576)"/><path d="M 1792 1552v 48h 48v -24a 24 24, 0, 0, 0, -24 -24" transform="rotate(90,1816,1576)"/><path d="M 1936 1552v 48h 24a 24 24, 0, 0, 0, 0 -48" transform="rotate(-90,1960,1576)"/><rect x="400" y="1600" width="48" height="48" transform="rotate(0,424,1624)"/><rect x="448" y="1600" width="48" height="48" transform="rotate(0,472,1624)"/><rect x="496" y="1600" width="48" height="48" transform="rotate(0,520,1624)"/><rect x="544" y="1600" width="48" height="48" transform="rotate(0,568,1624)"/><rect x="592" y="1600" width="48" height="48" transform="rotate(0,616,1624)"/><rect x="688" y="1600" width="48" height="48" transform="rotate(0,712,1624)"/><path d="M 784 1600v 48h 24a 24 24, 0, 0, 0, 0 -48" transform="rotate(-90,808,1624)"/><path d="M 928 1600v 48h 24a 24 24, 0, 0, 0, 0 -48" transform="rotate(90,952,1624)"/><path d="M 1024 1600v 48h 24a 24 24, 0, 0, 0, 0 -48" transform="rotate(-90,1048,1624)"/><circle cx="1144" cy="1624" r="24" transform="rotate(0,1144,1624)"/><rect x="1264" y="1600" width="48" height="48" transform="rotate(0,1288,1624)"/><rect x="1312" y="1600" width="48" height="48" transform="rotate(0,1336,1624)"/><rect x="1360" y="1600" width="48" height="48" transform="rotate(0,1384,1624)"/><rect x="1552" y="1600" width="48" height="48" transform="rotate(0,1576,1624)"/><rect x="1744" y="1600" width="48" height="48" transform="rotate(0,1768,1624)"/><path d="M 1888 1600v 48h 24a 24 24, 0, 0, 0, 0 -48" transform="rotate(180,1912,1624)"/><rect x="1936" y="1600" width="48" height="48" transform="rotate(0,1960,1624)"/><rect x="400" y="1648" width="48" height="48" transform="rotate(0,424,1672)"/><rect x="448" y="1648" width="48" height="48" transform="rotate(0,472,1672)"/><path d="M 544 1648v 48h 48v -24a 24 24, 0, 0, 0, -24 -24" transform="rotate(180,568,1672)"/><rect x="592" y="1648" width="48" height="48" transform="rotate(0,616,1672)"/><path d="M 688 1648v 48h 48v -24a 24 24, 0, 0, 0, -24 -24" transform="rotate(180,712,1672)"/><rect x="736" y="1648" width="48" height="48" transform="rotate(0,760,1672)"/><rect x="784" y="1648" width="48" height="48" transform="rotate(0,808,1672)"/><path d="M 832 1648v 48h 24a 24 24, 0, 0, 0, 0 -48" transform="rotate(0,856,1672)"/><path d="M 1024 1648v 48h 24a 24 24, 0, 0, 0, 0 -48" transform="rotate(90,1048,1672)"/><rect x="1264" y="1648" width="48" height="48" transform="rotate(0,1288,1672)"/><rect x="1312" y="1648" width="48" height="48" transform="rotate(0,1336,1672)"/><rect x="1360" y="1648" width="48" height="48" transform="rotate(0,1384,1672)"/><rect x="1408" y="1648" width="48" height="48" transform="rotate(0,1432,1672)"/><path d="M 1456 1648v 48h 48v -24a 24 24, 0, 0, 0, -24 -24" transform="rotate(0,1480,1672)"/><rect x="1552" y="1648" width="48" height="48" transform="rotate(0,1576,1672)"/><circle cx="1672" cy="1672" r="24" transform="rotate(0,1672,1672)"/><rect x="1744" y="1648" width="48" height="48" transform="rotate(0,1768,1672)"/><path d="M 1792 1648v 48h 48v -24a 24 24, 0, 0, 0, -24 -24" transform="rotate(0,1816,1672)"/><path d="M 1936 1648v 48h 24a 24 24, 0, 0, 0, 0 -48" transform="rotate(90,1960,1672)"/><path d="M 400 1696v 48h 48v -24a 24 24, 0, 0, 0, -24 -24" transform="rotate(180,424,1720)"/><rect x="448" y="1696" width="48" height="48" transform="rotate(0,472,1720)"/><rect x="592" y="1696" width="48" height="48" transform="rotate(0,616,1720)"/><path d="M 640 1696v 48h 48v -24a 24 24, 0, 0, 0, -24 -24" transform="rotate(0,664,1720)"/><rect x="784" y="1696" width="48" height="48" transform="rotate(0,808,1720)"/><path d="M 928 1696v 48h 48v -24a 24 24, 0, 0, 0, -24 -24" transform="rotate(-90,952,1720)"/><path d="M 976 1696v 48h 48v -24a 24 24, 0, 0, 0, -24 -24" transform="rotate(0,1000,1720)"/><circle cx="1096" cy="1720" r="24" transform="rotate(0,1096,1720)"/><path d="M 1168 1696v 48h 24a 24 24, 0, 0, 0, 0 -48" transform="rotate(180,1192,1720)"/><rect x="1216" y="1696" width="48" height="48" transform="rotate(0,1240,1720)"/><rect x="1264" y="1696" width="48" height="48" transform="rotate(0,1288,1720)"/><rect x="1312" y="1696" width="48" height="48" transform="rotate(0,1336,1720)"/><rect x="1456" y="1696" width="48" height="48" transform="rotate(0,1480,1720)"/><rect x="1504" y="1696" width="48" height="48" transform="rotate(0,1528,1720)"/><rect x="1552" y="1696" width="48" height="48" transform="rotate(0,1576,1720)"/><rect x="1744" y="1696" width="48" height="48" transform="rotate(0,1768,1720)"/><rect x="1792" y="1696" width="48" height="48" transform="rotate(0,1816,1720)"/><path d="M 1888 1696v 48h 24a 24 24, 0, 0, 0, 0 -48" transform="rotate(-90,1912,1720)"/><path d="M 448 1744v 48h 24a 24 24, 0, 0, 0, 0 -48" transform="rotate(90,472,1768)"/><path d="M 592 1744v 48h 48v -24a 24 24, 0, 0, 0, -24 -24" transform="rotate(180,616,1768)"/><rect x="640" y="1744" width="48" height="48" transform="rotate(0,664,1768)"/><path d="M 688 1744v 48h 48v -24a 24 24, 0, 0, 0, -24 -24" transform="rotate(0,712,1768)"/><rect x="784" y="1744" width="48" height="48" transform="rotate(0,808,1768)"/><path d="M 880 1744v 48h 24a 24 24, 0, 0, 0, 0 -48" transform="rotate(180,904,1768)"/><rect x="928" y="1744" width="48" height="48" transform="rotate(0,952,1768)"/><rect x="976" y="1744" width="48" height="48" transform="rotate(0,1000,1768)"/><rect x="1264" y="1744" width="48" height="48" transform="rotate(0,1288,1768)"/><rect x="1312" y="1744" width="48" height="48" transform="rotate(0,1336,1768)"/><rect x="1360" y="1744" width="48" height="48" transform="rotate(0,1384,1768)"/><rect x="1408" y="1744" width="48" height="48" transform="rotate(0,1432,1768)"/><rect x="1456" y="1744" width="48" height="48" transform="rotate(0,1480,1768)"/><rect x="1504" y="1744" width="48" height="48" transform="rotate(0,1528,1768)"/><rect x="1552" y="1744" width="48" height="48" transform="rotate(0,1576,1768)"/><rect x="1600" y="1744" width="48" height="48" transform="rotate(0,1624,1768)"/><rect x="1648" y="1744" width="48" height="48" transform="rotate(0,1672,1768)"/><rect x="1696" y="1744" width="48" height="48" transform="rotate(0,1720,1768)"/><rect x="1744" y="1744" width="48" height="48" transform="rotate(0,1768,1768)"/><rect x="1792" y="1744" width="48" height="48" transform="rotate(0,1816,1768)"/><rect x="1888" y="1744" width="48" height="48" transform="rotate(0,1912,1768)"/><path d="M 496 1792v 48h 24a 24 24, 0, 0, 0, 0 -48" transform="rotate(180,520,1816)"/><path d="M 544 1792v 48h 24a 24 24, 0, 0, 0, 0 -48" transform="rotate(0,568,1816)"/><path d="M 688 1792v 48h 24a 24 24, 0, 0, 0, 0 -48" transform="rotate(90,712,1816)"/><rect x="784" y="1792" width="48" height="48" transform="rotate(0,808,1816)"/><rect x="928" y="1792" width="48" height="48" transform="rotate(0,952,1816)"/><rect x="976" y="1792" width="48" height="48" transform="rotate(0,1000,1816)"/><rect x="1024" y="1792" width="48" height="48" transform="rotate(0,1048,1816)"/><path d="M 1072 1792v 48h 48v -24a 24 24, 0, 0, 0, -24 -24" transform="rotate(0,1096,1816)"/><path d="M 1216 1792v 48h 24a 24 24, 0, 0, 0, 0 -48" transform="rotate(180,1240,1816)"/><rect x="1264" y="1792" width="48" height="48" transform="rotate(0,1288,1816)"/><rect x="1312" y="1792" width="48" height="48" transform="rotate(0,1336,1816)"/><rect x="1408" y="1792" width="48" height="48" transform="rotate(0,1432,1816)"/><rect x="1456" y="1792" width="48" height="48" transform="rotate(0,1480,1816)"/><rect x="1504" y="1792" width="48" height="48" transform="rotate(0,1528,1816)"/><path d="M 1552 1792v 48h 48v -24a 24 24, 0, 0, 0, -24 -24" transform="rotate(90,1576,1816)"/><path d="M 1696 1792v 48h 48v -24a 24 24, 0, 0, 0, -24 -24" transform="rotate(180,1720,1816)"/><rect x="1744" y="1792" width="48" height="48" transform="rotate(0,1768,1816)"/><path d="M 1792 1792v 48h 48v -24a 24 24, 0, 0, 0, -24 -24" transform="rotate(90,1816,1816)"/><rect x="1888" y="1792" width="48" height="48" transform="rotate(0,1912,1816)"/><path d="M 1936 1792v 48h 48v -24a 24 24, 0, 0, 0, -24 -24" transform="rotate(0,1960,1816)"/><path d="M 400 1840v 48h 24a 24 24, 0, 0, 0, 0 -48" transform="rotate(180,424,1864)"/><path d="M 448 1840v 48h 48v -24a 24 24, 0, 0, 0, -24 -24" transform="rotate(0,472,1864)"/><path d="M 640 1840v 48h 24a 24 24, 0, 0, 0, 0 -48" transform="rotate(-90,664,1864)"/><rect x="784" y="1840" width="48" height="48" transform="rotate(0,808,1864)"/><path d="M 928 1840v 48h 24a 24 24, 0, 0, 0, 0 -48" transform="rotate(90,952,1864)"/><path d="M 1024 1840v 48h 48v -24a 24 24, 0, 0, 0, -24 -24" transform="rotate(180,1048,1864)"/><rect x="1072" y="1840" width="48" height="48" transform="rotate(0,1096,1864)"/><path d="M 1120 1840v 48h 48v -24a 24 24, 0, 0, 0, -24 -24" transform="rotate(0,1144,1864)"/><rect x="1264" y="1840" width="48" height="48" transform="rotate(0,1288,1864)"/><path d="M 1312 1840v 48h 48v -24a 24 24, 0, 0, 0, -24 -24" transform="rotate(90,1336,1864)"/><path d="M 1408 1840v 48h 48v -24a 24 24, 0, 0, 0, -24 -24" transform="rotate(180,1432,1864)"/><rect x="1456" y="1840" width="48" height="48" transform="rotate(0,1480,1864)"/><circle cx="1624" cy="1864" r="24" transform="rotate(0,1624,1864)"/><path d="M 1744 1840v 48h 24a 24 24, 0, 0, 0, 0 -48" transform="rotate(90,1768,1864)"/><path d="M 1840 1840v 48h 24a 24 24, 0, 0, 0, 0 -48" transform="rotate(180,1864,1864)"/><rect x="1888" y="1840" width="48" height="48" transform="rotate(0,1912,1864)"/><path d="M 1936 1840v 48h 48v -24a 24 24, 0, 0, 0, -24 -24" transform="rotate(90,1960,1864)"/><rect x="448" y="1888" width="48" height="48" transform="rotate(0,472,1912)"/><circle cx="568" cy="1912" r="24" transform="rotate(0,568,1912)"/><path d="M 640 1888v 48h 48v -24a 24 24, 0, 0, 0, -24 -24" transform="rotate(180,664,1912)"/><rect x="688" y="1888" width="48" height="48" transform="rotate(0,712,1912)"/><rect x="736" y="1888" width="48" height="48" transform="rotate(0,760,1912)"/><path d="M 784 1888v 48h 48v -24a 24 24, 0, 0, 0, -24 -24" transform="rotate(90,808,1912)"/><circle cx="1000" cy="1912" r="24" transform="rotate(0,1000,1912)"/><path d="M 1120 1888v 48h 48v -24a 24 24, 0, 0, 0, -24 -24" transform="rotate(180,1144,1912)"/><rect x="1168" y="1888" width="48" height="48" transform="rotate(0,1192,1912)"/><rect x="1216" y="1888" width="48" height="48" transform="rotate(0,1240,1912)"/><path d="M 1264 1888v 48h 48v -24a 24 24, 0, 0, 0, -24 -24" transform="rotate(90,1288,1912)"/><path d="M 1456 1888v 48h 24a 24 24, 0, 0, 0, 0 -48" transform="rotate(90,1480,1912)"/><path d="M 1552 1888v 48h 24a 24 24, 0, 0, 0, 0 -48" transform="rotate(-90,1576,1912)"/><path d="M 1792 1888v 48h 24a 24 24, 0, 0, 0, 0 -48" transform="rotate(-90,1816,1912)"/><path d="M 448 1936v 48h 24a 24 24, 0, 0, 0, 0 -48" transform="rotate(90,472,1960)"/><path d="M 736 1936v 48h 24a 24 24, 0, 0, 0, 0 -48" transform="rotate(90,760,1960)"/><circle cx="1096" cy="1960" r="24" transform="rotate(0,1096,1960)"/><path d="M 1312 1936v 48h 24a 24 24, 0, 0, 0, 0 -48" transform="rotate(180,1336,1960)"/><path d="M 1360 1936v 48h 24a 24 24, 0, 0, 0, 0 -48" transform="rotate(0,1384,1960)"/><path d="M 1552 1936v 48h 24a 24 24, 0, 0, 0, 0 -48" transform="rotate(90,1576,1960)"/><circle cx="1672" cy="1960" r="24" transform="rotate(0,1672,1960)"/><path d="M 1744 1936v 48h 24a 24 24, 0, 0, 0, 0 -48" transform="rotate(180,1768,1960)"/><path d="M 1792 1936v 48h 48v -24a 24 24, 0, 0, 0, -24 -24" transform="rotate(90,1816,1960)"/><circle cx="1960" cy="1960" r="24" transform="rotate(0,1960,1960)"/></clipPath><clipPath id="clip-path-corners-square-color-0-0-2"><path clip-rule="evenodd" d="M 16 136v 96a 120 120, 0, 0, 0, 120 120h 96a 120 120, 0, 0, 0, 120 -120v -96a 120 120, 0, 0, 0, -120 -120h -96a 120 120, 0, 0, 0, -120 120M 136 64h 96a 72 72, 0, 0, 1, 72 72v 96a 72 72, 0, 0, 1, -72 72h -96a 72 72, 0, 0, 1, -72 -72v -96a 72 72, 0, 0, 1, 72 -72" transform="rotate(0,184,184)"/></clipPath><clipPath id="clip-path-corners-dot-color-0-0-2"><circle cx="184" cy="184" r="72" transform="rotate(0,184,184)"/></clipPath><clipPath id="clip-path-corners-square-color-1-0-2"><path clip-rule="evenodd" d="M 1648 136v 96a 120 120, 0, 0, 0, 120 120h 96a 120 120, 0, 0, 0, 120 -120v -96a 120 120, 0, 0, 0, -120 -120h -96a 120 120, 0, 0, 0, -120 120M 1768 64h 96a 72 72, 0, 0, 1, 72 72v 96a 72 72, 0, 0, 1, -72 72h -96a 72 72, 0, 0, 1, -72 -72v -96a 72 72, 0, 0, 1, 72 -72" transform="rotate(90,1816,184)"/></clipPath><clipPath id="clip-path-corners-dot-color-1-0-2"><circle cx="1816" cy="184" r="72" transform="rotate(90,1816,184)"/></clipPath><clipPath id="clip-path-corners-square-color-0-1-2"><path clip-rule="evenodd" d="M 16 1768v 96a 120 120, 0, 0, 0, 120 120h 96a 120 120, 0, 0, 0, 120 -120v -96a 120 120, 0, 0, 0, -120 -120h -96a 120 120, 0, 0, 0, -120 120M 136 1696h 96a 72 72, 0, 0, 1, 72 72v 96a 72 72, 0, 0, 1, -72 72h -96a 72 72, 0, 0, 1, -72 -72v -96a 72 72, 0, 0, 1, 72 -72" transform="rotate(-90,184,1816)"/></clipPath><clipPath id="clip-path-corners-dot-color-0-1-2"><circle cx="184" cy="1816" r="72" transform="rotate(-90,184,1816)"/></clipPath></defs><rect x="0" y="0" height="2000" width="2000" clip-path="url('#clip-path-background-color-2')" fill="#1f1f1f"/><rect x="0" y="0" height="2000" width="2000" clip-path="url('#clip-path-dot-color-2')" fill="#2dd4bf"/><rect x="16" y="16" height="336" width="336" clip-path="url('#clip-path-corners-square-color-0-0-2')" fill="#2dd4bf"/><rect x="112" y="112" height="144" width="144" clip-path="url('#clip-path-corners-dot-color-0-0-2')" fill="#ffbd4a"/><rect x="1648" y="16" height="336" width="336" clip-path="url('#clip-path-corners-square-color-1-0-2')" fill="#2dd4bf"/><rect x="1744" y="112" height="144" width="144" clip-path="url('#clip-path-corners-dot-color-1-0-2')" fill="#ffbd4a"/><rect x="16" y="1648" height="336" width="336" clip-path="url('#clip-path-corners-square-color-0-1-2')" fill="#2dd4bf"/><rect x="112" y="1744" height="144" width="144" clip-path="url('#clip-path-corners-dot-color-0-1-2')" fill="#ffbd4a"/></svg>