<?xml version="1.0" standalone="no"?>
<svg xmlns="http://www.w3.org/2000/svg" width="2000" height="2000" xmlns:xlink="http://www.w3.org/1999/xlink" viewBox="0 0 2000 2000"><defs><clipPath id="clip-path-background-color-10"><rect x="0" y="0" width="2000" height="2000"/></clipPath><clipPath id="clip-path-dot-color-10"><circle cx="472" cy="40" r="24" transform="rotate(0,472,40)"/><path d="M 832 16v 48h 48v -24a 24 24, 0, 0, 0, -24 -24" transform="rotate(-90,856,40)"/><path d="M 880 16v 48h 24a 24 24, 0, 0, 0, 0 -48" transform="rotate(0,904,40)"/><circle cx="1096" cy="40" r="24" transform="rotate(0,1096,40)"/><path d="M 1168 16v 48h 48v -24a 24 24, 0, 0, 0, -24 -24" transform="rotate(-90,1192,40)"/><path d="M 1216 16v 48h 48v -24a 24 24, 0, 0, 0, -24 -24" transform="rotate(0,1240,40)"/><path d="M 1360 16v 48h 24a 24 24, 0, 0, 0, 0 -48" transform="rotate(180,1384,40)"/><rect x="1408" y="16" width="48" height="48" transform="rotate(0,1432,40)"/><rect x="1456" y="16" width="48" height="48" transform="rotate(0,1480,40)"/><rect x="1504" y="16" width="48" height="48" transform="rotate(0,1528,40)"/><path d="M 1552 16v 48h 24a 24 24, 0, 0, 0, 0 -48" transform="rotate(0,1576,40)"/><path d="M 640 64v 48h 24a 24 24, 0, 0, 0, 0 -48" transform="rotate(180,664,88)"/><path d="M 688 64v 48h 24a 24 24, 0, 0, 0, 0 -48" transform="rotate(0,712,88)"/><path d="M 784 64v 48h 24a 24 24, 0, 0, 0, 0 -48" transform="rotate(180,808,88)"/><rect x="832" y="64" width="48" height="48" transform="rotate(0,856,88)"/><path d="M 928 64v 48h 48v -24a 24 24, 0, 0, 0, -24 -24" transform="rotate(-90,952,88)"/><path d="M 976 64v 48h 48v -24a 24 24, 0, 0, 0, -24 -24" transform="rotate(0,1000,88)"/><path d="M 1168 64v 48h 48v -24a 24 24, 0, 0, 0, -24 -24" transform="rotate(180,1192,88)"/><path d="M 1216 64v 48h 48v -24a 24 24, 0, 0, 0, -24 -24" transform="rotate(90,1240,88)"/><path d="M 1408 64v 48h 24a 24 24, 0, 0, 0, 0 -48" transform="rotate(90,1432,88)"/><path d="M 448 112v 48h 24a 24 24, 0, 0, 0, 0 -48" transform="rotate(-90,472,136)"/><path d="M 592 112v 48h 24a 24 24, 0, 0, 0, 0 -48" transform="rotate(-90,616,136)"/><path d="M 736 112v 48h 24a 24 24, 0, 0, 0, 0 -48" transform="rotate(-90,760,136)"/><path d="M 832 112v 48h 24a 24 24, 0, 0, 0, 0 -48" transform="rotate(90,856,136)"/><path d="M 928 112v 48h 48v -24a 24 24, 0, 0, 0, -24 -24" transform="rotate(180,952,136)"/><rect x="976" y="112" width="48" height="48" transform="rotate(0,1000,136)"/><path d="M 1072 112v 48h 48v -24a 24 24, 0, 0, 0, -24 -24" transform="rotate(-90,1096,136)"/><path d="M 1120 112v 48h 48v -24a 24 24, 0, 0, 0, -24 -24" transform="rotate(0,1144,136)"/><circle cx="1528" cy="136" r="24" transform="rotate(0,1528,136)"/><rect x="448" y="160" width="48" height="48" transform="rotate(0,472,184)"/><path d="M 592 160v 48h 48v -24a 24 24, 0, 0, 0, -24 -24" transform="rotate(180,616,184)"/><rect x="640" y="160" width="48" height="48" transform="rotate(0,664,184)"/><rect x="688" y="160" width="48" height="48" transform="rotate(0,712,184)"/><rect x="736" y="160" width="48" height="48" transform="rotate(0,760,184)"/><circle cx="904" cy="184" r="24" transform="rotate(0,904,184)"/><path d="M 976 160v 48h 24a 24 24, 0, 0, 0, 0 -48" transform="rotate(90,1000,184)"/><rect x="1072" y="160" width="48" height="48" transform="rotate(0,1096,184)"/><path d="M 1120 160v 48h 48v -24a 24 24, 0, 0, 0, -24 -24" transform="rotate(90,1144,184)"/><path d="M 1264 160v 48h 24a 24 24, 0, 0, 0, 0 -48" transform="rotate(-90,1288,184)"/><circle cx="1480" cy="184" r="24" transform="rotate(0,1480,184)"/><path d="M 400 208v 48h 24a 24 24, 0, 0, 0, 0 -48" transform="rotate(180,424,232)"/><rect x="448" y="208" width="48" height="48" transform="rotate(0,472,232)"/><rect x="496" y="208" width="48" height="48" transform="rotate(0,520,232)"/><path d="M 544 208v 48h 48v -24a 24 24, 0, 0, 0, -24 -24" transform="rotate(0,568,232)"/><rect x="640" y="208" width="48" height="48" transform="rotate(0,664,232)"/><rect x="736" y="208" width="48" height="48" transform="rotate(0,760,232)"/><rect x="784" y="208" width="48" height="48" transform="rotate(0,808,232)"/><path d="M 832 208v 48h 48v -24a 24 24, 0, 0, 0, -24 -24" transform="rotate(0,856,232)"/><rect x="1072" y="208" width="48" height="48" transform="rotate(0,1096,232)"/><rect x="1264" y="208" width="48" height="48" transform="rotate(0,1288,232)"/><rect x="1312" y="208" width="48" height="48" transform="rotate(0,1336,232)"/><rect x="1360" y="208" width="48" height="48" transform="rotate(0,1384,232)"/><path d="M 1408 208v 48h 24a 24 24, 0, 0, 0, 0 -48" transform="rotate(0,1432,232)"/><path d="M 1504 208v 48h 48v -24a 24 24, 0, 0, 0, -24 -24" transform="rotate(-90,1528,232)"/><path d="M 1552 208v 48h 48v -24a 24 24, 0, 0, 0, -24 -24" transform="rotate(0,1576,232)"/><path d="M 544 256v 48h 24a 24 24, 0, 0, 0, 0 -48" transform="rotate(90,568,280)"/><path d="M 640 256v 48h 24a 24 24, 0, 0, 0, 0 -48" transform="rotate(90,664,280)"/><path d="M 736 256v 48h 48v -24a 24 24, 0, 0, 0, -24 -24" transform="rotate(180,760,280)"/><rect x="784" y="256" width="48" height="48" transform="rotate(0,808,280)"/><rect x="832" y="256" width="48" height="48" transform="rotate(0,856,280)"/><rect x="880" y="256" width="48" height="48" transform="rotate(0,904,280)"/><rect x="928" y="256" width="48" height="48" transform="rotate(0,952,280)"/><path d="M 976 256v 48h 48v -24a 24 24, 0, 0, 0, -24 -24" transform="rotate(0,1000,280)"/><rect x="1072" y="256" width="48" height="48" transform="rotate(0,1096,280)"/><path d="M 1168 256v 48h 48v -24a 24 24, 0, 0, 0, -24 -24" transform="rotate(-90,1192,280)"/><rect x="1216" y="256" width="48" height="48" transform="rotate(0,1240,280)"/><rect x="1264" y="256" width="48" height="48" transform="rotate(0,1288,280)"/><rect x="1360" y="256" width="48" height="48" transform="rotate(0,1384,280)"/><path d="M 1456 256v 48h 48v -24a 24 24, 0, 0, 0, -24 -24" transform="rotate(-90,1480,280)"/><rect x="1504" y="256" width="48" height="48" transform="rotate(0,1528,280)"/><rect x="1552" y="256" width="48" height="48" transform="rotate(0,1576,280)"/><path d="M 400 304v 48h 24a 24 24, 0, 0, 0, 0 -48" transform="rotate(-90,424,328)"/><path d="M 496 304v 48h 24a 24 24, 0, 0, 0, 0 -48" transform="rotate(-90,520,328)"/><circle cx="616" cy="328" r="24" transform="rotate(0,616,328)"/><circle cx="712" cy="328" r="24" transform="rotate(0,712,328)"/><rect x="784" y="304" width="48" height="48" transform="rotate(0,808,328)"/><rect x="880" y="304" width="48" height="48" transform="rotate(0,904,328)"/><rect x="976" y="304" width="48" height="48" transform="rotate(0,1000,328)"/><path d="M 1072 304v 48h 24a 24 24, 0, 0, 0, 0 -48" transform="rotate(90,1096,328)"/><rect x="1168" y="304" width="48" height="48" transform="rotate(0,1192,328)"/><rect x="1264" y="304" width="48" height="48" transform="rotate(0,1288,328)"/><path d="M 1360 304v 48h 24a 24 24, 0, 0, 0, 0 -48" transform="rotate(90,1384,328)"/><path d="M 1456 304v 48h 24a 24 24, 0, 0, 0, 0 -48" transform="rotate(90,1480,328)"/><path d="M 1552 304v 48h 24a 24 24, 0, 0, 0, 0 -48" transform="rotate(90,1576,328)"/><rect x="400" y="352" width="48" height="48" transform="rotate(0,424,376)"/><rect x="448" y="352" width="48" height="48" transform="rotate(0,472,376)"/><rect x="496" y="352" width="48" height="48" transform="rotate(0,520,376)"/><path d="M 544 352v 48h 48v -24a 24 24, 0, 0, 0, -24 -24" transform="rotate(0,568,376)"/><path d="M 784 352v 48h 48v -24a 24 24, 0, 0, 0, -24 -24" transform="rotate(180,808,376)"/><rect x="832" y="352" width="48" height="48" transform="rotate(0,856,376)"/><rect x="880" y="352" width="48" height="48" transform="rotate(0,904,376)"/><path d="M 976 352v 48h 48v -24a 24 24, 0, 0, 0, -24 -24" transform="rotate(180,1000,376)"/><path d="M 1024 352v 48h 24a 24 24, 0, 0, 0, 0 -48" transform="rotate(0,1048,376)"/><path d="M 1120 352v 48h 48v -24a 24 24, 0, 0, 0, -24 -24" transform="rotate(-90,1144,376)"/><rect x="1168" y="352" width="48" height="48" transform="rotate(0,1192,376)"/><rect x="1216" y="352" width="48" height="48" transform="rotate(0,1240,376)"/><rect x="1264" y="352" width="48" height="48" transform="rotate(0,1288,376)"/><path d="M 1312 352v 48h 24a 24 24, 0, 0, 0, 0 -48" transform="rotate(0,1336,376)"/><path d="M 1408 352v 48h 24a 24 24, 0, 0, 0, 0 -48" transform="rotate(-90,1432,376)"/><path d="M 112 400v 48h 24a 24 24, 0, 0, 0, 0 -48" transform="rotate(180,136,424)"/><path d="M 160 400v 48h 48v -24a 24 24, 0, 0, 0, -24 -24" transform="rotate(0,184,424)"/><path d="M 304 400v 48h 24a 24 24, 0, 0, 0, 0 -48" transform="rotate(180,328,424)"/><rect x="352" y="400" width="48" height="48" transform="rotate(0,376,424)"/><rect x="400" y="400" width="48" height="48" transform="rotate(0,424,424)"/><rect x="448" y="400" width="48" height="48" transform="rotate(0,472,424)"/><path d="M 544 400v 48h 48v -24a 24 24, 0, 0, 0, -24 -24" transform="rotate(180,568,424)"/><rect x="592" y="400" width="48" height="48" transform="rotate(0,616,424)"/><rect x="640" y="400" width="48" height="48" transform="rotate(0,664,424)"/><path d="M 688 400v 48h 24a 24 24, 0, 0, 0, 0 -48" transform="rotate(0,712,424)"/><path d="M 832 400v 48h 48v -24a 24 24, 0, 0, 0, -24 -24" transform="rotate(180,856,424)"/><path d="M 880 400v 48h 48v -24a 24 24, 0, 0, 0, -24 -24" transform="rotate(90,904,424)"/><path d="M 1072 400v 48h 24a 24 24, 0, 0, 0, 0 -48" transform="rotate(180,1096,424)"/><path d="M 1120 400v 48h 48v -24a 24 24, 0, 0, 0, -24 -24" transform="rotate(90,1144,424)"/><rect x="1216" y="400" width="48" height="48" transform="rotate(0,1240,424)"/><path d="M 1360 400v 48h 48v -24a 24 24, 0, 0, 0, -24 -24" transform="rotate(-90,1384,424)"/><rect x="1408" y="400" width="48" height="48" transform="rotate(0,1432,424)"/><rect x="1456" y="400" width="48" height="48" transform="rotate(0,1480,424)"/><rect x="1504" y="400" width="48" height="48" transform="rotate(0,1528,424)"/><rect x="1552" y="400" width="48" height="48" transform="rotate(0,1576,424)"/><rect x="1600" y="400" width="48" height="48" transform="rotate(0,1624,424)"/><path d="M 1648 400v 48h 48v -24a 24 24, 0, 0, 0, -24 -24" transform="rotate(0,1672,424)"/><path d="M 1744 400v 48h 24a 24 24, 0, 0, 0, 0 -48" transform="rotate(-90,1768,424)"/><path d="M 64 448v 48h 24a 24 24, 0, 0, 0, 0 -48" transform="rotate(-90,88,472)"/><rect x="160" y="448" width="48" height="48" transform="rotate(0,184,472)"/><path d="M 208 448v 48h 24a 24 24, 0, 0, 0, 0 -48" transform="rotate(0,232,472)"/><path d="M 448 448v 48h 48v -24a 24 24, 0, 0, 0, -24 -24" transform="rotate(180,472,472)"/><path d="M 496 448v 48h 48v -24a 24 24, 0, 0, 0, -24 -24" transform="rotate(0,520,472)"/><rect x="640" y="448" width="48" height="48" transform="rotate(0,664,472)"/><circle cx="808" cy="472" r="24" transform="rotate(0,808,472)"/><path d="M 976 448v 48h 24a 24 24, 0, 0, 0, 0 -48" transform="rotate(-90,1000,472)"/><rect x="1216" y="448" width="48" height="48" transform="rotate(0,1240,472)"/><path d="M 1264 448v 48h 24a 24 24, 0, 0, 0, 0 -48" transform="rotate(0,1288,472)"/><path d="M 1360 448v 48h 48v -24a 24 24, 0, 0, 0, -24 -24" transform="rotate(180,1384,472)"/><path d="M 1408 448v 48h 48v -24a 24 24, 0, 0, 0, -24 -24" transform="rotate(90,1432,472)"/><path d="M 1504 448v 48h 48v -24a 24 24, 0, 0, 0, -24 -24" transform="rotate(180,1528,472)"/><path d="M 1552 448v 48h 48v -24a 24 24, 0, 0, 0, -24 -24" transform="rotate(90,1576,472)"/><path d="M 1648 448v 48h 48v -24a 24 24, 0, 0, 0, -24 -24" transform="rotate(180,1672,472)"/><rect x="1696" y="448" width="48" height="48" transform="rotate(0,1720,472)"/><rect x="1744" y="448" width="48" height="48" transform="rotate(0,1768,472)"/><path d="M 1840 448v 48h 24a 24 24, 0, 0, 0, 0 -48" transform="rotate(-90,1864,472)"/><circle cx="1960" cy="472" r="24" transform="rotate(0,1960,472)"/><path d="M 16 496v 48h 48v -24a 24 24, 0, 0, 0, -24 -24" transform="rotate(-90,40,520)"/><rect x="64" y="496" width="48" height="48" transform="rotate(0,88,520)"/><rect x="112" y="496" width="48" height="48" transform="rotate(0,136,520)"/><path d="M 160 496v 48h 48v -24a 24 24, 0, 0, 0, -24 -24" transform="rotate(90,184,520)"/><path d="M 304 496v 48h 24a 24 24, 0, 0, 0, 0 -48" transform="rotate(180,328,520)"/><path d="M 352 496v 48h 48v -24a 24 24, 0, 0, 0, -24 -24" transform="rotate(0,376,520)"/><rect x="496" y="496" width="48" height="48" transform="rotate(0,520,520)"/><path d="M 592 496v 48h 48v -24a 24 24, 0, 0, 0, -24 -24" transform="rotate(-90,616,520)"/><rect x="640" y="496" width="48" height="48" transform="rotate(0,664,520)"/><circle cx="760" cy="520" r="24" transform="rotate(0,760,520)"/><path d="M 832 496v 48h 24a 24 24, 0, 0, 0, 0 -48" transform="rotate(180,856,520)"/><rect x="880" y="496" width="48" height="48" transform="rotate(0,904,520)"/><rect x="928" y="496" width="48" height="48" transform="rotate(0,952,520)"/><rect x="976" y="496" width="48" height="48" transform="rotate(0,1000,520)"/><rect x="1024" y="496" width="48" height="48" transform="rotate(0,1048,520)"/><path d="M 1072 496v 48h 48v -24a 24 24, 0, 0, 0, -24 -24" transform="rotate(0,1096,520)"/><path d="M 1168 496v 48h 24a 24 24, 0, 0, 0, 0 -48" transform="rotate(180,1192,520)"/><rect x="1216" y="496" width="48" height="48" transform="rotate(0,1240,520)"/><circle cx="1480" cy="520" r="24" transform="rotate(0,1480,520)"/><circle cx="1624" cy="520" r="24" transform="rotate(0,1624,520)"/><path d="M 1744 496v 48h 24a 24 24, 0, 0, 0, 0 -48" transform="rotate(90,1768,520)"/><path d="M 1840 496v 48h 24a 24 24, 0, 0, 0, 0 -48" transform="rotate(90,1864,520)"/><path d="M 16 544v 48h 48v -24a 24 24, 0, 0, 0, -24 -24" transform="rotate(180,40,568)"/><path d="M 64 544v 48h 48v -24a 24 24, 0, 0, 0, -24 -24" transform="rotate(90,88,568)"/><rect x="352" y="544" width="48" height="48" transform="rotate(0,376,568)"/><path d="M 400 544v 48h 24a 24 24, 0, 0, 0, 0 -48" transform="rotate(0,424,568)"/><rect x="496" y="544" width="48" height="48" transform="rotate(0,520,568)"/><path d="M 592 544v 48h 48v -24a 24 24, 0, 0, 0, -24 -24" transform="rotate(180,616,568)"/><rect x="640" y="544" width="48" height="48" transform="rotate(0,664,568)"/><path d="M 784 544v 48h 24a 24 24, 0, 0, 0, 0 -48" transform="rotate(-90,808,568)"/><path d="M 976 544v 48h 48v -24a 24 24, 0, 0, 0, -24 -24" transform="rotate(180,1000,568)"/><rect x="1024" y="544" width="48" height="48" transform="rotate(0,1048,568)"/><rect x="1072" y="544" width="48" height="48" transform="rotate(0,1096,568)"/><rect x="1216" y="544" width="48" height="48" transform="rotate(0,1240,568)"/><path d="M 1552 544v 48h 24a 24 24, 0, 0, 0, 0 -48" transform="rotate(-90,1576,568)"/><circle cx="1912" cy="568" r="24" transform="rotate(0,1912,568)"/><path d="M 160 592v 48h 24a 24 24, 0, 0, 0, 0 -48" transform="rotate(-90,184,616)"/><path d="M 256 592v 48h 48v -24a 24 24, 0, 0, 0, -24 -24" transform="rotate(-90,280,616)"/><rect x="304" y="592" width="48" height="48" transform="rotate(0,328,616)"/><path d="M 352 592v 48h 48v -24a 24 24, 0, 0, 0, -24 -24" transform="rotate(90,376,616)"/><path d="M 448 592v 48h 48v -24a 24 24, 0, 0, 0, -24 -24" transform="rotate(-90,472,616)"/><rect x="496" y="592" width="48" height="48" transform="rotate(0,520,616)"/><path d="M 544 592v 48h 48v -24a 24 24, 0, 0, 0, -24 -24" transform="rotate(0,568,616)"/><path d="M 640 592v 48h 24a 24 24, 0, 0, 0, 0 -48" transform="rotate(90,664,616)"/><path d="M 784 592v 48h 24a 24 24, 0, 0, 0, 0 -48" transform="rotate(90,808,616)"/><circle cx="904" cy="616" r="24" transform="rotate(0,904,616)"/><rect x="1072" y="592" width="48" height="48" transform="rotate(0,1096,616)"/><rect x="1120" y="592" width="48" height="48" transform="rotate(0,1144,616)"/><rect x="1168" y="592" width="48" height="48" transform="rotate(0,1192,616)"/><rect x="1216" y="592" width="48" height="48" transform="rotate(0,1240,616)"/><path d="M 1264 592v 48h 24a 24 24, 0, 0, 0, 0 -48" transform="rotate(0,1288,616)"/><path d="M 1360 592v 48h 24a 24 24, 0, 0, 0, 0 -48" transform="rotate(180,1384,616)"/><path d="M 1408 592v 48h 24a 24 24, 0, 0, 0, 0 -48" transform="rotate(0,1432,616)"/><path d="M 1504 592v 48h 48v -24a 24 24, 0, 0, 0, -24 -24" transform="rotate(-90,1528,616)"/><rect x="1552" y="592" width="48" height="48" transform="rotate(0,1576,616)"/><circle cx="1720" cy="616" r="24" transform="rotate(0,1720,616)"/><path d="M 1792 592v 48h 48v -24a 24 24, 0, 0, 0, -24 -24" transform="rotate(-90,1816,616)"/><path d="M 1840 592v 48h 24a 24 24, 0, 0, 0, 0 -48" transform="rotate(0,1864,616)"/><path d="M 1936 592v 48h 24a 24 24, 0, 0, 0, 0 -48" transform="rotate(-90,1960,616)"/><path d="M 112 640v 48h 24a 24 24, 0, 0, 0, 0 -48" transform="rotate(180,136,664)"/><path d="M 160 640v 48h 48v -24a 24 24, 0, 0, 0, -24 -24" transform="rotate(90,184,664)"/><rect x="256" y="640" width="48" height="48" transform="rotate(0,280,664)"/><path d="M 400 640v 48h 48v -24a 24 24, 0, 0, 0, -24 -24" transform="rotate(-90,424,664)"/><rect x="448" y="640" width="48" height="48" transform="rotate(0,472,664)"/><rect x="496" y="640" width="48" height="48" transform="rotate(0,520,664)"/><rect x="544" y="640" width="48" height="48" transform="rotate(0,568,664)"/><path d="M 736 640v 48h 24a 24 24, 0, 0, 0, 0 -48" transform="rotate(-90,760,664)"/><circle cx="952" cy="664" r="24" transform="rotate(0,952,664)"/><path d="M 1024 640v 48h 24a 24 24, 0, 0, 0, 0 -48" transform="rotate(180,1048,664)"/><rect x="1072" y="640" width="48" height="48" transform="rotate(0,1096,664)"/><rect x="1120" y="640" width="48" height="48" transform="rotate(0,1144,664)"/><rect x="1504" y="640" width="48" height="48" transform="rotate(0,1528,664)"/><rect x="1552" y="640" width="48" height="48" transform="rotate(0,1576,664)"/><path d="M 1648 640v 48h 24a 24 24, 0, 0, 0, 0 -48" transform="rotate(-90,1672,664)"/><path d="M 1792 640v 48h 24a 24 24, 0, 0, 0, 0 -48" transform="rotate(90,1816,664)"/><rect x="1936" y="640" width="48" height="48" transform="rotate(0,1960,664)"/><circle cx="40" cy="712" r="24" transform="rotate(0,40,712)"/><rect x="256" y="688" width="48" height="48" transform="rotate(0,280,712)"/><rect x="304" y="688" width="48" height="48" transform="rotate(0,328,712)"/><rect x="352" y="688" width="48" height="48" transform="rotate(0,376,712)"/><rect x="400" y="688" width="48" height="48" transform="rotate(0,424,712)"/><rect x="448" y="688" width="48" height="48" transform="rotate(0,472,712)"/><rect x="496" y="688" width="48" height="48" transform="rotate(0,520,712)"/><path d="M 544 688v 48h 48v -24a 24 24, 0, 0, 0, -24 -24" transform="rotate(90,568,712)"/><rect x="736" y="688" width="48" height="48" transform="rotate(0,760,712)"/><path d="M 784 688v 48h 48v -24a 24 24, 0, 0, 0, -24 -24" transform="rotate(0,808,712)"/><path d="M 880 688v 48h 24a 24 24, 0, 0, 0, 0 -48" transform="rotate(-90,904,712)"/><path d="M 976 688v 48h 24a 24 24, 0, 0, 0, 0 -48" transform="rotate(-90,1000,712)"/><path d="M 1072 688v 48h 48v -24a 24 24, 0, 0, 0, -24 -24" transform="rotate(180,1096,712)"/><rect x="1120" y="688" width="48" height="48" transform="rotate(0,1144,712)"/><path d="M 1168 688v 48h 24a 24 24, 0, 0, 0, 0 -48" transform="rotate(0,1192,712)"/><path d="M 1264 688v 48h 24a 24 24, 0, 0, 0, 0 -48" transform="rotate(-90,1288,712)"/><path d="M 1408 688v 48h 24a 24 24, 0, 0, 0, 0 -48" transform="rotate(180,1432,712)"/><rect x="1456" y="688" width="48" height="48" transform="rotate(0,1480,712)"/><rect x="1504" y="688" width="48" height="48" transform="rotate(0,1528,712)"/><rect x="1552" y="688" width="48" height="48" transform="rotate(0,1576,712)"/><rect x="1648" y="688" width="48" height="48" transform="rotate(0,1672,712)"/><rect x="1696" y="688" width="48" height="48" transform="rotate(0,1720,712)"/><path d="M 1744 688v 48h 48v -24a 24 24, 0, 0, 0, -24 -24" transform="rotate(0,1768,712)"/><path d="M 1888 688v 48h 48v -24a 24 24, 0, 0, 0, -24 -24" transform="rotate(-90,1912,712)"/><path d="M 1936 688v 48h 48v -24a 24 24, 0, 0, 0, -24 -24" transform="rotate(90,1960,712)"/><path d="M 64 736v 48h 48v -24a 24 24, 0, 0, 0, -24 -24" transform="rotate(-90,88,760)"/><rect x="112" y="736" width="48" height="48" transform="rotate(0,136,760)"/><rect x="160" y="736" width="48" height="48" transform="rotate(0,184,760)"/><rect x="208" y="736" width="48" height="48" transform="rotate(0,232,760)"/><path d="M 256 736v 48h 48v -24a 24 24, 0, 0, 0, -24 -24" transform="rotate(90,280,760)"/><path d="M 640 736v 48h 24a 24 24, 0, 0, 0, 0 -48" transform="rotate(180,664,760)"/><rect x="688" y="736" width="48" height="48" transform="rotate(0,712,760)"/><rect x="736" y="736" width="48" height="48" transform="rotate(0,760,760)"/><rect x="784" y="736" width="48" height="48" transform="rotate(0,808,760)"/><rect x="880" y="736" width="48" height="48" transform="rotate(0,904,760)"/><rect x="976" y="736" width="48" height="48" transform="rotate(0,1000,760)"/><path d="M 1024 736v 48h 48v -24a 24 24, 0, 0, 0, -24 -24" transform="rotate(0,1048,760)"/><path d="M 1120 736v 48h 24a 24 24, 0, 0, 0, 0 -48" transform="rotate(90,1144,760)"/><path d="M 1264 736v 48h 48v -24a 24 24, 0, 0, 0, -24 -24" transform="rotate(180,1288,760)"/><path d="M 1312 736v 48h 24a 24 24, 0, 0, 0, 0 -48" transform="rotate(0,1336,760)"/><rect x="1456" y="736" width="48" height="48" transform="rotate(0,1480,760)"/><rect x="1504" y="736" width="48" height="48" transform="rotate(0,1528,760)"/><rect x="1552" y="736" width="48" height="48" transform="rotate(0,1576,760)"/><path d="M 1648 736v 48h 24a 24 24, 0, 0, 0, 0 -48" transform="rotate(90,1672,760)"/><rect x="1744" y="736" width="48" height="48" transform="rotate(0,1768,760)"/><path d="M 1792 736v 48h 24a 24 24, 0, 0, 0, 0 -48" transform="rotate(0,1816,760)"/><rect x="1888" y="736" width="48" height="48" transform="rotate(0,1912,760)"/><rect x="64" y="784" width="48" height="48" transform="rotate(0,88,808)"/><rect x="112" y="784" width="48" height="48" transform="rotate(0,136,808)"/><rect x="160" y="784" width="48" height="48" transform="rotate(0,184,808)"/><path d="M 304 784v 48h 24a 24 24, 0, 0, 0, 0 -48" transform="rotate(180,328,808)"/><rect x="352" y="784" width="48" height="48" transform="rotate(0,376,808)"/><path d="M 400 784v 48h 48v -24a 24 24, 0, 0, 0, -24 -24" transform="rotate(0,424,808)"/><path d="M 496 784v 48h 24a 24 24, 0, 0, 0, 0 -48" transform="rotate(180,520,808)"/><path d="M 544 784v 48h 48v -24a 24 24, 0, 0, 0, -24 -24" transform="rotate(0,568,808)"/><rect x="688" y="784" width="48" height="48" transform="rotate(0,712,808)"/><rect x="784" y="784" width="48" height="48" transform="rotate(0,808,808)"/><rect x="832" y="784" width="48" height="48" transform="rotate(0,856,808)"/><rect x="880" y="784" width="48" height="48" transform="rotate(0,904,808)"/><rect x="928" y="784" width="48" height="48" transform="rotate(0,952,808)"/><rect x="976" y="784" width="48" height="48" transform="rotate(0,1000,808)"/><path d="M 1024 784v 48h 48v -24a 24 24, 0, 0, 0, -24 -24" transform="rotate(90,1048,808)"/><circle cx="1192" cy="808" r="24" transform="rotate(0,1192,808)"/><path d="M 1456 784v 48h 24a 24 24, 0, 0, 0, 0 -48" transform="rotate(90,1480,808)"/><rect x="1552" y="784" width="48" height="48" transform="rotate(0,1576,808)"/><path d="M 1744 784v 48h 24a 24 24, 0, 0, 0, 0 -48" transform="rotate(90,1768,808)"/><path d="M 1888 784v 48h 24a 24 24, 0, 0, 0, 0 -48" transform="rotate(90,1912,808)"/><path d="M 16 832v 48h 24a 24 24, 0, 0, 0, 0 -48" transform="rotate(180,40,856)"/><path d="M 64 832v 48h 48v -24a 24 24, 0, 0, 0, -24 -24" transform="rotate(90,88,856)"/><rect x="160" y="832" width="48" height="48" transform="rotate(0,184,856)"/><rect x="208" y="832" width="48" height="48" transform="rotate(0,232,856)"/><path d="M 256 832v 48h 24a 24 24, 0, 0, 0, 0 -48" transform="rotate(0,280,856)"/><path d="M 400 832v 48h 48v -24a 24 24, 0, 0, 0, -24 -24" transform="rotate(180,424,856)"/><path d="M 448 832v 48h 48v -24a 24 24, 0, 0, 0, -24 -24" transform="rotate(0,472,856)"/><path d="M 544 832v 48h 48v -24a 24 24, 0, 0, 0, -24 -24" transform="rotate(180,568,856)"/><path d="M 592 832v 48h 48v -24a 24 24, 0, 0, 0, -24 -24" transform="rotate(0,616,856)"/><rect x="688" y="832" width="48" height="48" transform="rotate(0,712,856)"/><rect x="784" y="832" width="48" height="48" transform="rotate(0,808,856)"/><rect x="832" y="832" width="48" height="48" transform="rotate(0,856,856)"/><rect x="880" y="832" width="48" height="48" transform="rotate(0,904,856)"/><path d="M 928 832v 48h 48v -24a 24 24, 0, 0, 0, -24 -24" transform="rotate(90,952,856)"/><path d="M 1072 832v 48h 24a 24 24, 0, 0, 0, 0 -48" transform="rotate(180,1096,856)"/><path d="M 1120 832v 48h 24a 24 24, 0, 0, 0, 0 -48" transform="rotate(0,1144,856)"/><path d="M 1264 832v 48h 24a 24 24, 0, 0, 0, 0 -48" transform="rotate(180,1288,856)"/><path d="M 1312 832v 48h 48v -24a 24 24, 0, 0, 0, -24 -24" transform="rotate(0,1336,856)"/><path d="M 1408 832v 48h 24a 24 24, 0, 0, 0, 0 -48" transform="rotate(-90,1432,856)"/><path d="M 1552 832v 48h 48v -24a 24 24, 0, 0, 0, -24 -24" transform="rotate(180,1576,856)"/><path d="M 1600 832v 48h 48v -24a 24 24, 0, 0, 0, -24 -24" transform="rotate(0,1624,856)"/><circle cx="1720" cy="856" r="24" transform="rotate(0,1720,856)"/><path d="M 1792 832v 48h 48v -24a 24 24, 0, 0, 0, -24 -24" transform="rotate(-90,1816,856)"/><path d="M 1840 832v 48h 24a 24 24, 0, 0, 0, 0 -48" transform="rotate(0,1864,856)"/><path d="M 112 880v 48h 48v -24a 24 24, 0, 0, 0, -24 -24" transform="rotate(-90,136,904)"/><rect x="160" y="880" width="48" height="48" transform="rotate(0,184,904)"/><circle cx="328" cy="904" r="24" transform="rotate(0,328,904)"/><rect x="448" y="880" width="48" height="48" transform="rotate(0,472,904)"/><path d="M 496 880v 48h 48v -24a 24 24, 0, 0, 0, -24 -24" transform="rotate(0,520,904)"/><path d="M 592 880v 48h 24a 24 24, 0, 0, 0, 0 -48" transform="rotate(90,616,904)"/><path d="M 688 880v 48h 48v -24a 24 24, 0, 0, 0, -24 -24" transform="rotate(180,712,904)"/><rect x="736" y="880" width="48" height="48" transform="rotate(0,760,904)"/><rect x="784" y="880" width="48" height="48" transform="rotate(0,808,904)"/><rect x="880" y="880" width="48" height="48" transform="rotate(0,904,904)"/><path d="M 1024 880v 48h 24a 24 24, 0, 0, 0, 0 -48" transform="rotate(-90,1048,904)"/><path d="M 1168 880v 48h 24a 24 24, 0, 0, 0, 0 -48" transform="rotate(-90,1192,904)"/><path d="M 1312 880v 48h 48v -24a 24 24, 0, 0, 0, -24 -24" transform="rotate(180,1336,904)"/><rect x="1360" y="880" width="48" height="48" transform="rotate(0,1384,904)"/><path d="M 1408 880v 48h 48v -24a 24 24, 0, 0, 0, -24 -24" transform="rotate(90,1432,904)"/><rect x="1600" y="880" width="48" height="48" transform="rotate(0,1624,904)"/><path d="M 1744 880v 48h 24a 24 24, 0, 0, 0, 0 -48" transform="rotate(180,1768,904)"/><rect x="1792" y="880" width="48" height="48" transform="rotate(0,1816,904)"/><path d="M 16 928v 48h 48v -24a 24 24, 0, 0, 0, -24 -24" transform="rotate(-90,40,952)"/><rect x="64" y="928" width="48" height="48" transform="rotate(0,88,952)"/><rect x="112" y="928" width="48" height="48" transform="rotate(0,136,952)"/><rect x="160" y="928" width="48" height="48" transform="rotate(0,184,952)"/><path d="M 256 928v 48h 24a 24 24, 0, 0, 0, 0 -48" transform="rotate(-90,280,952)"/><path d="M 400 928v 48h 48v -24a 24 24, 0, 0, 0, -24 -24" transform="rotate(-90,424,952)"/><rect x="448" y="928" width="48" height="48" transform="rotate(0,472,952)"/><rect x="496" y="928" width="48" height="48" transform="rotate(0,520,952)"/><path d="M 544 928v 48h 48v -24a 24 24, 0, 0, 0, -24 -24" transform="rotate(0,568,952)"/><path d="M 640 928v 48h 24a 24 24, 0, 0, 0, 0 -48" transform="rotate(-90,664,952)"/><path d="M 784 928v 48h 24a 24 24, 0, 0, 0, 0 -48" transform="rotate(90,808,952)"/><path d="M 880 928v 48h 48v -24a 24 24, 0, 0, 0, -24 -24" transform="rotate(180,904,952)"/><rect x="928" y="928" width="48" height="48" transform="rotate(0,952,952)"/><rect x="976" y="928" width="48" height="48" transform="rotate(0,1000,952)"/><rect x="1024" y="928" width="48" height="48" transform="rotate(0,1048,952)"/><path d="M 1168 928v 48h 24a 24 24, 0, 0, 0, 0 -48" transform="rotate(90,1192,952)"/><circle cx="1288" cy="952" r="24" transform="rotate(0,1288,952)"/><path d="M 1552 928v 48h 24a 24 24, 0, 0, 0, 0 -48" transform="rotate(180,1576,952)"/><rect x="1600" y="928" width="48" height="48" transform="rotate(0,1624,952)"/><rect x="1648" y="928" width="48" height="48" transform="rotate(0,1672,952)"/><path d="M 1696 928v 48h 24a 24 24, 0, 0, 0, 0 -48" transform="rotate(0,1720,952)"/><path d="M 1792 928v 48h 48v -24a 24 24, 0, 0, 0, -24 -24" transform="rotate(180,1816,952)"/><rect x="1840" y="928" width="48" height="48" transform="rotate(0,1864,952)"/><path d="M 1888 928v 48h 48v -24a 24 24, 0, 0, 0, -24 -24" transform="rotate(0,1912,952)"/><rect x="16" y="976" width="48" height="48" transform="rotate(0,40,1000)"/><path d="M 112 976v 48h 48v -24a 24 24, 0, 0, 0, -24 -24" transform="rotate(180,136,1000)"/><rect x="160" y="976" width="48" height="48" transform="rotate(0,184,1000)"/><rect x="208" y="976" width="48" height="48" transform="rotate(0,232,1000)"/><rect x="256" y="976" width="48" height="48" transform="rotate(0,280,1000)"/><path d="M 304 976v 48h 24a 24 24, 0, 0, 0, 0 -48" transform="rotate(0,328,1000)"/><path d="M 400 976v 48h 48v -24a 24 24, 0, 0, 0, -24 -24" transform="rotate(180,424,1000)"/><rect x="448" y="976" width="48" height="48" transform="rotate(0,472,1000)"/><rect x="496" y="976" width="48" height="48" transform="rotate(0,520,1000)"/><rect x="544" y="976" width="48" height="48" transform="rotate(0,568,1000)"/><rect x="592" y="976" width="48" height="48" transform="rotate(0,616,1000)"/><rect x="640" y="976" width="48" height="48" transform="rotate(0,664,1000)"/><path d="M 688 976v 48h 48v -24a 24 24, 0, 0, 0, -24 -24" transform="rotate(0,712,1000)"/><path d="M 832 976v 48h 24a 24 24, 0, 0, 0, 0 -48" transform="rotate(-90,856,1000)"/><rect x="976" y="976" width="48" height="48" transform="rotate(0,1000,1000)"/><rect x="1024" y="976" width="48" height="48" transform="rotate(0,1048,1000)"/><path d="M 1072 976v 48h 48v -24a 24 24, 0, 0, 0, -24 -24" transform="rotate(0,1096,1000)"/><circle cx="1240" cy="1000" r="24" transform="rotate(0,1240,1000)"/><circle cx="1336" cy="1000" r="24" transform="rotate(0,1336,1000)"/><path d="M 1456 976v 48h 24a 24 24, 0, 0, 0, 0 -48" transform="rotate(-90,1480,1000)"/><rect x="1600" y="976" width="48" height="48" transform="rotate(0,1624,1000)"/><rect x="1648" y="976" width="48" height="48" transform="rotate(0,1672,1000)"/><path d="M 1744 976v 48h 24a 24 24, 0, 0, 0, 0 -48" transform="rotate(-90,1768,1000)"/><path d="M 1840 976v 48h 48v -24a 24 24, 0, 0, 0, -24 -24" transform="rotate(180,1864,1000)"/><rect x="1888" y="976" width="48" height="48" transform="rotate(0,1912,1000)"/><path d="M 1936 976v 48h 48v -24a 24 24, 0, 0, 0, -24 -24" transform="rotate(0,1960,1000)"/><rect x="16" y="1024" width="48" height="48" transform="rotate(0,40,1048)"/><path d="M 64 1024v 48h 24a 24 24, 0, 0, 0, 0 -48" transform="rotate(0,88,1048)"/><path d="M 352 1024v 48h 24a 24 24, 0, 0, 0, 0 -48" transform="rotate(-90,376,1048)"/><rect x="448" y="1024" width="48" height="48" transform="rotate(0,472,1048)"/><rect x="640" y="1024" width="48" height="48" transform="rotate(0,664,1048)"/><rect x="688" y="1024" width="48" height="48" transform="rotate(0,712,1048)"/><path d="M 784 1024v 48h 48v -24a 24 24, 0, 0, 0, -24 -24" transform="rotate(-90,808,1048)"/><rect x="832" y="1024" width="48" height="48" transform="rotate(0,856,1048)"/><rect x="880" y="1024" width="48" height="48" transform="rotate(0,904,1048)"/><rect x="928" y="1024" width="48" height="48" transform="rotate(0,952,1048)"/><path d="M 976 1024v 48h 48v -24a 24 24, 0, 0, 0, -24 -24" transform="rotate(90,1000,1048)"/><path d="M 1072 1024v 48h 48v -24a 24 24, 0, 0, 0, -24 -24" transform="rotate(180,1096,1048)"/><path d="M 1120 1024v 48h 24a 24 24, 0, 0, 0, 0 -48" transform="rotate(0,1144,1048)"/><path d="M 1360 1024v 48h 24a 24 24, 0, 0, 0, 0 -48" transform="rotate(-90,1384,1048)"/><path d="M 1456 1024v 48h 48v -24a 24 24, 0, 0, 0, -24 -24" transform="rotate(180,1480,1048)"/><rect x="1504" y="1024" width="48" height="48" transform="rotate(0,1528,1048)"/><rect x="1552" y="1024" width="48" height="48" transform="rotate(0,1576,1048)"/><rect x="1600" y="1024" width="48" height="48" transform="rotate(0,1624,1048)"/><rect x="1648" y="1024" width="48" height="48" transform="rotate(0,1672,1048)"/><rect x="1696" y="1024" width="48" height="48" transform="rotate(0,1720,1048)"/><rect x="1744" y="1024" width="48" height="48" transform="rotate(0,1768,1048)"/><rect x="1888" y="1024" width="48" height="48" transform="rotate(0,1912,1048)"/><path d="M 1936 1024v 48h 48v -24a 24 24, 0, 0, 0, -24 -24" transform="rotate(90,1960,1048)"/><path d="M 16 1072v 48h 24a 24 24, 0, 0, 0, 0 -48" transform="rotate(90,40,1096)"/><path d="M 112 1072v 48h 48v -24a 24 24, 0, 0, 0, -24 -24" transform="rotate(-90,136,1096)"/><rect x="160" y="1072" width="48" height="48" transform="rotate(0,184,1096)"/><rect x="208" y="1072" width="48" height="48" transform="rotate(0,232,1096)"/><rect x="256" y="1072" width="48" height="48" transform="rotate(0,280,1096)"/><rect x="304" y="1072" width="48" height="48" transform="rotate(0,328,1096)"/><rect x="352" y="1072" width="48" height="48" transform="rotate(0,376,1096)"/><rect x="448" y="1072" width="48" height="48" transform="rotate(0,472,1096)"/><path d="M 496 1072v 48h 24a 24 24, 0, 0, 0, 0 -48" transform="rotate(0,520,1096)"/><path d="M 640 1072v 48h 48v -24a 24 24, 0, 0, 0, -24 -24" transform="rotate(180,664,1096)"/><rect x="688" y="1072" width="48" height="48" transform="rotate(0,712,1096)"/><rect x="736" y="1072" width="48" height="48" transform="rotate(0,760,1096)"/><rect x="784" y="1072" width="48" height="48" transform="rotate(0,808,1096)"/><path d="M 832 1072v 48h 48v -24a 24 24, 0, 0, 0, -24 -24" transform="rotate(90,856,1096)"/><path d="M 1024 1072v 48h 24a 24 24, 0, 0, 0, 0 -48" transform="rotate(-90,1048,1096)"/><path d="M 1360 1072v 48h 24a 24 24, 0, 0, 0, 0 -48" transform="rotate(90,1384,1096)"/><path d="M 1600 1072v 48h 24a 24 24, 0, 0, 0, 0 -48" transform="rotate(90,1624,1096)"/><path d="M 1696 1072v 48h 48v -24a 24 24, 0, 0, 0, -24 -24" transform="rotate(180,1720,1096)"/><path d="M 1744 1072v 48h 48v -24a 24 24, 0, 0, 0, -24 -24" transform="rotate(90,1768,1096)"/><rect x="1888" y="1072" width="48" height="48" transform="rotate(0,1912,1096)"/><path d="M 64 1120v 48h 24a 24 24, 0, 0, 0, 0 -48" transform="rotate(180,88,1144)"/><rect x="112" y="1120" width="48" height="48" transform="rotate(0,136,1144)"/><path d="M 160 1120v 48h 48v -24a 24 24, 0, 0, 0, -24 -24" transform="rotate(90,184,1144)"/><path d="M 256 1120v 48h 24a 24 24, 0, 0, 0, 0 -48" transform="rotate(90,280,1144)"/><path d="M 352 1120v 48h 24a 24 24, 0, 0, 0, 0 -48" transform="rotate(90,376,1144)"/><rect x="448" y="1120" width="48" height="48" transform="rotate(0,472,1144)"/><path d="M 544 1120v 48h 24a 24 24, 0, 0, 0, 0 -48" transform="rotate(180,568,1144)"/><path d="M 592 1120v 48h 24a 24 24, 0, 0, 0, 0 -48" transform="rotate(0,616,1144)"/><path d="M 688 1120v 48h 24a 24 24, 0, 0, 0, 0 -48" transform="rotate(90,712,1144)"/><rect x="784" y="1120" width="48" height="48" transform="rotate(0,808,1144)"/><path d="M 880 1120v 48h 48v -24a 24 24, 0, 0, 0, -24 -24" transform="rotate(-90,904,1144)"/><rect x="928" y="1120" width="48" height="48" transform="rotate(0,952,1144)"/><rect x="976" y="1120" width="48" height="48" transform="rotate(0,1000,1144)"/><rect x="1024" y="1120" width="48" height="48" transform="rotate(0,1048,1144)"/><path d="M 1072 1120v 48h 24a 24 24, 0, 0, 0, 0 -48" transform="rotate(0,1096,1144)"/><circle cx="1192" cy="1144" r="24" transform="rotate(0,1192,1144)"/><circle cx="1336" cy="1144" r="24" transform="rotate(0,1336,1144)"/><circle cx="1576" cy="1144" r="24" transform="rotate(0,1576,1144)"/><circle cx="1672" cy="1144" r="24" transform="rotate(0,1672,1144)"/><path d="M 1792 1120v 48h 24a 24 24, 0, 0, 0, 0 -48" transform="rotate(-90,1816,1144)"/><path d="M 1888 1120v 48h 48v -24a 24 24, 0, 0, 0, -24 -24" transform="rotate(180,1912,1144)"/><path d="M 1936 1120v 48h 24a 24 24, 0, 0, 0, 0 -48" transform="rotate(0,1960,1144)"/><circle cx="328" cy="1192" r="24" transform="rotate(0,328,1192)"/><path d="M 400 1168v 48h 24a 24 24, 0, 0, 0, 0 -48" transform="rotate(180,424,1192)"/><rect x="448" y="1168" width="48" height="48" transform="rotate(0,472,1192)"/><rect x="784" y="1168" width="48" height="48" transform="rotate(0,808,1192)"/><rect x="832" y="1168" width="48" height="48" transform="rotate(0,856,1192)"/><rect x="880" y="1168" width="48" height="48" transform="rotate(0,904,1192)"/><path d="M 928 1168v 48h 48v -24a 24 24, 0, 0, 0, -24 -24" transform="rotate(90,952,1192)"/><circle cx="1144" cy="1192" r="24" transform="rotate(0,1144,1192)"/><path d="M 1264 1168v 48h 24a 24 24, 0, 0, 0, 0 -48" transform="rotate(-90,1288,1192)"/><circle cx="1432" cy="1192" r="24" transform="rotate(0,1432,1192)"/><circle cx="1624" cy="1192" r="24" transform="rotate(0,1624,1192)"/><rect x="1792" y="1168" width="48" height="48" transform="rotate(0,1816,1192)"/><path d="M 1840 1168v 48h 48v -24a 24 24, 0, 0, 0, -24 -24" transform="rotate(0,1864,1192)"/><path d="M 16 1216v 48h 24a 24 24, 0, 0, 0, 0 -48" transform="rotate(-90,40,1240)"/><path d="M 256 1216v 48h 24a 24 24, 0, 0, 0, 0 -48" transform="rotate(-90,280,1240)"/><circle cx="376" cy="1240" r="24" transform="rotate(0,376,1240)"/><rect x="448" y="1216" width="48" height="48" transform="rotate(0,472,1240)"/><rect x="496" y="1216" width="48" height="48" transform="rotate(0,520,1240)"/><path d="M 544 1216v 48h 48v -24a 24 24, 0, 0, 0, -24 -24" transform="rotate(0,568,1240)"/><path d="M 736 1216v 48h 24a 24 24, 0, 0, 0, 0 -48" transform="rotate(180,760,1240)"/><rect x="784" y="1216" width="48" height="48" transform="rotate(0,808,1240)"/><circle cx="1000" cy="1240" r="24" transform="rotate(0,1000,1240)"/><path d="M 1072 1216v 48h 24a 24 24, 0, 0, 0, 0 -48" transform="rotate(-90,1096,1240)"/><circle cx="1192" cy="1240" r="24" transform="rotate(0,1192,1240)"/><path d="M 1264 1216v 48h 48v -24a 24 24, 0, 0, 0, -24 -24" transform="rotate(180,1288,1240)"/><rect x="1312" y="1216" width="48" height="48" transform="rotate(0,1336,1240)"/><path d="M 1360 1216v 48h 48v -24a 24 24, 0, 0, 0, -24 -24" transform="rotate(0,1384,1240)"/><path d="M 1504 1216v 48h 48v -24a 24 24, 0, 0, 0, -24 -24" transform="rotate(-90,1528,1240)"/><path d="M 1552 1216v 48h 48v -24a 24 24, 0, 0, 0, -24 -24" transform="rotate(0,1576,1240)"/><path d="M 1648 1216v 48h 24a 24 24, 0, 0, 0, 0 -48" transform="rotate(-90,1672,1240)"/><rect x="1792" y="1216" width="48" height="48" transform="rotate(0,1816,1240)"/><rect x="1840" y="1216" width="48" height="48" transform="rotate(0,1864,1240)"/><path d="M 1888 1216v 48h 48v -24a 24 24, 0, 0, 0, -24 -24" transform="rotate(0,1912,1240)"/><path d="M 16 1264v 48h 48v -24a 24 24, 0, 0, 0, -24 -24" transform="rotate(180,40,1288)"/><path d="M 64 1264v 48h 24a 24 24, 0, 0, 0, 0 -48" transform="rotate(0,88,1288)"/><circle cx="184" cy="1288" r="24" transform="rotate(0,184,1288)"/><path d="M 256 1264v 48h 48v -24a 24 24, 0, 0, 0, -24 -24" transform="rotate(180,280,1288)"/><path d="M 304 1264v 48h 24a 24 24, 0, 0, 0, 0 -48" transform="rotate(0,328,1288)"/><rect x="448" y="1264" width="48" height="48" transform="rotate(0,472,1288)"/><rect x="496" y="1264" width="48" height="48" transform="rotate(0,520,1288)"/><rect x="544" y="1264" width="48" height="48" transform="rotate(0,568,1288)"/><rect x="592" y="1264" width="48" height="48" transform="rotate(0,616,1288)"/><rect x="640" y="1264" width="48" height="48" transform="rotate(0,664,1288)"/><path d="M 688 1264v 48h 48v -24a 24 24, 0, 0, 0, -24 -24" transform="rotate(0,712,1288)"/><rect x="784" y="1264" width="48" height="48" transform="rotate(0,808,1288)"/><path d="M 880 1264v 48h 24a 24 24, 0, 0, 0, 0 -48" transform="rotate(180,904,1288)"/><path d="M 928 1264v 48h 48v -24a 24 24, 0, 0, 0, -24 -24" transform="rotate(0,952,1288)"/><path d="M 1024 1264v 48h 24a 24 24, 0, 0, 0, 0 -48" transform="rotate(180,1048,1288)"/><rect x="1072" y="1264" width="48" height="48" transform="rotate(0,1096,1288)"/><path d="M 1120 1264v 48h 24a 24 24, 0, 0, 0, 0 -48" transform="rotate(0,1144,1288)"/><rect x="1360" y="1264" width="48" height="48" transform="rotate(0,1384,1288)"/><path d="M 1456 1264v 48h 48v -24a 24 24, 0, 0, 0, -24 -24" transform="rotate(-90,1480,1288)"/><rect x="1504" y="1264" width="48" height="48" transform="rotate(0,1528,1288)"/><rect x="1552" y="1264" width="48" height="48" transform="rotate(0,1576,1288)"/><path d="M 1648 1264v 48h 48v -24a 24 24, 0, 0, 0, -24 -24" transform="rotate(180,1672,1288)"/><path d="M 1696 1264v 48h 48v -24a 24 24, 0, 0, 0, -24 -24" transform="rotate(0,1720,1288)"/><rect x="1792" y="1264" width="48" height="48" transform="rotate(0,1816,1288)"/><rect x="1888" y="1264" width="48" height="48" transform="rotate(0,1912,1288)"/><path d="M 1936 1264v 48h 24a 24 24, 0, 0, 0, 0 -48" transform="rotate(0,1960,1288)"/><circle cx="136" cy="1336" r="24" transform="rotate(0,136,1336)"/><path d="M 352 1312v 48h 48v -24a 24 24, 0, 0, 0, -24 -24" transform="rotate(-90,376,1336)"/><rect x="400" y="1312" width="48" height="48" transform="rotate(0,424,1336)"/><rect x="448" y="1312" width="48" height="48" transform="rotate(0,472,1336)"/><path d="M 544 1312v 48h 48v -24a 24 24, 0, 0, 0, -24 -24" transform="rotate(180,568,1336)"/><rect x="592" y="1312" width="48" height="48" transform="rotate(0,616,1336)"/><rect x="640" y="1312" width="48" height="48" transform="rotate(0,664,1336)"/><rect x="688" y="1312" width="48" height="48" transform="rotate(0,712,1336)"/><rect x="736" y="1312" width="48" height="48" transform="rotate(0,760,1336)"/><rect x="784" y="1312" width="48" height="48" transform="rotate(0,808,1336)"/><path d="M 832 1312v 48h 24a 24 24, 0, 0, 0, 0 -48" transform="rotate(0,856,1336)"/><rect x="928" y="1312" width="48" height="48" transform="rotate(0,952,1336)"/><rect x="1072" y="1312" width="48" height="48" transform="rotate(0,1096,1336)"/><circle cx="1240" cy="1336" r="24" transform="rotate(0,1240,1336)"/><path d="M 1312 1312v 48h 48v -24a 24 24, 0, 0, 0, -24 -24" transform="rotate(-90,1336,1336)"/><path d="M 1360 1312v 48h 48v -24a 24 24, 0, 0, 0, -24 -24" transform="rotate(90,1384,1336)"/><rect x="1456" y="1312" width="48" height="48" transform="rotate(0,1480,1336)"/><rect x="1504" y="1312" width="48" height="48" transform="rotate(0,1528,1336)"/><path d="M 1552 1312v 48h 48v -24a 24 24, 0, 0, 0, -24 -24" transform="rotate(90,1576,1336)"/><path d="M 1696 1312v 48h 48v -24a 24 24, 0, 0, 0, -24 -24" transform="rotate(180,1720,1336)"/><rect x="1744" y="1312" width="48" height="48" transform="rotate(0,1768,1336)"/><rect x="1792" y="1312" width="48" height="48" transform="rotate(0,1816,1336)"/><rect x="1888" y="1312" width="48" height="48" transform="rotate(0,1912,1336)"/><path d="M 16 1360v 48h 24a 24 24, 0, 0, 0, 0 -48" transform="rotate(180,40,1384)"/><path d="M 64 1360v 48h 24a 24 24, 0, 0, 0, 0 -48" transform="rotate(0,88,1384)"/><path d="M 208 1360v 48h 24a 24 24, 0, 0, 0, 0 -48" transform="rotate(-90,232,1384)"/><path d="M 304 1360v 48h 24a 24 24, 0, 0, 0, 0 -48" transform="rotate(180,328,1384)"/><rect x="352" y="1360" width="48" height="48" transform="rotate(0,376,1384)"/><rect x="400" y="1360" width="48" height="48" transform="rotate(0,424,1384)"/><rect x="448" y="1360" width="48" height="48" transform="rotate(0,472,1384)"/><path d="M 592 1360v 48h 24a 24 24, 0, 0, 0, 0 -48" transform="rotate(90,616,1384)"/><rect x="688" y="1360" width="48" height="48" transform="rotate(0,712,1384)"/><rect x="736" y="1360" width="48" height="48" transform="rotate(0,760,1384)"/><rect x="784" y="1360" width="48" height="48" transform="rotate(0,808,1384)"/><path d="M 928 1360v 48h 48v -24a 24 24, 0, 0, 0, -24 -24" transform="rotate(180,952,1384)"/><path d="M 976 1360v 48h 48v -24a 24 24, 0, 0, 0, -24 -24" transform="rotate(0,1000,1384)"/><rect x="1072" y="1360" width="48" height="48" transform="rotate(0,1096,1384)"/><path d="M 1120 1360v 48h 24a 24 24, 0, 0, 0, 0 -48" transform="rotate(0,1144,1384)"/><path d="M 1264 1360v 48h 48v -24a 24 24, 0, 0, 0, -24 -24" transform="rotate(-90,1288,1384)"/><path d="M 1312 1360v 48h 48v -24a 24 24, 0, 0, 0, -24 -24" transform="rotate(90,1336,1384)"/><path d="M 1456 1360v 48h 48v -24a 24 24, 0, 0, 0, -24 -24" transform="rotate(180,1480,1384)"/><path d="M 1504 1360v 48h 48v -24a 24 24, 0, 0, 0, -24 -24" transform="rotate(90,1528,1384)"/><circle cx="1624" cy="1384" r="24" transform="rotate(0,1624,1384)"/><path d="M 1744 1360v 48h 48v -24a 24 24, 0, 0, 0, -24 -24" transform="rotate(180,1768,1384)"/><path d="M 1792 1360v 48h 48v -24a 24 24, 0, 0, 0, -24 -24" transform="rotate(90,1816,1384)"/><path d="M 1888 1360v 48h 48v -24a 24 24, 0, 0, 0, -24 -24" transform="rotate(180,1912,1384)"/><path d="M 1936 1360v 48h 24a 24 24, 0, 0, 0, 0 -48" transform="rotate(0,1960,1384)"/><path d="M 112 1408v 48h 24a 24 24, 0, 0, 0, 0 -48" transform="rotate(-90,136,1432)"/><path d="M 208 1408v 48h 24a 24 24, 0, 0, 0, 0 -48" transform="rotate(90,232,1432)"/><path d="M 448 1408v 48h 48v -24a 24 24, 0, 0, 0, -24 -24" transform="rotate(180,472,1432)"/><rect x="496" y="1408" width="48" height="48" transform="rotate(0,520,1432)"/><path d="M 544 1408v 48h 24a 24 24, 0, 0, 0, 0 -48" transform="rotate(0,568,1432)"/><path d="M 640 1408v 48h 48v -24a 24 24, 0, 0, 0, -24 -24" transform="rotate(-90,664,1432)"/><rect x="688" y="1408" width="48" height="48" transform="rotate(0,712,1432)"/><rect x="784" y="1408" width="48" height="48" transform="rotate(0,808,1432)"/><path d="M 880 1408v 48h 24a 24 24, 0, 0, 0, 0 -48" transform="rotate(-90,904,1432)"/><rect x="976" y="1408" width="48" height="48" transform="rotate(0,1000,1432)"/><rect x="1024" y="1408" width="48" height="48" transform="rotate(0,1048,1432)"/><path d="M 1072 1408v 48h 48v -24a 24 24, 0, 0, 0, -24 -24" transform="rotate(90,1096,1432)"/><path d="M 1216 1408v 48h 48v -24a 24 24, 0, 0, 0, -24 -24" transform="rotate(-90,1240,1432)"/><path d="M 1264 1408v 48h 48v -24a 24 24, 0, 0, 0, -24 -24" transform="rotate(90,1288,1432)"/><path d="M 1696 1408v 48h 24a 24 24, 0, 0, 0, 0 -48" transform="rotate(-90,1720,1432)"/><circle cx="1864" cy="1432" r="24" transform="rotate(0,1864,1432)"/><circle cx="40" cy="1480" r="24" transform="rotate(0,40,1480)"/><rect x="112" y="1456" width="48" height="48" transform="rotate(0,136,1480)"/><circle cx="328" cy="1480" r="24" transform="rotate(0,328,1480)"/><path d="M 400 1456v 48h 24a 24 24, 0, 0, 0, 0 -48" transform="rotate(-90,424,1480)"/><path d="M 496 1456v 48h 24a 24 24, 0, 0, 0, 0 -48" transform="rotate(90,520,1480)"/><rect x="640" y="1456" width="48" height="48" transform="rotate(0,664,1480)"/><rect x="688" y="1456" width="48" height="48" transform="rotate(0,712,1480)"/><rect x="784" y="1456" width="48" height="48" transform="rotate(0,808,1480)"/><rect x="880" y="1456" width="48" height="48" transform="rotate(0,904,1480)"/><path d="M 976 1456v 48h 48v -24a 24 24, 0, 0, 0, -24 -24" transform="rotate(180,1000,1480)"/><rect x="1024" y="1456" width="48" height="48" transform="rotate(0,1048,1480)"/><path d="M 1168 1456v 48h 48v -24a 24 24, 0, 0, 0, -24 -24" transform="rotate(-90,1192,1480)"/><path d="M 1216 1456v 48h 48v -24a 24 24, 0, 0, 0, -24 -24" transform="rotate(90,1240,1480)"/><path d="M 1552 1456v 48h 24a 24 24, 0, 0, 0, 0 -48" transform="rotate(180,1576,1480)"/><rect x="1600" y="1456" width="48" height="48" transform="rotate(0,1624,1480)"/><rect x="1648" y="1456" width="48" height="48" transform="rotate(0,1672,1480)"/><rect x="1696" y="1456" width="48" height="48" transform="rotate(0,1720,1480)"/><rect x="1744" y="1456" width="48" height="48" transform="rotate(0,1768,1480)"/><path d="M 1792 1456v 48h 48v -24a 24 24, 0, 0, 0, -24 -24" transform="rotate(0,1816,1480)"/><path d="M 112 1504v 48h 48v -24a 24 24, 0, 0, 0, -24 -24" transform="rotate(180,136,1528)"/><rect x="160" y="1504" width="48" height="48" transform="rotate(0,184,1528)"/><rect x="208" y="1504" width="48" height="48" transform="rotate(0,232,1528)"/><path d="M 256 1504v 48h 48v -24a 24 24, 0, 0, 0, -24 -24" transform="rotate(0,280,1528)"/><path d="M 400 1504v 48h 48v -24a 24 24, 0, 0, 0, -24 -24" transform="rotate(180,424,1528)"/><path d="M 448 1504v 48h 24a 24 24, 0, 0, 0, 0 -48" transform="rotate(0,472,1528)"/><path d="M 544 1504v 48h 48v -24a 24 24, 0, 0, 0, -24 -24" transform="rotate(-90,568,1528)"/><rect x="592" y="1504" width="48" height="48" transform="rotate(0,616,1528)"/><rect x="640" y="1504" width="48" height="48" transform="rotate(0,664,1528)"/><path d="M 688 1504v 48h 48v -24a 24 24, 0, 0, 0, -24 -24" transform="rotate(90,712,1528)"/><path d="M 784 1504v 48h 24a 24 24, 0, 0, 0, 0 -48" transform="rotate(90,808,1528)"/><path d="M 880 1504v 48h 24a 24 24, 0, 0, 0, 0 -48" transform="rotate(90,904,1528)"/><rect x="1024" y="1504" width="48" height="48" transform="rotate(0,1048,1528)"/><path d="M 1120 1504v 48h 48v -24a 24 24, 0, 0, 0, -24 -24" transform="rotate(-90,1144,1528)"/><path d="M 1168 1504v 48h 48v -24a 24 24, 0, 0, 0, -24 -24" transform="rotate(90,1192,1528)"/><path d="M 1312 1504v 48h 48v -24a 24 24, 0, 0, 0, -24 -24" transform="rotate(-90,1336,1528)"/><rect x="1360" y="1504" width="48" height="48" transform="rotate(0,1384,1528)"/><path d="M 1408 1504v 48h 48v -24a 24 24, 0, 0, 0, -24 -24" transform="rotate(0,1432,1528)"/><rect x="1648" y="1504" width="48" height="48" transform="rotate(0,1672,1528)"/><rect x="1696" y="1504" width="48" height="48" transform="rotate(0,1720,1528)"/><rect x="1792" y="1504" width="48" height="48" transform="rotate(0,1816,1528)"/><rect x="1840" y="1504" width="48" height="48" transform="rotate(0,1864,1528)"/><path d="M 1888 1504v 48h 48v -24a 24 24, 0, 0, 0, -24 -24" transform="rotate(0,1912,1528)"/><circle cx="88" cy="1576" r="24" transform="rotate(0,88,1576)"/><path d="M 160 1552v 48h 24a 24 24, 0, 0, 0, 0 -48" transform="rotate(90,184,1576)"/><path d="M 256 1552v 48h 48v -24a 24 24, 0, 0, 0, -24 -24" transform="rotate(180,280,1576)"/><rect x="304" y="1552" width="48" height="48" transform="rotate(0,328,1576)"/><path d="M 352 1552v 48h 24a 24 24, 0, 0, 0, 0 -48" transform="rotate(0,376,1576)"/><path d="M 496 1552v 48h 48v -24a 24 24, 0, 0, 0, -24 -24" transform="rotate(-90,520,1576)"/><rect x="544" y="1552" width="48" height="48" transform="rotate(0,568,1576)"/><path d="M 640 1552v 48h 24a 24 24, 0, 0, 0, 0 -48" transform="rotate(90,664,1576)"/><path d="M 736 1552v 48h 24a 24 24, 0, 0, 0, 0 -48" transform="rotate(-90,760,1576)"/><circle cx="856" cy="1576" r="24" transform="rotate(0,856,1576)"/><path d="M 928 1552v 48h 24a 24 24, 0, 0, 0, 0 -48" transform="rotate(-90,952,1576)"/><rect x="1024" y="1552" width="48" height="48" transform="rotate(0,1048,1576)"/><rect x="1072" y="1552" width="48" height="48" transform="rotate(0,1096,1576)"/><rect x="1120" y="1552" width="48" height="48" transform="rotate(0,1144,1576)"/><path d="M 1312 1552v 48h 48v -24a 24 24, 0, 0, 0, -24 -24" transform="rotate(180,1336,1576)"/><rect x="1360" y="1552" width="48" height="48" transform="rotate(0,1384,1576)"/><rect x="1408" y="1552" width="48" height="48" transform="rotate(0,1432,1576)"/><rect x="1456" y="1552" width="48" height="48" transform="rotate(0,1480,1576)"/><rect x="1504" y="1552" width="48" height="48" transform="rotate(0,1528,1576)"/><rect x="1552" y="1552" width="48" height="48" transform="rotate(0,1576,1576)"/><rect x="1600" y="1552" width="48" height="48" transform="rotate(0,1624,1576)"/><rect x="1648" y="1552" width="48" height="48" transform="rotate(0,1672,1576)"/><rect x="1696" y="1552" width="48" height="48" transform="rotate(0,1720,1576)"/><rect x="1744" y="1552" width="48" height="48" transform="rotate(0,1768,1576)"/><rect x="1792" y="1552" width="48" height="48" transform="rotate(0,1816,1576)"/><rect x="1840" y="1552" width="48" height="48" transform="rotate(0,1864,1576)"/><rect x="1888" y="1552" width="48" height="48" transform="rotate(0,1912,1576)"/><path d="M 1936 1552v 48h 48v -24a 24 24, 0, 0, 0, -24 -24" transform="rotate(0,1960,1576)"/><path d="M 400 1600v 48h 24a 24 24, 0, 0, 0, 0 -48" transform="rotate(-90,424,1624)"/><rect x="496" y="1600" width="48" height="48" transform="rotate(0,520,1624)"/><rect x="544" y="1600" width="48" height="48" transform="rotate(0,568,1624)"/><path d="M 688 1600v 48h 24a 24 24, 0, 0, 0, 0 -48" transform="rotate(180,712,1624)"/><rect x="736" y="1600" width="48" height="48" transform="rotate(0,760,1624)"/><path d="M 784 1600v 48h 24a 24 24, 0, 0, 0, 0 -48" transform="rotate(0,808,1624)"/><path d="M 880 1600v 48h 24a 24 24, 0, 0, 0, 0 -48" transform="rotate(180,904,1624)"/><rect x="928" y="1600" width="48" height="48" transform="rotate(0,952,1624)"/><rect x="1024" y="1600" width="48" height="48" transform="rotate(0,1048,1624)"/><path d="M 1120 1600v 48h 48v -24a 24 24, 0, 0, 0, -24 -24" transform="rotate(180,1144,1624)"/><path d="M 1168 1600v 48h 48v -24a 24 24, 0, 0, 0, -24 -24" transform="rotate(0,1192,1624)"/><path d="M 1264 1600v 48h 24a 24 24, 0, 0, 0, 0 -48" transform="rotate(-90,1288,1624)"/><path d="M 1360 1600v 48h 24a 24 24, 0, 0, 0, 0 -48" transform="rotate(90,1384,1624)"/><path d="M 1456 1600v 48h 24a 24 24, 0, 0, 0, 0 -48" transform="rotate(90,1480,1624)"/><rect x="1552" y="1600" width="48" height="48" transform="rotate(0,1576,1624)"/><rect x="1744" y="1600" width="48" height="48" transform="rotate(0,1768,1624)"/><path d="M 1936 1600v 48h 24a 24 24, 0, 0, 0, 0 -48" transform="rotate(90,1960,1624)"/><path d="M 400 1648v 48h 48v -24a 24 24, 0, 0, 0, -24 -24" transform="rotate(180,424,1672)"/><rect x="448" y="1648" width="48" height="48" transform="rotate(0,472,1672)"/><rect x="496" y="1648" width="48" height="48" transform="rotate(0,520,1672)"/><path d="M 544 1648v 48h 48v -24a 24 24, 0, 0, 0, -24 -24" transform="rotate(90,568,1672)"/><path d="M 640 1648v 48h 24a 24 24, 0, 0, 0, 0 -48" transform="rotate(-90,664,1672)"/><circle cx="856" cy="1672" r="24" transform="rotate(0,856,1672)"/><path d="M 928 1648v 48h 24a 24 24, 0, 0, 0, 0 -48" transform="rotate(90,952,1672)"/><rect x="1024" y="1648" width="48" height="48" transform="rotate(0,1048,1672)"/><rect x="1168" y="1648" width="48" height="48" transform="rotate(0,1192,1672)"/><rect x="1216" y="1648" width="48" height="48" transform="rotate(0,1240,1672)"/><rect x="1264" y="1648" width="48" height="48" transform="rotate(0,1288,1672)"/><circle cx="1432" cy="1672" r="24" transform="rotate(0,1432,1672)"/><path d="M 1504 1648v 48h 24a 24 24, 0, 0, 0, 0 -48" transform="rotate(180,1528,1672)"/><rect x="1552" y="1648" width="48" height="48" transform="rotate(0,1576,1672)"/><circle cx="1672" cy="1672" r="24" transform="rotate(0,1672,1672)"/><rect x="1744" y="1648" width="48" height="48" transform="rotate(0,1768,1672)"/><path d="M 1888 1648v 48h 24a 24 24, 0, 0, 0, 0 -48" transform="rotate(-90,1912,1672)"/><path d="M 592 1696v 48h 48v -24a 24 24, 0, 0, 0, -24 -24" transform="rotate(-90,616,1720)"/><rect x="640" y="1696" width="48" height="48" transform="rotate(0,664,1720)"/><path d="M 688 1696v 48h 24a 24 24, 0, 0, 0, 0 -48" transform="rotate(0,712,1720)"/><circle cx="904" cy="1720" r="24" transform="rotate(0,904,1720)"/><path d="M 976 1696v 48h 24a 24 24, 0, 0, 0, 0 -48" transform="rotate(180,1000,1720)"/><path d="M 1024 1696v 48h 48v -24a 24 24, 0, 0, 0, -24 -24" transform="rotate(90,1048,1720)"/><path d="M 1168 1696v 48h 48v -24a 24 24, 0, 0, 0, -24 -24" transform="rotate(180,1192,1720)"/><rect x="1216" y="1696" width="48" height="48" transform="rotate(0,1240,1720)"/><rect x="1264" y="1696" width="48" height="48" transform="rotate(0,1288,1720)"/><rect x="1312" y="1696" width="48" height="48" transform="rotate(0,1336,1720)"/><path d="M 1360 1696v 48h 24a 24 24, 0, 0, 0, 0 -48" transform="rotate(0,1384,1720)"/><path d="M 1456 1696v 48h 24a 24 24, 0, 0, 0, 0 -48" transform="rotate(-90,1480,1720)"/><rect x="1552" y="1696" width="48" height="48" transform="rotate(0,1576,1720)"/><rect x="1744" y="1696" width="48" height="48" transform="rotate(0,1768,1720)"/><rect x="1888" y="1696" width="48" height="48" transform="rotate(0,1912,1720)"/><path d="M 1936 1696v 48h 48v -24a 24 24, 0, 0, 0, -24 -24" transform="rotate(0,1960,1720)"/><path d="M 496 1744v 48h 48v -24a 24 24, 0, 0, 0, -24 -24" transform="rotate(-90,520,1768)"/><rect x="544" y="1744" width="48" height="48" transform="rotate(0,568,1768)"/><path d="M 592 1744v 48h 48v -24a 24 24, 0, 0, 0, -24 -24" transform="rotate(90,616,1768)"/><path d="M 1072 1744v 48h 24a 24 24, 0, 0, 0, 0 -48" transform="rotate(180,1096,1768)"/><path d="M 1120 1744v 48h 48v -24a 24 24, 0, 0, 0, -24 -24" transform="rotate(0,1144,1768)"/><rect x="1216" y="1744" width="48" height="48" transform="rotate(0,1240,1768)"/><rect x="1264" y="1744" width="48" height="48" transform="rotate(0,1288,1768)"/><rect x="1312" y="1744" width="48" height="48" transform="rotate(0,1336,1768)"/><rect x="1456" y="1744" width="48" height="48" transform="rotate(0,1480,1768)"/><path d="M 1552 1744v 48h 48v -24a 24 24, 0, 0, 0, -24 -24" transform="rotate(180,1576,1768)"/><rect x="1600" y="1744" width="48" height="48" transform="rotate(0,1624,1768)"/><rect x="1648" y="1744" width="48" height="48" transform="rotate(0,1672,1768)"/><rect x="1696" y="1744" width="48" height="48" transform="rotate(0,1720,1768)"/><rect x="1744" y="1744" width="48" height="48" transform="rotate(0,1768,1768)"/><path d="M 1840 1744v 48h 24a 24 24, 0, 0, 0, 0 -48" transform="rotate(180,1864,1768)"/><rect x="1888" y="1744" width="48" height="48" transform="rotate(0,1912,1768)"/><rect x="1936" y="1744" width="48" height="48" transform="rotate(0,1960,1768)"/><path d="M 400 1792v 48h 24a 24 24, 0, 0, 0, 0 -48" transform="rotate(-90,424,1816)"/><path d="M 496 1792v 48h 24a 24 24, 0, 0, 0, 0 -48" transform="rotate(90,520,1816)"/><path d="M 688 1792v 48h 24a 24 24, 0, 0, 0, 0 -48" transform="rotate(-90,712,1816)"/><path d="M 784 1792v 48h 48v -24a 24 24, 0, 0, 0, -24 -24" transform="rotate(-90,808,1816)"/><path d="M 832 1792v 48h 48v -24a 24 24, 0, 0, 0, -24 -24" transform="rotate(0,856,1816)"/><path d="M 928 1792v 48h 24a 24 24, 0, 0, 0, 0 -48" transform="rotate(-90,952,1816)"/><circle cx="1048" cy="1816" r="24" transform="rotate(0,1048,1816)"/><path d="M 1120 1792v 48h 24a 24 24, 0, 0, 0, 0 -48" transform="rotate(90,1144,1816)"/><path d="M 1216 1792v 48h 24a 24 24, 0, 0, 0, 0 -48" transform="rotate(90,1240,1816)"/><path d="M 1312 1792v 48h 24a 24 24, 0, 0, 0, 0 -48" transform="rotate(90,1336,1816)"/><path d="M 1456 1792v 48h 48v -24a 24 24, 0, 0, 0, -24 -24" transform="rotate(180,1480,1816)"/><path d="M 1504 1792v 48h 24a 24 24, 0, 0, 0, 0 -48" transform="rotate(0,1528,1816)"/><path d="M 1744 1792v 48h 24a 24 24, 0, 0, 0, 0 -48" transform="rotate(90,1768,1816)"/><path d="M 1888 1792v 48h 48v -24a 24 24, 0, 0, 0, -24 -24" transform="rotate(180,1912,1816)"/><rect x="1936" y="1792" width="48" height="48" transform="rotate(0,1960,1816)"/><path d="M 400 1840v 48h 24a 24 24, 0, 0, 0, 0 -48" transform="rotate(90,424,1864)"/><path d="M 544 1840v 48h 48v -24a 24 24, 0, 0, 0, -24 -24" transform="rotate(-90,568,1864)"/><rect x="592" y="1840" width="48" height="48" transform="rotate(0,616,1864)"/><rect x="640" y="1840" width="48" height="48" transform="rotate(0,664,1864)"/><rect x="688" y="1840" width="48" height="48" transform="rotate(0,712,1864)"/><rect x="736" y="1840" width="48" height="48" transform="rotate(0,760,1864)"/><rect x="784" y="1840" width="48" height="48" transform="rotate(0,808,1864)"/><rect x="832" y="1840" width="48" height="48" transform="rotate(0,856,1864)"/><rect x="880" y="1840" width="48" height="48" transform="rotate(0,904,1864)"/><rect x="928" y="1840" width="48" height="48" transform="rotate(0,952,1864)"/><path d="M 976 1840v 48h 48v -24a 24 24, 0, 0, 0, -24 -24" transform="rotate(0,1000,1864)"/><circle cx="1096" cy="1864" r="24" transform="rotate(0,1096,1864)"/><circle cx="1192" cy="1864" r="24" transform="rotate(0,1192,1864)"/><path d="M 1552 1840v 48h 24a 24 24, 0, 0, 0, 0 -48" transform="rotate(-90,1576,1864)"/><circle cx="1720" cy="1864" r="24" transform="rotate(0,1720,1864)"/><circle cx="1816" cy="1864" r="24" transform="rotate(0,1816,1864)"/><path d="M 1936 1840v 48h 24a 24 24, 0, 0, 0, 0 -48" transform="rotate(90,1960,1864)"/><path d="M 544 1888v 48h 48v -24a 24 24, 0, 0, 0, -24 -24" transform="rotate(180,568,1912)"/><rect x="592" y="1888" width="48" height="48" transform="rotate(0,616,1912)"/><rect x="640" y="1888" width="48" height="48" transform="rotate(0,664,1912)"/><path d="M 688 1888v 48h 48v -24a 24 24, 0, 0, 0, -24 -24" transform="rotate(90,712,1912)"/><rect x="784" y="1888" width="48" height="48" transform="rotate(0,808,1912)"/><rect x="880" y="1888" width="48" height="48" transform="rotate(0,904,1912)"/><path d="M 976 1888v 48h 48v -24a 24 24, 0, 0, 0, -24 -24" transform="rotate(180,1000,1912)"/><path d="M 1024 1888v 48h 48v -24a 24 24, 0, 0, 0, -24 -24" transform="rotate(0,1048,1912)"/><circle cx="1144" cy="1912" r="24" transform="rotate(0,1144,1912)"/><path d="M 1216 1888v 48h 48v -24a 24 24, 0, 0, 0, -24 -24" transform="rotate(-90,1240,1912)"/><rect x="1264" y="1888" width="48" height="48" transform="rotate(0,1288,1912)"/><path d="M 1312 1888v 48h 24a 24 24, 0, 0, 0, 0 -48" transform="rotate(0,1336,1912)"/><rect x="1552" y="1888" width="48" height="48" transform="rotate(0,1576,1912)"/><path d="M 1600 1888v 48h 48v -24a 24 24, 0, 0, 0, -24 -24" transform="rotate(0,1624,1912)"/><circle cx="1768" cy="1912" r="24" transform="rotate(0,1768,1912)"/><path d="M 1888 1888v 48h 24a 24 24, 0, 0, 0, 0 -48" transform="rotate(-90,1912,1912)"/><circle cx="520" cy="1960" r="24" transform="rotate(0,520,1960)"/><path d="M 592 1936v 48h 48v -24a 24 24, 0, 0, 0, -24 -24" transform="rotate(180,616,1960)"/><path d="M 640 1936v 48h 48v -24a 24 24, 0, 0, 0, -24 -24" transform="rotate(90,664,1960)"/><path d="M 784 1936v 48h 24a 24 24, 0, 0, 0, 0 -48" transform="rotate(90,808,1960)"/><path d="M 880 1936v 48h 48v -24a 24 24, 0, 0, 0, -24 -24" transform="rotate(180,904,1960)"/><path d="M 928 1936v 48h 24a 24 24, 0, 0, 0, 0 -48" transform="rotate(0,952,1960)"/><path d="M 1024 1936v 48h 24a 24 24, 0, 0, 0, 0 -48" transform="rotate(90,1048,1960)"/><path d="M 1168 1936v 48h 24a 24 24, 0, 0, 0, 0 -48" transform="rotate(180,1192,1960)"/><path d="M 1216 1936v 48h 48v -24a 24 24, 0, 0, 0, -24 -24" transform="rotate(90,1240,1960)"/><path d="M 1456 1936v 48h 24a 24 24, 0, 0, 0, 0 -48" transform="rotate(180,1480,1960)"/><rect x="1504" y="1936" width="48" height="48" transform="rotate(0,1528,1960)"/><rect x="1552" y="1936" width="48" height="48" transform="rotate(0,1576,1960)"/><path d="M 1600 1936v 48h 48v -24a 24 24, 0, 0, 0, -24 -24" transform="rotate(90,1624,1960)"/><circle cx="1816" cy="1960" r="24" transform="rotate(0,1816,1960)"/><path d="M 1888 1936v 48h 24a 24 24, 0, 0, 0, 0 -48" transform="rotate(90,1912,1960)"/></clipPath><clipPath id="clip-path-corners-square-color-0-0-10"><path clip-rule="evenodd" d="M 16 136v 96a 120 120, 0, 0, 0, 120 120h 96a 120 120, 0, 0, 0, 120 -120v -96a 120 120, 0, 0, 0, -120 -120h -96a 120 120, 0, 0, 0, -120 120M 136 64h 96a 72 72, 0, 0, 1, 72 72v 96a 72 72, 0, 0, 1, -72 72h -96a 72 72, 0, 0, 1, -72 -72v -96a 72 72, 0, 0, 1, 72 -72" transform="rotate(0,184,184)"/></clipPath><clipPath id="clip-path-corners-dot-color-0-0-10"><circle cx="184" cy="184" r="72" transform="rotate(0,184,184)"/></clipPath><clipPath id="clip-path-corners-square-color-1-0-10"><path clip-rule="evenodd" d="M 1648 136v 96a 120 120, 0, 0, 0, 120 120h 96a 120 120, 0, 0, 0, 120 -120v -96a 120 120, 0, 0, 0, -120 -120h -96a 120 120, 0, 0, 0, -120 120M 1768 64h 96a 72 72, 0, 0, 1, 72 72v 96a 72 72, 0, 0, 1, -72 72h -96a 72 72, 0, 0, 1, -72 -72v -96a 72 72, 0, 0, 1, 72 -72" transform="rotate(90,1816,184)"/></clipPath><clipPath id="clip-path-corners-dot-color-1-0-10"><circle cx="1816" cy="184" r="72" transform="rotate(90,1816,184)"/></clipPath><clipPath id="clip-path-corners-square-color-0-1-10"><path clip-rule="evenodd" d="M 16 1768v 96a 120 120, 0, 0, 0, 120 120h 96a 120 120, 0, 0, 0, 120 -120v -96a 120 120, 0, 0, 0, -120 -120h -96a 120 120, 0, 0, 0, -120 120M 136 1696h 96a 72 72, 0, 0, 1, 72 72v 96a 72 72, 0, 0, 1, -72 72h -96a 72 72, 0, 0, 1, -72 -72v -96a 72 72, 0, 0, 1, 72 -72" transform="rotate(-90,184,1816)"/></clipPath><clipPath id="clip-path-corners-dot-color-0-1-10"><circle cx="184" cy="1816" r="72" transform="rotate(-90,184,1816)"/></clipPath></defs><rect x="0" y="0" height="2000" width="2000" clip-path="url('#clip-path-background-color-10')" fill="#1f1f1f"/><rect x="0" y="0" height="2000" width="2000" clip-path="url('#clip-path-dot-color-10')" fill="#2dd4bf"/><rect x="16" y="16" height="336" width="336" clip-path="url('#clip-path-corners-square-color-0-0-10')" fill="#2dd4bf"/><rect x="112" y="112" height="144" width="144" clip-path="url('#clip-path-corners-dot-color-0-0-10')" fill="#ffbd4a"/><rect x="1648" y="16" height="336" width="336" clip-path="url('#clip-path-corners-square-color-1-0-10')" fill="#2dd4bf"/><rect x="1744" y="112" height="144" width="144" clip-path="url('#clip-path-corners-dot-color-1-0-10')" fill="#ffbd4a"/><rect x="16" y="1648" height="336" width="336" clip-path="url('#clip-path-corners-square-color-0-1-10')" fill="#2dd4bf"/><rect x="112" y="1744" height="144" width="144" clip-path="url('#clip-path-corners-dot-color-0-1-10')" fill="#ffbd4a"/></svg>