<?xml version="1.0" encoding="utf-8"?>
<!-- QR Eyelet Template — eyelets only, no data dots -->
<!-- Data dots go inside: <g transform="translate(38,38)"> ... </g> -->
<svg version="1.1" id="Layer_1" xmlns="http://www.w3.org/2000/svg" xmlns:xlink="http://www.w3.org/1999/xlink" x="0px" y="0px"
width="703px" height="703px" viewBox="0 0 703 703" enable-background="new 0 0 703 703" xml:space="preserve">
<rect x="0" y="0" width="703" height="703" fill="rgb(31,31,31)" />
<g transform="translate(38,38)">
<g transform="translate(0,0) scale(1.33, 1.33)"><g transform=" translate(0,100) scale(1,-1) " style="fill: rgb(45, 212, 191); stroke: rgb(45, 212, 191); stroke-width: 1;" vector-effect="non-scaling-stroke">
<g>
</g>
<g>
	<path fill="none" d="M15.02,34.145L15.004,85H66.25C76.589,85,85,76.414,85,65.86V15H33.78C23.436,15,15.02,23.586,15.02,34.145z"
		/>
	<path fill-rule="evenodd" d="M66.25,0H33.78C15.16,0,0.02,15.32,0.02,34.14L0,100h66.25C84.86,100,100,84.68,100,65.86V34.14V0H66.25z M85,65.86
		C85,76.414,76.589,85,66.25,85H15.004l0.016-50.855C15.02,23.586,23.436,15,33.78,15H85V65.86z"/>
</g>
</g></g>
<g transform="translate(494,0) scale(1.33, 1.33)"><g transform="" style="fill: rgb(45, 212, 191); stroke: rgb(45, 212, 191); stroke-width: 1;" vector-effect="non-scaling-stroke">
<g>
</g>
<g>
	<path fill="none" d="M15.02,34.145L15.004,85H66.25C76.589,85,85,76.414,85,65.86V15H33.78C23.436,15,15.02,23.586,15.02,34.145z"
		/>
	<path fill-rule="evenodd" d="M66.25,0H33.78C15.16,0,0.02,15.32,0.02,34.14L0,100h66.25C84.86,100,100,84.68,100,65.86V34.14V0H66.25z M85,65.86
		C85,76.414,76.589,85,66.25,85H15.004l0.016-50.855C15.02,23.586,23.436,15,33.78,15H85V65.86z"/>
</g>
</g></g>
<g transform="translate(0,494) scale(1.33, 1.33)"><g transform="" style="fill: rgb(45, 212, 191); stroke: rgb(45, 212, 191); stroke-width: 1;" vector-effect="non-scaling-stroke">
<g>
</g>
<g>
	<path fill="none" d="M15.02,34.145L15.004,85H66.25C76.589,85,85,76.414,85,65.86V15H33.78C23.436,15,15.02,23.586,15.02,34.145z"
		/>
	<path fill-rule="evenodd" d="M66.25,0H33.78C15.16,0,0.02,15.32,0.02,34.14L0,100h66.25C84.86,100,100,84.68,100,65.86V34.14V0H66.25z M85,65.86
		C85,76.414,76.589,85,66.25,85H15.004l0.016-50.855C15.02,23.586,23.436,15,33.78,15H85V65.86z"/>
</g>
</g></g>
<g transform="translate(38,38) scale(0.57, 0.57)"><g transform=" translate(0,100) scale(1,-1) " style="fill: rgb(255, 189, 74);">
<g>
</g>
<path d="M72.744-0.021H27.23c-2.341,0-4.612,0.297-6.771,0.875C15.679,2.11,11.418,4.648,8.04,8.09
	c-0.617,0.621-1.206,1.284-1.752,1.96c-3.883,4.767-6.21,10.903-6.21,17.561L0.05,99.979h72.694
	c14.971,0,27.138-12.397,27.138-27.63V27.625v-0.014l0.168-27.617C100.05-0.006,82.107-0.021,72.744-0.021z"/>
</g></g>
<g transform="translate(532,38) scale(0.57, 0.57)"><g transform="" style="fill: rgb(255, 189, 74);">
<g>
</g>
<path d="M72.744-0.021H27.23c-2.341,0-4.612,0.297-6.771,0.875C15.679,2.11,11.418,4.648,8.04,8.09
	c-0.617,0.621-1.206,1.284-1.752,1.96c-3.883,4.767-6.21,10.903-6.21,17.561L0.05,99.979h72.694
	c14.971,0,27.138-12.397,27.138-27.63V27.625v-0.014l0.168-27.617C100.05-0.006,82.107-0.021,72.744-0.021z"/>
</g></g>
<g transform="translate(38,532) scale(0.57, 0.57)"><g transform="" style="fill: rgb(255, 189, 74);">
<g>
</g>
<path d="M72.744-0.021H27.23c-2.341,0-4.612,0.297-6.771,0.875C15.679,2.11,11.418,4.648,8.04,8.09
	c-0.617,0.621-1.206,1.284-1.752,1.96c-3.883,4.767-6.21,10.903-6.21,17.561L0.05,99.979h72.694
	c14.971,0,27.138-12.397,27.138-27.63V27.625v-0.014l0.168-27.617C100.05-0.006,82.107-0.021,72.744-0.021z"/>
</g></g>
<!-- DATA_DOTS_PLACEHOLDER -->
</g>
</svg>