<?xml version="1.0" standalone="no"?>
<svg xmlns="http://www.w3.org/2000/svg" width="2000" height="2000" xmlns:xlink="http://www.w3.org/1999/xlink" viewBox="0 0 2000 2000"><defs><clipPath id="clip-path-background-color-0"><rect x="0" y="0" width="2000" height="2000"/></clipPath><clipPath id="clip-path-dot-color-0"><circle cx="520" cy="40" r="30" transform="rotate(0,520,40)"/><path d="M 670 10v 60h 30a 30 30, 0, 0, 0, 0 -60" transform="rotate(-90,700,40)"/><path d="M 790 10v 60h 60v -30a 30 30, 0, 0, 0, -30 -30" transform="rotate(-90,820,40)"/><rect x="850" y="10" width="60" height="60" transform="rotate(0,880,40)"/><rect x="910" y="10" width="60" height="60" transform="rotate(0,940,40)"/><rect x="970" y="10" width="60" height="60" transform="rotate(0,1000,40)"/><rect x="1030" y="10" width="60" height="60" transform="rotate(0,1060,40)"/><rect x="1090" y="10" width="60" height="60" transform="rotate(0,1120,40)"/><path d="M 1150 10v 60h 30a 30 30, 0, 0, 0, 0 -60" transform="rotate(0,1180,40)"/><path d="M 1270 10v 60h 30a 30 30, 0, 0, 0, 0 -60" transform="rotate(180,1300,40)"/><path d="M 1330 10v 60h 60v -30a 30 30, 0, 0, 0, -30 -30" transform="rotate(0,1360,40)"/><path d="M 1450 10v 60h 30a 30 30, 0, 0, 0, 0 -60" transform="rotate(-90,1480,40)"/><path d="M 550 70v 60h 30a 30 30, 0, 0, 0, 0 -60" transform="rotate(-90,580,100)"/><path d="M 670 70v 60h 60v -30a 30 30, 0, 0, 0, -30 -30" transform="rotate(180,700,100)"/><rect x="730" y="70" width="60" height="60" transform="rotate(0,760,100)"/><rect x="790" y="70" width="60" height="60" transform="rotate(0,820,100)"/><rect x="910" y="70" width="60" height="60" transform="rotate(0,940,100)"/><path d="M 1030 70v 60h 60v -30a 30 30, 0, 0, 0, -30 -30" transform="rotate(180,1060,100)"/><rect x="1090" y="70" width="60" height="60" transform="rotate(0,1120,100)"/><rect x="1330" y="70" width="60" height="60" transform="rotate(0,1360,100)"/><rect x="1450" y="70" width="60" height="60" transform="rotate(0,1480,100)"/><path d="M 490 130v 60h 30a 30 30, 0, 0, 0, 0 -60" transform="rotate(180,520,160)"/><rect x="550" y="130" width="60" height="60" transform="rotate(0,580,160)"/><path d="M 790 130v 60h 30a 30 30, 0, 0, 0, 0 -60" transform="rotate(90,820,160)"/><rect x="910" y="130" width="60" height="60" transform="rotate(0,940,160)"/><path d="M 970 130v 60h 30a 30 30, 0, 0, 0, 0 -60" transform="rotate(0,1000,160)"/><path d="M 1090 130v 60h 30a 30 30, 0, 0, 0, 0 -60" transform="rotate(90,1120,160)"/><path d="M 1270 130v 60h 60v -30a 30 30, 0, 0, 0, -30 -30" transform="rotate(-90,1300,160)"/><rect x="1330" y="130" width="60" height="60" transform="rotate(0,1360,160)"/><rect x="1390" y="130" width="60" height="60" transform="rotate(0,1420,160)"/><rect x="1450" y="130" width="60" height="60" transform="rotate(0,1480,160)"/><rect x="550" y="190" width="60" height="60" transform="rotate(0,580,220)"/><rect x="910" y="190" width="60" height="60" transform="rotate(0,940,220)"/><circle cx="1060" cy="220" r="30" transform="rotate(0,1060,220)"/><path d="M 1210 190v 60h 60v -30a 30 30, 0, 0, 0, -30 -30" transform="rotate(-90,1240,220)"/><rect x="1270" y="190" width="60" height="60" transform="rotate(0,1300,220)"/><path d="M 1390 190v 60h 60v -30a 30 30, 0, 0, 0, -30 -30" transform="rotate(180,1420,220)"/><path d="M 1450 190v 60h 60v -30a 30 30, 0, 0, 0, -30 -30" transform="rotate(90,1480,220)"/><path d="M 490 250v 60h 30a 30 30, 0, 0, 0, 0 -60" transform="rotate(180,520,280)"/><rect x="550" y="250" width="60" height="60" transform="rotate(0,580,280)"/><path d="M 610 250v 60h 60v -30a 30 30, 0, 0, 0, -30 -30" transform="rotate(0,640,280)"/><path d="M 730 250v 60h 60v -30a 30 30, 0, 0, 0, -30 -30" transform="rotate(-90,760,280)"/><rect x="790" y="250" width="60" height="60" transform="rotate(0,820,280)"/><rect x="850" y="250" width="60" height="60" transform="rotate(0,880,280)"/><rect x="910" y="250" width="60" height="60" transform="rotate(0,940,280)"/><path d="M 970 250v 60h 60v -30a 30 30, 0, 0, 0, -30 -30" transform="rotate(0,1000,280)"/><path d="M 1150 250v 60h 30a 30 30, 0, 0, 0, 0 -60" transform="rotate(180,1180,280)"/><rect x="1210" y="250" width="60" height="60" transform="rotate(0,1240,280)"/><path d="M 1270 250v 60h 60v -30a 30 30, 0, 0, 0, -30 -30" transform="rotate(90,1300,280)"/><path d="M 550 310v 60h 60v -30a 30 30, 0, 0, 0, -30 -30" transform="rotate(180,580,340)"/><rect x="610" y="310" width="60" height="60" transform="rotate(0,640,340)"/><rect x="670" y="310" width="60" height="60" transform="rotate(0,700,340)"/><rect x="730" y="310" width="60" height="60" transform="rotate(0,760,340)"/><rect x="850" y="310" width="60" height="60" transform="rotate(0,880,340)"/><rect x="970" y="310" width="60" height="60" transform="rotate(0,1000,340)"/><path d="M 1090 310v 60h 30a 30 30, 0, 0, 0, 0 -60" transform="rotate(-90,1120,340)"/><rect x="1210" y="310" width="60" height="60" transform="rotate(0,1240,340)"/><path d="M 1330 310v 60h 60v -30a 30 30, 0, 0, 0, -30 -30" transform="rotate(-90,1360,340)"/><rect x="1390" y="310" width="60" height="60" transform="rotate(0,1420,340)"/><path d="M 1450 310v 60h 60v -30a 30 30, 0, 0, 0, -30 -30" transform="rotate(0,1480,340)"/><path d="M 490 370v 60h 30a 30 30, 0, 0, 0, 0 -60" transform="rotate(-90,520,400)"/><path d="M 610 370v 60h 30a 30 30, 0, 0, 0, 0 -60" transform="rotate(90,640,400)"/><rect x="730" y="370" width="60" height="60" transform="rotate(0,760,400)"/><rect x="850" y="370" width="60" height="60" transform="rotate(0,880,400)"/><path d="M 970 370v 60h 30a 30 30, 0, 0, 0, 0 -60" transform="rotate(90,1000,400)"/><rect x="1090" y="370" width="60" height="60" transform="rotate(0,1120,400)"/><rect x="1210" y="370" width="60" height="60" transform="rotate(0,1240,400)"/><path d="M 1330 370v 60h 30a 30 30, 0, 0, 0, 0 -60" transform="rotate(90,1360,400)"/><path d="M 1450 370v 60h 30a 30 30, 0, 0, 0, 0 -60" transform="rotate(90,1480,400)"/><path d="M 490 430v 60h 30a 30 30, 0, 0, 0, 0 -60" transform="rotate(90,520,460)"/><path d="M 730 430v 60h 30a 30 30, 0, 0, 0, 0 -60" transform="rotate(90,760,460)"/><path d="M 850 430v 60h 30a 30 30, 0, 0, 0, 0 -60" transform="rotate(90,880,460)"/><path d="M 1030 430v 60h 30a 30 30, 0, 0, 0, 0 -60" transform="rotate(180,1060,460)"/><path d="M 1090 430v 60h 60v -30a 30 30, 0, 0, 0, -30 -30" transform="rotate(90,1120,460)"/><path d="M 1210 430v 60h 30a 30 30, 0, 0, 0, 0 -60" transform="rotate(90,1240,460)"/><path d="M 1390 430v 60h 30a 30 30, 0, 0, 0, 0 -60" transform="rotate(-90,1420,460)"/><path d="M 310 490v 60h 60v -30a 30 30, 0, 0, 0, -30 -30" transform="rotate(-90,340,520)"/><path d="M 370 490v 60h 30a 30 30, 0, 0, 0, 0 -60" transform="rotate(0,400,520)"/><path d="M 550 490v 60h 60v -30a 30 30, 0, 0, 0, -30 -30" transform="rotate(-90,580,520)"/><rect x="610" y="490" width="60" height="60" transform="rotate(0,640,520)"/><path d="M 670 490v 60h 30a 30 30, 0, 0, 0, 0 -60" transform="rotate(0,700,520)"/><path d="M 910 490v 60h 30a 30 30, 0, 0, 0, 0 -60" transform="rotate(-90,940,520)"/><circle cx="1180" cy="520" r="30" transform="rotate(0,1180,520)"/><path d="M 1330 490v 60h 60v -30a 30 30, 0, 0, 0, -30 -30" transform="rotate(-90,1360,520)"/><rect x="1390" y="490" width="60" height="60" transform="rotate(0,1420,520)"/><path d="M 1450 490v 60h 30a 30 30, 0, 0, 0, 0 -60" transform="rotate(0,1480,520)"/><circle cx="1600" cy="520" r="30" transform="rotate(0,1600,520)"/><path d="M 1690 490v 60h 30a 30 30, 0, 0, 0, 0 -60" transform="rotate(-90,1720,520)"/><circle cx="1840" cy="520" r="30" transform="rotate(0,1840,520)"/><circle cx="1960" cy="520" r="30" transform="rotate(0,1960,520)"/><path d="M 130 550v 60h 60v -30a 30 30, 0, 0, 0, -30 -30" transform="rotate(-90,160,580)"/><rect x="190" y="550" width="60" height="60" transform="rotate(0,220,580)"/><rect x="250" y="550" width="60" height="60" transform="rotate(0,280,580)"/><rect x="310" y="550" width="60" height="60" transform="rotate(0,340,580)"/><path d="M 490 550v 60h 30a 30 30, 0, 0, 0, 0 -60" transform="rotate(180,520,580)"/><rect x="550" y="550" width="60" height="60" transform="rotate(0,580,580)"/><path d="M 790 550v 60h 30a 30 30, 0, 0, 0, 0 -60" transform="rotate(-90,820,580)"/><path d="M 910 550v 60h 60v -30a 30 30, 0, 0, 0, -30 -30" transform="rotate(180,940,580)"/><rect x="970" y="550" width="60" height="60" transform="rotate(0,1000,580)"/><path d="M 1030 550v 60h 30a 30 30, 0, 0, 0, 0 -60" transform="rotate(0,1060,580)"/><path d="M 1210 550v 60h 30a 30 30, 0, 0, 0, 0 -60" transform="rotate(-90,1240,580)"/><path d="M 1330 550v 60h 60v -30a 30 30, 0, 0, 0, -30 -30" transform="rotate(180,1360,580)"/><path d="M 1390 550v 60h 60v -30a 30 30, 0, 0, 0, -30 -30" transform="rotate(90,1420,580)"/><path d="M 1510 550v 60h 30a 30 30, 0, 0, 0, 0 -60" transform="rotate(-90,1540,580)"/><path d="M 1630 550v 60h 60v -30a 30 30, 0, 0, 0, -30 -30" transform="rotate(-90,1660,580)"/><path d="M 1690 550v 60h 60v -30a 30 30, 0, 0, 0, -30 -30" transform="rotate(90,1720,580)"/><path d="M 1870 550v 60h 30a 30 30, 0, 0, 0, 0 -60" transform="rotate(-90,1900,580)"/><rect x="130" y="610" width="60" height="60" transform="rotate(0,160,640)"/><path d="M 310 610v 60h 60v -30a 30 30, 0, 0, 0, -30 -30" transform="rotate(180,340,640)"/><path d="M 370 610v 60h 30a 30 30, 0, 0, 0, 0 -60" transform="rotate(0,400,640)"/><path d="M 550 610v 60h 60v -30a 30 30, 0, 0, 0, -30 -30" transform="rotate(180,580,640)"/><rect x="610" y="610" width="60" height="60" transform="rotate(0,640,640)"/><rect x="670" y="610" width="60" height="60" transform="rotate(0,700,640)"/><rect x="730" y="610" width="60" height="60" transform="rotate(0,760,640)"/><path d="M 790 610v 60h 60v -30a 30 30, 0, 0, 0, -30 -30" transform="rotate(90,820,640)"/><path d="M 1150 610v 60h 60v -30a 30 30, 0, 0, 0, -30 -30" transform="rotate(-90,1180,640)"/><rect x="1210" y="610" width="60" height="60" transform="rotate(0,1240,640)"/><path d="M 1270 610v 60h 30a 30 30, 0, 0, 0, 0 -60" transform="rotate(0,1300,640)"/><path d="M 1450 610v 60h 30a 30 30, 0, 0, 0, 0 -60" transform="rotate(180,1480,640)"/><rect x="1510" y="610" width="60" height="60" transform="rotate(0,1540,640)"/><rect x="1570" y="610" width="60" height="60" transform="rotate(0,1600,640)"/><rect x="1630" y="610" width="60" height="60" transform="rotate(0,1660,640)"/><path d="M 1750 610v 60h 60v -30a 30 30, 0, 0, 0, -30 -30" transform="rotate(-90,1780,640)"/><rect x="1810" y="610" width="60" height="60" transform="rotate(0,1840,640)"/><path d="M 1870 610v 60h 60v -30a 30 30, 0, 0, 0, -30 -30" transform="rotate(90,1900,640)"/><rect x="130" y="670" width="60" height="60" transform="rotate(0,160,700)"/><path d="M 190 670v 60h 30a 30 30, 0, 0, 0, 0 -60" transform="rotate(0,220,700)"/><path d="M 430 670v 60h 60v -30a 30 30, 0, 0, 0, -30 -30" transform="rotate(-90,460,700)"/><path d="M 490 670v 60h 30a 30 30, 0, 0, 0, 0 -60" transform="rotate(0,520,700)"/><rect x="610" y="670" width="60" height="60" transform="rotate(0,640,700)"/><path d="M 670 670v 60h 60v -30a 30 30, 0, 0, 0, -30 -30" transform="rotate(90,700,700)"/><path d="M 850 670v 60h 30a 30 30, 0, 0, 0, 0 -60" transform="rotate(180,880,700)"/><path d="M 910 670v 60h 30a 30 30, 0, 0, 0, 0 -60" transform="rotate(0,940,700)"/><path d="M 1030 670v 60h 60v -30a 30 30, 0, 0, 0, -30 -30" transform="rotate(-90,1060,700)"/><rect x="1090" y="670" width="60" height="60" transform="rotate(0,1120,700)"/><rect x="1150" y="670" width="60" height="60" transform="rotate(0,1180,700)"/><path d="M 1330 670v 60h 60v -30a 30 30, 0, 0, 0, -30 -30" transform="rotate(-90,1360,700)"/><path d="M 1390 670v 60h 30a 30 30, 0, 0, 0, 0 -60" transform="rotate(0,1420,700)"/><path d="M 1630 670v 60h 30a 30 30, 0, 0, 0, 0 -60" transform="rotate(90,1660,700)"/><path d="M 1750 670v 60h 60v -30a 30 30, 0, 0, 0, -30 -30" transform="rotate(180,1780,700)"/><path d="M 1810 670v 60h 60v -30a 30 30, 0, 0, 0, -30 -30" transform="rotate(90,1840,700)"/><path d="M 70 730v 60h 30a 30 30, 0, 0, 0, 0 -60" transform="rotate(180,100,760)"/><rect x="130" y="730" width="60" height="60" transform="rotate(0,160,760)"/><path d="M 250 730v 60h 30a 30 30, 0, 0, 0, 0 -60" transform="rotate(180,280,760)"/><rect x="310" y="730" width="60" height="60" transform="rotate(0,340,760)"/><rect x="370" y="730" width="60" height="60" transform="rotate(0,400,760)"/><rect x="430" y="730" width="60" height="60" transform="rotate(0,460,760)"/><rect x="610" y="730" width="60" height="60" transform="rotate(0,640,760)"/><path d="M 790 730v 60h 30a 30 30, 0, 0, 0, 0 -60" transform="rotate(-90,820,760)"/><path d="M 970 730v 60h 30a 30 30, 0, 0, 0, 0 -60" transform="rotate(180,1000,760)"/><rect x="1030" y="730" width="60" height="60" transform="rotate(0,1060,760)"/><rect x="1090" y="730" width="60" height="60" transform="rotate(0,1120,760)"/><rect x="1150" y="730" width="60" height="60" transform="rotate(0,1180,760)"/><rect x="1210" y="730" width="60" height="60" transform="rotate(0,1240,760)"/><rect x="1270" y="730" width="60" height="60" transform="rotate(0,1300,760)"/><rect x="1330" y="730" width="60" height="60" transform="rotate(0,1360,760)"/><path d="M 1570 730v 60h 30a 30 30, 0, 0, 0, 0 -60" transform="rotate(-90,1600,760)"/><path d="M 1930 730v 60h 30a 30 30, 0, 0, 0, 0 -60" transform="rotate(-90,1960,760)"/><path d="M 130 790v 60h 30a 30 30, 0, 0, 0, 0 -60" transform="rotate(90,160,820)"/><path d="M 310 790v 60h 30a 30 30, 0, 0, 0, 0 -60" transform="rotate(90,340,820)"/><rect x="430" y="790" width="60" height="60" transform="rotate(0,460,820)"/><path d="M 610 790v 60h 30a 30 30, 0, 0, 0, 0 -60" transform="rotate(90,640,820)"/><path d="M 730 790v 60h 30a 30 30, 0, 0, 0, 0 -60" transform="rotate(180,760,820)"/><rect x="790" y="790" width="60" height="60" transform="rotate(0,820,820)"/><rect x="850" y="790" width="60" height="60" transform="rotate(0,880,820)"/><path d="M 910 790v 60h 30a 30 30, 0, 0, 0, 0 -60" transform="rotate(0,940,820)"/><rect x="1090" y="790" width="60" height="60" transform="rotate(0,1120,820)"/><rect x="1150" y="790" width="60" height="60" transform="rotate(0,1180,820)"/><path d="M 1270 790v 60h 60v -30a 30 30, 0, 0, 0, -30 -30" transform="rotate(180,1300,820)"/><rect x="1330" y="790" width="60" height="60" transform="rotate(0,1360,820)"/><path d="M 1390 790v 60h 30a 30 30, 0, 0, 0, 0 -60" transform="rotate(0,1420,820)"/><rect x="1570" y="790" width="60" height="60" transform="rotate(0,1600,820)"/><circle cx="1780" cy="820" r="30" transform="rotate(0,1780,820)"/><path d="M 1930 790v 60h 30a 30 30, 0, 0, 0, 0 -60" transform="rotate(90,1960,820)"/><path d="M 10 850v 60h 30a 30 30, 0, 0, 0, 0 -60" transform="rotate(180,40,880)"/><path d="M 70 850v 60h 60v -30a 30 30, 0, 0, 0, -30 -30" transform="rotate(0,100,880)"/><path d="M 190 850v 60h 30a 30 30, 0, 0, 0, 0 -60" transform="rotate(-90,220,880)"/><path d="M 370 850v 60h 30a 30 30, 0, 0, 0, 0 -60" transform="rotate(180,400,880)"/><rect x="430" y="850" width="60" height="60" transform="rotate(0,460,880)"/><path d="M 490 850v 60h 60v -30a 30 30, 0, 0, 0, -30 -30" transform="rotate(0,520,880)"/><circle cx="700" cy="880" r="30" transform="rotate(0,700,880)"/><rect x="790" y="850" width="60" height="60" transform="rotate(0,820,880)"/><path d="M 850 850v 60h 60v -30a 30 30, 0, 0, 0, -30 -30" transform="rotate(90,880,880)"/><path d="M 970 850v 60h 30a 30 30, 0, 0, 0, 0 -60" transform="rotate(-90,1000,880)"/><path d="M 1090 850v 60h 60v -30a 30 30, 0, 0, 0, -30 -30" transform="rotate(180,1120,880)"/><rect x="1150" y="850" width="60" height="60" transform="rotate(0,1180,880)"/><path d="M 1210 850v 60h 30a 30 30, 0, 0, 0, 0 -60" transform="rotate(0,1240,880)"/><path d="M 1330 850v 60h 30a 30 30, 0, 0, 0, 0 -60" transform="rotate(90,1360,880)"/><rect x="1570" y="850" width="60" height="60" transform="rotate(0,1600,880)"/><circle cx="1720" cy="880" r="30" transform="rotate(0,1720,880)"/><path d="M 1810 850v 60h 60v -30a 30 30, 0, 0, 0, -30 -30" transform="rotate(-90,1840,880)"/><path d="M 1870 850v 60h 60v -30a 30 30, 0, 0, 0, -30 -30" transform="rotate(0,1900,880)"/><rect x="70" y="910" width="60" height="60" transform="rotate(0,100,940)"/><path d="M 190 910v 60h 30a 30 30, 0, 0, 0, 0 -60" transform="rotate(90,220,940)"/><path d="M 490 910v 60h 30a 30 30, 0, 0, 0, 0 -60" transform="rotate(90,520,940)"/><path d="M 790 910v 60h 30a 30 30, 0, 0, 0, 0 -60" transform="rotate(90,820,940)"/><path d="M 970 910v 60h 60v -30a 30 30, 0, 0, 0, -30 -30" transform="rotate(180,1000,940)"/><path d="M 1030 910v 60h 30a 30 30, 0, 0, 0, 0 -60" transform="rotate(0,1060,940)"/><circle cx="1480" cy="940" r="30" transform="rotate(0,1480,940)"/><path d="M 1570 910v 60h 60v -30a 30 30, 0, 0, 0, -30 -30" transform="rotate(180,1600,940)"/><path d="M 1630 910v 60h 60v -30a 30 30, 0, 0, 0, -30 -30" transform="rotate(0,1660,940)"/><path d="M 1750 910v 60h 30a 30 30, 0, 0, 0, 0 -60" transform="rotate(180,1780,940)"/><rect x="1810" y="910" width="60" height="60" transform="rotate(0,1840,940)"/><rect x="1870" y="910" width="60" height="60" transform="rotate(0,1900,940)"/><rect x="70" y="970" width="60" height="60" transform="rotate(0,100,1000)"/><path d="M 130 970v 60h 30a 30 30, 0, 0, 0, 0 -60" transform="rotate(0,160,1000)"/><path d="M 250 970v 60h 30a 30 30, 0, 0, 0, 0 -60" transform="rotate(180,280,1000)"/><rect x="310" y="970" width="60" height="60" transform="rotate(0,340,1000)"/><path d="M 370 970v 60h 30a 30 30, 0, 0, 0, 0 -60" transform="rotate(0,400,1000)"/><path d="M 670 970v 60h 30a 30 30, 0, 0, 0, 0 -60" transform="rotate(180,700,1000)"/><path d="M 730 970v 60h 60v -30a 30 30, 0, 0, 0, -30 -30" transform="rotate(0,760,1000)"/><path d="M 1150 970v 60h 30a 30 30, 0, 0, 0, 0 -60" transform="rotate(-90,1180,1000)"/><path d="M 1390 970v 60h 30a 30 30, 0, 0, 0, 0 -60" transform="rotate(-90,1420,1000)"/><circle cx="1540" cy="1000" r="30" transform="rotate(0,1540,1000)"/><rect x="1630" y="970" width="60" height="60" transform="rotate(0,1660,1000)"/><path d="M 1690 970v 60h 30a 30 30, 0, 0, 0, 0 -60" transform="rotate(0,1720,1000)"/><path d="M 1870 970v 60h 60v -30a 30 30, 0, 0, 0, -30 -30" transform="rotate(180,1900,1000)"/><path d="M 1930 970v 60h 60v -30a 30 30, 0, 0, 0, -30 -30" transform="rotate(0,1960,1000)"/><rect x="70" y="1030" width="60" height="60" transform="rotate(0,100,1060)"/><circle cx="220" cy="1060" r="30" transform="rotate(0,220,1060)"/><circle cx="580" cy="1060" r="30" transform="rotate(0,580,1060)"/><rect x="730" y="1030" width="60" height="60" transform="rotate(0,760,1060)"/><rect x="790" y="1030" width="60" height="60" transform="rotate(0,820,1060)"/><rect x="850" y="1030" width="60" height="60" transform="rotate(0,880,1060)"/><rect x="910" y="1030" width="60" height="60" transform="rotate(0,940,1060)"/><path d="M 970 1030v 60h 30a 30 30, 0, 0, 0, 0 -60" transform="rotate(0,1000,1060)"/><rect x="1150" y="1030" width="60" height="60" transform="rotate(0,1180,1060)"/><rect x="1210" y="1030" width="60" height="60" transform="rotate(0,1240,1060)"/><path d="M 1270 1030v 60h 60v -30a 30 30, 0, 0, 0, -30 -30" transform="rotate(0,1300,1060)"/><rect x="1390" y="1030" width="60" height="60" transform="rotate(0,1420,1060)"/><path d="M 1450 1030v 60h 30a 30 30, 0, 0, 0, 0 -60" transform="rotate(0,1480,1060)"/><path d="M 1570 1030v 60h 60v -30a 30 30, 0, 0, 0, -30 -30" transform="rotate(-90,1600,1060)"/><path d="M 1630 1030v 60h 60v -30a 30 30, 0, 0, 0, -30 -30" transform="rotate(90,1660,1060)"/><rect x="1930" y="1030" width="60" height="60" transform="rotate(0,1960,1060)"/><path d="M 10 1090v 60h 30a 30 30, 0, 0, 0, 0 -60" transform="rotate(180,40,1120)"/><rect x="70" y="1090" width="60" height="60" transform="rotate(0,100,1120)"/><path d="M 130 1090v 60h 60v -30a 30 30, 0, 0, 0, -30 -30" transform="rotate(0,160,1120)"/><path d="M 310 1090v 60h 30a 30 30, 0, 0, 0, 0 -60" transform="rotate(180,340,1120)"/><path d="M 370 1090v 60h 30a 30 30, 0, 0, 0, 0 -60" transform="rotate(0,400,1120)"/><path d="M 490 1090v 60h 30a 30 30, 0, 0, 0, 0 -60" transform="rotate(-90,520,1120)"/><rect x="730" y="1090" width="60" height="60" transform="rotate(0,760,1120)"/><rect x="850" y="1090" width="60" height="60" transform="rotate(0,880,1120)"/><path d="M 910 1090v 60h 60v -30a 30 30, 0, 0, 0, -30 -30" transform="rotate(90,940,1120)"/><path d="M 1090 1090v 60h 30a 30 30, 0, 0, 0, 0 -60" transform="rotate(180,1120,1120)"/><rect x="1150" y="1090" width="60" height="60" transform="rotate(0,1180,1120)"/><path d="M 1270 1090v 60h 30a 30 30, 0, 0, 0, 0 -60" transform="rotate(90,1300,1120)"/><rect x="1390" y="1090" width="60" height="60" transform="rotate(0,1420,1120)"/><path d="M 1510 1090v 60h 30a 30 30, 0, 0, 0, 0 -60" transform="rotate(180,1540,1120)"/><path d="M 1570 1090v 60h 60v -30a 30 30, 0, 0, 0, -30 -30" transform="rotate(90,1600,1120)"/><path d="M 1750 1090v 60h 60v -30a 30 30, 0, 0, 0, -30 -30" transform="rotate(-90,1780,1120)"/><path d="M 1810 1090v 60h 60v -30a 30 30, 0, 0, 0, -30 -30" transform="rotate(0,1840,1120)"/><path d="M 1930 1090v 60h 30a 30 30, 0, 0, 0, 0 -60" transform="rotate(90,1960,1120)"/><rect x="130" y="1150" width="60" height="60" transform="rotate(0,160,1180)"/><circle cx="280" cy="1180" r="30" transform="rotate(0,280,1180)"/><path d="M 430 1150v 60h 60v -30a 30 30, 0, 0, 0, -30 -30" transform="rotate(-90,460,1180)"/><rect x="490" y="1150" width="60" height="60" transform="rotate(0,520,1180)"/><path d="M 550 1150v 60h 30a 30 30, 0, 0, 0, 0 -60" transform="rotate(0,580,1180)"/><path d="M 670 1150v 60h 30a 30 30, 0, 0, 0, 0 -60" transform="rotate(180,700,1180)"/><rect x="730" y="1150" width="60" height="60" transform="rotate(0,760,1180)"/><rect x="790" y="1150" width="60" height="60" transform="rotate(0,820,1180)"/><path d="M 850 1150v 60h 60v -30a 30 30, 0, 0, 0, -30 -30" transform="rotate(90,880,1180)"/><rect x="1150" y="1150" width="60" height="60" transform="rotate(0,1180,1180)"/><path d="M 1210 1150v 60h 60v -30a 30 30, 0, 0, 0, -30 -30" transform="rotate(0,1240,1180)"/><path d="M 1330 1150v 60h 30a 30 30, 0, 0, 0, 0 -60" transform="rotate(180,1360,1180)"/><rect x="1390" y="1150" width="60" height="60" transform="rotate(0,1420,1180)"/><path d="M 1450 1150v 60h 60v -30a 30 30, 0, 0, 0, -30 -30" transform="rotate(0,1480,1180)"/><path d="M 1630 1150v 60h 60v -30a 30 30, 0, 0, 0, -30 -30" transform="rotate(-90,1660,1180)"/><rect x="1690" y="1150" width="60" height="60" transform="rotate(0,1720,1180)"/><rect x="1750" y="1150" width="60" height="60" transform="rotate(0,1780,1180)"/><rect x="1810" y="1150" width="60" height="60" transform="rotate(0,1840,1180)"/><path d="M 1870 1150v 60h 30a 30 30, 0, 0, 0, 0 -60" transform="rotate(0,1900,1180)"/><path d="M 70 1210v 60h 60v -30a 30 30, 0, 0, 0, -30 -30" transform="rotate(-90,100,1240)"/><rect x="130" y="1210" width="60" height="60" transform="rotate(0,160,1240)"/><path d="M 370 1210v 60h 30a 30 30, 0, 0, 0, 0 -60" transform="rotate(180,400,1240)"/><rect x="430" y="1210" width="60" height="60" transform="rotate(0,460,1240)"/><circle cx="640" cy="1240" r="30" transform="rotate(0,640,1240)"/><path d="M 730 1210v 60h 30a 30 30, 0, 0, 0, 0 -60" transform="rotate(90,760,1240)"/><circle cx="940" cy="1240" r="30" transform="rotate(0,940,1240)"/><path d="M 1150 1210v 60h 60v -30a 30 30, 0, 0, 0, -30 -30" transform="rotate(180,1180,1240)"/><rect x="1210" y="1210" width="60" height="60" transform="rotate(0,1240,1240)"/><rect x="1450" y="1210" width="60" height="60" transform="rotate(0,1480,1240)"/><rect x="1630" y="1210" width="60" height="60" transform="rotate(0,1660,1240)"/><rect x="1690" y="1210" width="60" height="60" transform="rotate(0,1720,1240)"/><path d="M 1750 1210v 60h 60v -30a 30 30, 0, 0, 0, -30 -30" transform="rotate(90,1780,1240)"/><circle cx="1960" cy="1240" r="30" transform="rotate(0,1960,1240)"/><path d="M 10 1270v 60h 60v -30a 30 30, 0, 0, 0, -30 -30" transform="rotate(-90,40,1300)"/><rect x="70" y="1270" width="60" height="60" transform="rotate(0,100,1300)"/><path d="M 130 1270v 60h 60v -30a 30 30, 0, 0, 0, -30 -30" transform="rotate(90,160,1300)"/><circle cx="280" cy="1300" r="30" transform="rotate(0,280,1300)"/><rect x="430" y="1270" width="60" height="60" transform="rotate(0,460,1300)"/><path d="M 550 1270v 60h 30a 30 30, 0, 0, 0, 0 -60" transform="rotate(-90,580,1300)"/><path d="M 670 1270v 60h 30a 30 30, 0, 0, 0, 0 -60" transform="rotate(-90,700,1300)"/><path d="M 970 1270v 60h 30a 30 30, 0, 0, 0, 0 -60" transform="rotate(180,1000,1300)"/><path d="M 1030 1270v 60h 60v -30a 30 30, 0, 0, 0, -30 -30" transform="rotate(0,1060,1300)"/><path d="M 1210 1270v 60h 30a 30 30, 0, 0, 0, 0 -60" transform="rotate(90,1240,1300)"/><circle cx="1360" cy="1300" r="30" transform="rotate(0,1360,1300)"/><path d="M 1450 1270v 60h 60v -30a 30 30, 0, 0, 0, -30 -30" transform="rotate(180,1480,1300)"/><path d="M 1510 1270v 60h 30a 30 30, 0, 0, 0, 0 -60" transform="rotate(0,1540,1300)"/><path d="M 1630 1270v 60h 60v -30a 30 30, 0, 0, 0, -30 -30" transform="rotate(180,1660,1300)"/><path d="M 1690 1270v 60h 60v -30a 30 30, 0, 0, 0, -30 -30" transform="rotate(90,1720,1300)"/><circle cx="1840" cy="1300" r="30" transform="rotate(0,1840,1300)"/><rect x="10" y="1330" width="60" height="60" transform="rotate(0,40,1360)"/><path d="M 310 1330v 60h 60v -30a 30 30, 0, 0, 0, -30 -30" transform="rotate(-90,340,1360)"/><rect x="370" y="1330" width="60" height="60" transform="rotate(0,400,1360)"/><path d="M 430 1330v 60h 60v -30a 30 30, 0, 0, 0, -30 -30" transform="rotate(90,460,1360)"/><path d="M 550 1330v 60h 60v -30a 30 30, 0, 0, 0, -30 -30" transform="rotate(180,580,1360)"/><rect x="610" y="1330" width="60" height="60" transform="rotate(0,640,1360)"/><path d="M 670 1330v 60h 60v -30a 30 30, 0, 0, 0, -30 -30" transform="rotate(90,700,1360)"/><path d="M 790 1330v 60h 60v -30a 30 30, 0, 0, 0, -30 -30" transform="rotate(-90,820,1360)"/><rect x="850" y="1330" width="60" height="60" transform="rotate(0,880,1360)"/><path d="M 910 1330v 60h 60v -30a 30 30, 0, 0, 0, -30 -30" transform="rotate(0,940,1360)"/><rect x="1030" y="1330" width="60" height="60" transform="rotate(0,1060,1360)"/><circle cx="1900" cy="1360" r="30" transform="rotate(0,1900,1360)"/><rect x="10" y="1390" width="60" height="60" transform="rotate(0,40,1420)"/><path d="M 130 1390v 60h 60v -30a 30 30, 0, 0, 0, -30 -30" transform="rotate(-90,160,1420)"/><rect x="190" y="1390" width="60" height="60" transform="rotate(0,220,1420)"/><rect x="250" y="1390" width="60" height="60" transform="rotate(0,280,1420)"/><rect x="310" y="1390" width="60" height="60" transform="rotate(0,340,1420)"/><path d="M 730 1390v 60h 60v -30a 30 30, 0, 0, 0, -30 -30" transform="rotate(-90,760,1420)"/><rect x="790" y="1390" width="60" height="60" transform="rotate(0,820,1420)"/><rect x="850" y="1390" width="60" height="60" transform="rotate(0,880,1420)"/><path d="M 910 1390v 60h 60v -30a 30 30, 0, 0, 0, -30 -30" transform="rotate(90,940,1420)"/><path d="M 1030 1390v 60h 30a 30 30, 0, 0, 0, 0 -60" transform="rotate(90,1060,1420)"/><circle cx="1240" cy="1420" r="30" transform="rotate(0,1240,1420)"/><path d="M 1450 1390v 60h 30a 30 30, 0, 0, 0, 0 -60" transform="rotate(-90,1480,1420)"/><path d="M 1690 1390v 60h 60v -30a 30 30, 0, 0, 0, -30 -30" transform="rotate(-90,1720,1420)"/><rect x="1750" y="1390" width="60" height="60" transform="rotate(0,1780,1420)"/><path d="M 1810 1390v 60h 30a 30 30, 0, 0, 0, 0 -60" transform="rotate(0,1840,1420)"/><circle cx="1960" cy="1420" r="30" transform="rotate(0,1960,1420)"/><path d="M 10 1450v 60h 60v -30a 30 30, 0, 0, 0, -30 -30" transform="rotate(180,40,1480)"/><rect x="70" y="1450" width="60" height="60" transform="rotate(0,100,1480)"/><path d="M 130 1450v 60h 60v -30a 30 30, 0, 0, 0, -30 -30" transform="rotate(90,160,1480)"/><path d="M 250 1450v 60h 60v -30a 30 30, 0, 0, 0, -30 -30" transform="rotate(180,280,1480)"/><rect x="310" y="1450" width="60" height="60" transform="rotate(0,340,1480)"/><rect x="370" y="1450" width="60" height="60" transform="rotate(0,400,1480)"/><rect x="430" y="1450" width="60" height="60" transform="rotate(0,460,1480)"/><rect x="490" y="1450" width="60" height="60" transform="rotate(0,520,1480)"/><rect x="550" y="1450" width="60" height="60" transform="rotate(0,580,1480)"/><rect x="610" y="1450" width="60" height="60" transform="rotate(0,640,1480)"/><rect x="670" y="1450" width="60" height="60" transform="rotate(0,700,1480)"/><rect x="730" y="1450" width="60" height="60" transform="rotate(0,760,1480)"/><path d="M 850 1450v 60h 30a 30 30, 0, 0, 0, 0 -60" transform="rotate(90,880,1480)"/><circle cx="1000" cy="1480" r="30" transform="rotate(0,1000,1480)"/><path d="M 1090 1450v 60h 30a 30 30, 0, 0, 0, 0 -60" transform="rotate(180,1120,1480)"/><path d="M 1150 1450v 60h 60v -30a 30 30, 0, 0, 0, -30 -30" transform="rotate(0,1180,1480)"/><path d="M 1390 1450v 60h 30a 30 30, 0, 0, 0, 0 -60" transform="rotate(180,1420,1480)"/><rect x="1450" y="1450" width="60" height="60" transform="rotate(0,1480,1480)"/><rect x="1510" y="1450" width="60" height="60" transform="rotate(0,1540,1480)"/><rect x="1570" y="1450" width="60" height="60" transform="rotate(0,1600,1480)"/><rect x="1630" y="1450" width="60" height="60" transform="rotate(0,1660,1480)"/><rect x="1690" y="1450" width="60" height="60" transform="rotate(0,1720,1480)"/><path d="M 1750 1450v 60h 60v -30a 30 30, 0, 0, 0, -30 -30" transform="rotate(90,1780,1480)"/><path d="M 490 1510v 60h 60v -30a 30 30, 0, 0, 0, -30 -30" transform="rotate(180,520,1540)"/><rect x="550" y="1510" width="60" height="60" transform="rotate(0,580,1540)"/><rect x="610" y="1510" width="60" height="60" transform="rotate(0,640,1540)"/><rect x="670" y="1510" width="60" height="60" transform="rotate(0,700,1540)"/><rect x="730" y="1510" width="60" height="60" transform="rotate(0,760,1540)"/><path d="M 790 1510v 60h 30a 30 30, 0, 0, 0, 0 -60" transform="rotate(0,820,1540)"/><rect x="1150" y="1510" width="60" height="60" transform="rotate(0,1180,1540)"/><circle cx="1300" cy="1540" r="30" transform="rotate(0,1300,1540)"/><rect x="1450" y="1510" width="60" height="60" transform="rotate(0,1480,1540)"/><rect x="1690" y="1510" width="60" height="60" transform="rotate(0,1720,1540)"/><path d="M 1810 1510v 60h 30a 30 30, 0, 0, 0, 0 -60" transform="rotate(180,1840,1540)"/><rect x="1870" y="1510" width="60" height="60" transform="rotate(0,1900,1540)"/><path d="M 1930 1510v 60h 30a 30 30, 0, 0, 0, 0 -60" transform="rotate(0,1960,1540)"/><rect x="550" y="1570" width="60" height="60" transform="rotate(0,580,1600)"/><rect x="670" y="1570" width="60" height="60" transform="rotate(0,700,1600)"/><rect x="730" y="1570" width="60" height="60" transform="rotate(0,760,1600)"/><circle cx="880" cy="1600" r="30" transform="rotate(0,880,1600)"/><path d="M 970 1570v 60h 30a 30 30, 0, 0, 0, 0 -60" transform="rotate(180,1000,1600)"/><path d="M 1030 1570v 60h 30a 30 30, 0, 0, 0, 0 -60" transform="rotate(0,1060,1600)"/><path d="M 1150 1570v 60h 60v -30a 30 30, 0, 0, 0, -30 -30" transform="rotate(180,1180,1600)"/><path d="M 1210 1570v 60h 30a 30 30, 0, 0, 0, 0 -60" transform="rotate(0,1240,1600)"/><path d="M 1330 1570v 60h 60v -30a 30 30, 0, 0, 0, -30 -30" transform="rotate(-90,1360,1600)"/><rect x="1390" y="1570" width="60" height="60" transform="rotate(0,1420,1600)"/><rect x="1450" y="1570" width="60" height="60" transform="rotate(0,1480,1600)"/><circle cx="1600" cy="1600" r="30" transform="rotate(0,1600,1600)"/><rect x="1690" y="1570" width="60" height="60" transform="rotate(0,1720,1600)"/><path d="M 1750 1570v 60h 30a 30 30, 0, 0, 0, 0 -60" transform="rotate(0,1780,1600)"/><rect x="1870" y="1570" width="60" height="60" transform="rotate(0,1900,1600)"/><path d="M 490 1630v 60h 30a 30 30, 0, 0, 0, 0 -60" transform="rotate(180,520,1660)"/><rect x="550" y="1630" width="60" height="60" transform="rotate(0,580,1660)"/><rect x="610" y="1630" width="60" height="60" transform="rotate(0,640,1660)"/><rect x="670" y="1630" width="60" height="60" transform="rotate(0,700,1660)"/><rect x="730" y="1630" width="60" height="60" transform="rotate(0,760,1660)"/><path d="M 790 1630v 60h 60v -30a 30 30, 0, 0, 0, -30 -30" transform="rotate(0,820,1660)"/><path d="M 1270 1630v 60h 60v -30a 30 30, 0, 0, 0, -30 -30" transform="rotate(-90,1300,1660)"/><rect x="1330" y="1630" width="60" height="60" transform="rotate(0,1360,1660)"/><rect x="1390" y="1630" width="60" height="60" transform="rotate(0,1420,1660)"/><rect x="1450" y="1630" width="60" height="60" transform="rotate(0,1480,1660)"/><rect x="1690" y="1630" width="60" height="60" transform="rotate(0,1720,1660)"/><path d="M 1810 1630v 60h 30a 30 30, 0, 0, 0, 0 -60" transform="rotate(180,1840,1660)"/><rect x="1870" y="1630" width="60" height="60" transform="rotate(0,1900,1660)"/><rect x="670" y="1690" width="60" height="60" transform="rotate(0,700,1720)"/><rect x="790" y="1690" width="60" height="60" transform="rotate(0,820,1720)"/><path d="M 850 1690v 60h 30a 30 30, 0, 0, 0, 0 -60" transform="rotate(0,880,1720)"/><path d="M 1150 1690v 60h 60v -30a 30 30, 0, 0, 0, -30 -30" transform="rotate(-90,1180,1720)"/><rect x="1210" y="1690" width="60" height="60" transform="rotate(0,1240,1720)"/><rect x="1270" y="1690" width="60" height="60" transform="rotate(0,1300,1720)"/><path d="M 1330 1690v 60h 60v -30a 30 30, 0, 0, 0, -30 -30" transform="rotate(90,1360,1720)"/><rect x="1450" y="1690" width="60" height="60" transform="rotate(0,1480,1720)"/><rect x="1510" y="1690" width="60" height="60" transform="rotate(0,1540,1720)"/><rect x="1570" y="1690" width="60" height="60" transform="rotate(0,1600,1720)"/><rect x="1630" y="1690" width="60" height="60" transform="rotate(0,1660,1720)"/><rect x="1690" y="1690" width="60" height="60" transform="rotate(0,1720,1720)"/><rect x="1870" y="1690" width="60" height="60" transform="rotate(0,1900,1720)"/><path d="M 1930 1690v 60h 30a 30 30, 0, 0, 0, 0 -60" transform="rotate(0,1960,1720)"/><path d="M 550 1750v 60h 30a 30 30, 0, 0, 0, 0 -60" transform="rotate(180,580,1780)"/><rect x="610" y="1750" width="60" height="60" transform="rotate(0,640,1780)"/><path d="M 670 1750v 60h 60v -30a 30 30, 0, 0, 0, -30 -30" transform="rotate(90,700,1780)"/><rect x="790" y="1750" width="60" height="60" transform="rotate(0,820,1780)"/><circle cx="1000" cy="1780" r="30" transform="rotate(0,1000,1780)"/><path d="M 1150 1750v 60h 30a 30 30, 0, 0, 0, 0 -60" transform="rotate(90,1180,1780)"/><rect x="1270" y="1750" width="60" height="60" transform="rotate(0,1300,1780)"/><path d="M 1390 1750v 60h 60v -30a 30 30, 0, 0, 0, -30 -30" transform="rotate(-90,1420,1780)"/><rect x="1450" y="1750" width="60" height="60" transform="rotate(0,1480,1780)"/><path d="M 1510 1750v 60h 60v -30a 30 30, 0, 0, 0, -30 -30" transform="rotate(90,1540,1780)"/><path d="M 1630 1750v 60h 60v -30a 30 30, 0, 0, 0, -30 -30" transform="rotate(180,1660,1780)"/><rect x="1690" y="1750" width="60" height="60" transform="rotate(0,1720,1780)"/><path d="M 1750 1750v 60h 60v -30a 30 30, 0, 0, 0, -30 -30" transform="rotate(0,1780,1780)"/><rect x="1870" y="1750" width="60" height="60" transform="rotate(0,1900,1780)"/><path d="M 730 1810v 60h 30a 30 30, 0, 0, 0, 0 -60" transform="rotate(180,760,1840)"/><rect x="790" y="1810" width="60" height="60" transform="rotate(0,820,1840)"/><circle cx="940" cy="1840" r="30" transform="rotate(0,940,1840)"/><path d="M 1090 1810v 60h 30a 30 30, 0, 0, 0, 0 -60" transform="rotate(-90,1120,1840)"/><path d="M 1210 1810v 60h 30a 30 30, 0, 0, 0, 0 -60" transform="rotate(180,1240,1840)"/><rect x="1270" y="1810" width="60" height="60" transform="rotate(0,1300,1840)"/><rect x="1330" y="1810" width="60" height="60" transform="rotate(0,1360,1840)"/><rect x="1390" y="1810" width="60" height="60" transform="rotate(0,1420,1840)"/><path d="M 1450 1810v 60h 60v -30a 30 30, 0, 0, 0, -30 -30" transform="rotate(90,1480,1840)"/><path d="M 1690 1810v 60h 60v -30a 30 30, 0, 0, 0, -30 -30" transform="rotate(180,1720,1840)"/><rect x="1750" y="1810" width="60" height="60" transform="rotate(0,1780,1840)"/><rect x="1810" y="1810" width="60" height="60" transform="rotate(0,1840,1840)"/><rect x="1870" y="1810" width="60" height="60" transform="rotate(0,1900,1840)"/><path d="M 1930 1810v 60h 30a 30 30, 0, 0, 0, 0 -60" transform="rotate(0,1960,1840)"/><path d="M 790 1870v 60h 60v -30a 30 30, 0, 0, 0, -30 -30" transform="rotate(180,820,1900)"/><path d="M 850 1870v 60h 60v -30a 30 30, 0, 0, 0, -30 -30" transform="rotate(0,880,1900)"/><path d="M 1030 1870v 60h 60v -30a 30 30, 0, 0, 0, -30 -30" transform="rotate(-90,1060,1900)"/><path d="M 1090 1870v 60h 60v -30a 30 30, 0, 0, 0, -30 -30" transform="rotate(90,1120,1900)"/><path d="M 1270 1870v 60h 60v -30a 30 30, 0, 0, 0, -30 -30" transform="rotate(180,1300,1900)"/><path d="M 1330 1870v 60h 60v -30a 30 30, 0, 0, 0, -30 -30" transform="rotate(90,1360,1900)"/><path d="M 1510 1870v 60h 30a 30 30, 0, 0, 0, 0 -60" transform="rotate(180,1540,1900)"/><path d="M 1570 1870v 60h 30a 30 30, 0, 0, 0, 0 -60" transform="rotate(0,1600,1900)"/><rect x="1750" y="1870" width="60" height="60" transform="rotate(0,1780,1900)"/><rect x="1810" y="1870" width="60" height="60" transform="rotate(0,1840,1900)"/><path d="M 610 1930v 60h 30a 30 30, 0, 0, 0, 0 -60" transform="rotate(180,640,1960)"/><rect x="670" y="1930" width="60" height="60" transform="rotate(0,700,1960)"/><path d="M 730 1930v 60h 30a 30 30, 0, 0, 0, 0 -60" transform="rotate(0,760,1960)"/><path d="M 850 1930v 60h 30a 30 30, 0, 0, 0, 0 -60" transform="rotate(90,880,1960)"/><path d="M 1030 1930v 60h 30a 30 30, 0, 0, 0, 0 -60" transform="rotate(90,1060,1960)"/><path d="M 1150 1930v 60h 30a 30 30, 0, 0, 0, 0 -60" transform="rotate(180,1180,1960)"/><path d="M 1210 1930v 60h 30a 30 30, 0, 0, 0, 0 -60" transform="rotate(0,1240,1960)"/><path d="M 1390 1930v 60h 30a 30 30, 0, 0, 0, 0 -60" transform="rotate(180,1420,1960)"/><path d="M 1450 1930v 60h 30a 30 30, 0, 0, 0, 0 -60" transform="rotate(0,1480,1960)"/><path d="M 1750 1930v 60h 60v -30a 30 30, 0, 0, 0, -30 -30" transform="rotate(180,1780,1960)"/><rect x="1810" y="1930" width="60" height="60" transform="rotate(0,1840,1960)"/><path d="M 1870 1930v 60h 30a 30 30, 0, 0, 0, 0 -60" transform="rotate(0,1900,1960)"/></clipPath><clipPath id="clip-path-corners-square-color-0-0-0"><path clip-rule="evenodd" d="M 10 160v 120a 150 150, 0, 0, 0, 150 150h 120a 150 150, 0, 0, 0, 150 -150v -120a 150 150, 0, 0, 0, -150 -150h -120a 150 150, 0, 0, 0, -150 150M 160 70h 120a 90 90, 0, 0, 1, 90 90v 120a 90 90, 0, 0, 1, -90 90h -120a 90 90, 0, 0, 1, -90 -90v -120a 90 90, 0, 0, 1, 90 -90" transform="rotate(0,220,220)"/></clipPath><clipPath id="clip-path-corners-dot-color-0-0-0"><circle cx="220" cy="220" r="90" transform="rotate(0,220,220)"/></clipPath><clipPath id="clip-path-corners-square-color-1-0-0"><path clip-rule="evenodd" d="M 1570 160v 120a 150 150, 0, 0, 0, 150 150h 120a 150 150, 0, 0, 0, 150 -150v -120a 150 150, 0, 0, 0, -150 -150h -120a 150 150, 0, 0, 0, -150 150M 1720 70h 120a 90 90, 0, 0, 1, 90 90v 120a 90 90, 0, 0, 1, -90 90h -120a 90 90, 0, 0, 1, -90 -90v -120a 90 90, 0, 0, 1, 90 -90" transform="rotate(90,1780,220)"/></clipPath><clipPath id="clip-path-corners-dot-color-1-0-0"><circle cx="1780" cy="220" r="90" transform="rotate(90,1780,220)"/></clipPath><clipPath id="clip-path-corners-square-color-0-1-0"><path clip-rule="evenodd" d="M 10 1720v 120a 150 150, 0, 0, 0, 150 150h 120a 150 150, 0, 0, 0, 150 -150v -120a 150 150, 0, 0, 0, -150 -150h -120a 150 150, 0, 0, 0, -150 150M 160 1630h 120a 90 90, 0, 0, 1, 90 90v 120a 90 90, 0, 0, 1, -90 90h -120a 90 90, 0, 0, 1, -90 -90v -120a 90 90, 0, 0, 1, 90 -90" transform="rotate(-90,220,1780)"/></clipPath><clipPath id="clip-path-corners-dot-color-0-1-0"><circle cx="220" cy="1780" r="90" transform="rotate(-90,220,1780)"/></clipPath></defs><rect x="0" y="0" height="2000" width="2000" clip-path="url('#clip-path-background-color-0')" fill="#1f1f1f"/><rect x="0" y="0" height="2000" width="2000" clip-path="url('#clip-path-dot-color-0')" fill="#2dd4bf"/><rect x="10" y="10" height="420" width="420" clip-path="url('#clip-path-corners-square-color-0-0-0')" fill="#2dd4bf"/><rect x="130" y="130" height="180" width="180" clip-path="url('#clip-path-corners-dot-color-0-0-0')" fill="#ffbd4a"/><rect x="1570" y="10" height="420" width="420" clip-path="url('#clip-path-corners-square-color-1-0-0')" fill="#2dd4bf"/><rect x="1690" y="130" height="180" width="180" clip-path="url('#clip-path-corners-dot-color-1-0-0')" fill="#ffbd4a"/><rect x="10" y="1570" height="420" width="420" clip-path="url('#clip-path-corners-square-color-0-1-0')" fill="#2dd4bf"/><rect x="130" y="1690" height="180" width="180" clip-path="url('#clip-path-corners-dot-color-0-1-0')" fill="#ffbd4a"/></svg>